solid grabitembox
   facet normal 1.000000e+00 0.000000e+00 0.000000e+00
      outer loop
         vertex 2.000000e-02 -2.000000e-02 4.000000e-02
         vertex 2.000000e-02 -2.000000e-02 4.470348e-10
         vertex 2.000000e-02 2.000000e-02 4.000000e-02
      endloop
   endfacet
   facet normal 1.000000e+00 0.000000e+00 0.000000e+00
      outer loop
         vertex 2.000000e-02 2.000000e-02 4.000000e-02
         vertex 2.000000e-02 -2.000000e-02 4.470348e-10
         vertex 2.000000e-02 2.000000e-02 4.470348e-10
      endloop
   endfacet
   facet normal 0.000000e+00 0.000000e+00 1.000000e+00
      outer loop
         vertex -2.000000e-02 -2.000000e-02 4.000000e-02
         vertex 2.000000e-02 -2.000000e-02 4.000000e-02
         vertex -2.000000e-02 2.000000e-02 4.000000e-02
      endloop
   endfacet
   facet normal 0.000000e+00 0.000000e+00 1.000000e+00
      outer loop
         vertex -2.000000e-02 2.000000e-02 4.000000e-02
         vertex 2.000000e-02 -2.000000e-02 4.000000e-02
         vertex 2.000000e-02 2.000000e-02 4.000000e-02
      endloop
   endfacet
   facet normal -1.000000e+00 0.000000e+00 0.000000e+00
      outer loop
         vertex -2.000000e-02 -2.000000e-02 4.470348e-10
         vertex -2.000000e-02 -2.000000e-02 4.000000e-02
         vertex -2.000000e-02 2.000000e-02 4.470348e-10
      endloop
   endfacet
   facet normal -1.000000e+00 0.000000e+00 0.000000e+00
      outer loop
         vertex -2.000000e-02 2.000000e-02 4.470348e-10
         vertex -2.000000e-02 -2.000000e-02 4.000000e-02
         vertex -2.000000e-02 2.000000e-02 4.000000e-02
      endloop
   endfacet
   facet normal -0.000000e+00 0.000000e+00 -1.000000e+00
      outer loop
         vertex 2.000000e-02 -2.000000e-02 4.470348e-10
         vertex -2.000000e-02 -2.000000e-02 4.470348e-10
         vertex 2.000000e-02 2.000000e-02 4.470348e-10
      endloop
   endfacet
   facet normal 0.000000e+00 0.000000e+00 -1.000000e+00
      outer loop
         vertex 2.000000e-02 2.000000e-02 4.470348e-10
         vertex -2.000000e-02 -2.000000e-02 4.470348e-10
         vertex -2.000000e-02 2.000000e-02 4.470348e-10
      endloop
   endfacet
   facet normal 0.000000e+00 -1.000000e+00 0.000000e+00
      outer loop
         vertex -2.000000e-02 -2.000000e-02 4.000000e-02
         vertex -2.000000e-02 -2.000000e-02 4.470348e-10
         vertex 2.000000e-02 -2.000000e-02 4.000000e-02
      endloop
   endfacet
   facet normal 0.000000e+00 -1.000000e+00 0.000000e+00
      outer loop
         vertex 2.000000e-02 -2.000000e-02 4.000000e-02
         vertex -2.000000e-02 -2.000000e-02 4.470348e-10
         vertex 2.000000e-02 -2.000000e-02 4.470348e-10
      endloop
   endfacet
   facet normal 0.000000e+00 1.000000e+00 0.000000e+00
      outer loop
         vertex -2.000000e-02 2.000000e-02 4.470348e-10
         vertex -2.000000e-02 2.000000e-02 4.000000e-02
         vertex 2.000000e-02 2.000000e-02 4.470348e-10
      endloop
   endfacet
   facet normal 0.000000e+00 1.000000e+00 0.000000e+00
      outer loop
         vertex 2.000000e-02 2.000000e-02 4.470348e-10
         vertex -2.000000e-02 2.000000e-02 4.000000e-02
         vertex 2.000000e-02 2.000000e-02 4.000000e-02
      endloop
   endfacet
endsolid