solid STL generated by MeshLab
  facet normal  1.042310e-04  2.017748e-07  1.000000e+00
    outer loop
      vertex   4.692552e+00 -9.090725e-01  3.141157e+01
      vertex   1.745129e+01 -3.060938e+00  3.141024e+01
      vertex   1.743994e+01  2.805171e+00  3.141024e+01
    endloop
  endfacet
  facet normal -2.437189e-06  3.662898e-04  9.999999e-01
    outer loop
      vertex   4.692552e+00 -9.090725e-01  3.141157e+01
      vertex   1.743994e+01  2.805171e+00  3.141024e+01
      vertex   3.845654e+00  2.714719e+00  3.141024e+01
    endloop
  endfacet
  facet normal  0.000000e+00  0.000000e+00  1.000000e+00
    outer loop
      vertex   3.845654e+00  2.714719e+00  3.141024e+01
      vertex   1.743994e+01  2.805171e+00  3.141024e+01
      vertex   1.488881e+01  9.789063e+00  3.141024e+01
    endloop
  endfacet
  facet normal -9.695096e-05  1.790118e-05  1.000000e+00
    outer loop
      vertex  -2.421680e+00 -4.102167e+00  3.141032e+01
      vertex  -4.266670e+00 -1.718436e+01  3.141037e+01
      vertex   2.269067e+00 -4.269271e+00  3.141077e+01
    endloop
  endfacet
  facet normal  2.117976e-05 -4.187938e-05  1.000000e+00
    outer loop
      vertex   2.269067e+00 -4.269271e+00  3.141077e+01
      vertex  -4.266670e+00 -1.718436e+01  3.141037e+01
      vertex   2.835011e+00 -1.750958e+01  3.141021e+01
    endloop
  endfacet
  facet normal  1.253367e-05 -4.224895e-05  1.000000e+00
    outer loop
      vertex   2.269067e+00 -4.269271e+00  3.141077e+01
      vertex   2.835011e+00 -1.750958e+01  3.141021e+01
      vertex   1.031828e+01 -1.452211e+01  3.141024e+01
    endloop
  endfacet
  facet normal  1.712951e-04 -1.377406e-04  9.999999e-01
    outer loop
      vertex  -4.639940e+00 -9.479716e-01  3.141113e+01
      vertex  -1.186151e+01 -1.334908e+01  3.141066e+01
      vertex  -2.421680e+00 -4.102167e+00  3.141032e+01
    endloop
  endfacet
  facet normal  3.739375e-05 -1.045542e-06  1.000000e+00
    outer loop
      vertex  -2.421680e+00 -4.102167e+00  3.141032e+01
      vertex  -1.186151e+01 -1.334908e+01  3.141066e+01
      vertex  -4.266670e+00 -1.718436e+01  3.141037e+01
    endloop
  endfacet
  facet normal  1.300713e-04  6.646815e-06  1.000000e+00
    outer loop
      vertex   1.571495e+00  4.392031e+00  3.141024e+01
      vertex   7.451563e+00  1.616007e+01  3.140940e+01
      vertex   1.216489e+00  1.765217e+01  3.141020e+01
    endloop
  endfacet
  facet normal -1.342365e-06  3.128558e-06  1.000000e+00
    outer loop
      vertex   1.571495e+00  4.392031e+00  3.141024e+01
      vertex   1.216489e+00  1.765217e+01  3.141020e+01
      vertex  -7.834359e-01  4.600920e+00  3.141024e+01
    endloop
  endfacet
  facet normal -4.828042e-05  7.536642e-05  1.000000e+00
    outer loop
      vertex   3.845654e+00  2.714719e+00  3.141024e+01
      vertex   1.488881e+01  9.789063e+00  3.141024e+01
      vertex   7.451563e+00  1.616007e+01  3.140940e+01
    endloop
  endfacet
  facet normal  3.983458e-05  5.173486e-05  1.000000e+00
    outer loop
      vertex   3.845654e+00  2.714719e+00  3.141024e+01
      vertex   7.451563e+00  1.616007e+01  3.140940e+01
      vertex   1.571495e+00  4.392031e+00  3.141024e+01
    endloop
  endfacet
  facet normal -7.260698e-05  4.291681e-06  1.000000e+00
    outer loop
      vertex  -4.639940e+00 -9.479716e-01  3.141113e+01
      vertex  -1.713899e+01 -4.859374e+00  3.141024e+01
      vertex  -1.186151e+01 -1.334908e+01  3.141066e+01
    endloop
  endfacet
  facet normal  7.801707e-06  1.727354e-06  1.000000e+00
    outer loop
      vertex   1.216489e+00  1.765217e+01  3.141020e+01
      vertex  -3.592913e+00  1.729010e+01  3.141024e+01
      vertex  -7.834359e-01  4.600920e+00  3.141024e+01
    endloop
  endfacet
  facet normal  0.000000e+00  0.000000e+00  1.000000e+00
    outer loop
      vertex  -7.834359e-01  4.600920e+00  3.141024e+01
      vertex  -3.592913e+00  1.729010e+01  3.141024e+01
      vertex  -1.031828e+01  1.452211e+01  3.141024e+01
    endloop
  endfacet
  facet normal  8.247344e-05  7.926187e-05  1.000000e+00
    outer loop
      vertex  -7.834359e-01  4.600920e+00  3.141024e+01
      vertex  -1.031828e+01  1.452211e+01  3.141024e+01
      vertex  -3.466923e+00  3.254149e+00  3.141057e+01
    endloop
  endfacet
  facet normal  3.105521e-05 -2.770819e-05  1.000000e+00
    outer loop
      vertex   2.269067e+00 -4.269271e+00  3.141077e+01
      vertex   1.031828e+01 -1.452211e+01  3.141024e+01
      vertex   1.508860e+01 -9.175553e+00  3.141024e+01
    endloop
  endfacet
  facet normal -3.834595e-05 -2.090452e-04  9.999999e-01
    outer loop
      vertex   2.269067e+00 -4.269271e+00  3.141077e+01
      vertex   1.508860e+01 -9.175553e+00  3.141024e+01
      vertex   4.692552e+00 -9.090725e-01  3.141157e+01
    endloop
  endfacet
  facet normal  9.782194e-05 -3.779841e-05  1.000000e+00
    outer loop
      vertex   4.692552e+00 -9.090725e-01  3.141157e+01
      vertex   1.508860e+01 -9.175553e+00  3.141024e+01
      vertex   1.745129e+01 -3.060938e+00  3.141024e+01
    endloop
  endfacet
  facet normal -1.940644e-05  1.731489e-05  1.000000e+00
    outer loop
      vertex  -3.466923e+00  3.254149e+00  3.141057e+01
      vertex  -1.031828e+01  1.452211e+01  3.141024e+01
      vertex  -1.508860e+01  9.175553e+00  3.141024e+01
    endloop
  endfacet
  facet normal -2.358524e-05  9.113342e-06  1.000000e+00
    outer loop
      vertex  -3.466923e+00  3.254149e+00  3.141057e+01
      vertex  -1.508860e+01  9.175553e+00  3.141024e+01
      vertex  -1.745129e+01  3.060938e+00  3.141024e+01
    endloop
  endfacet
  facet normal -2.540732e-05  1.409933e-04  1.000000e+00
    outer loop
      vertex  -3.466923e+00  3.254149e+00  3.141057e+01
      vertex  -1.745129e+01  3.060938e+00  3.141024e+01
      vertex  -4.639940e+00 -9.479716e-01  3.141113e+01
    endloop
  endfacet
  facet normal -7.039533e-05 -2.775737e-06  1.000000e+00
    outer loop
      vertex  -4.639940e+00 -9.479716e-01  3.141113e+01
      vertex  -1.745129e+01  3.060938e+00  3.141024e+01
      vertex  -1.713899e+01 -4.859374e+00  3.141024e+01
    endloop
  endfacet
  facet normal  2.327362e-01  9.725385e-01  1.698283e-03
    outer loop
      vertex   1.013342e+00  1.773921e+01  9.410070e+00
      vertex   1.216489e+00  1.765217e+01  3.141020e+01
      vertex   7.451563e+00  1.616007e+01  3.140940e+01
    endloop
  endfacet
  facet normal  2.503041e-01  9.681600e-01 -3.757337e-03
    outer loop
      vertex   1.013342e+00  1.773921e+01  9.410070e+00
      vertex   7.451563e+00  1.616007e+01  3.140940e+01
      vertex   7.462098e+00  1.607197e+01  9.409700e+00
    endloop
  endfacet
  facet normal  5.758057e-01  8.175809e-01 -2.998441e-03
    outer loop
      vertex   7.462098e+00  1.607197e+01  9.409700e+00
      vertex   7.451563e+00  1.616007e+01  3.140940e+01
      vertex   1.234901e+01  1.263022e+01  9.410304e+00
    endloop
  endfacet
  facet normal  6.503963e-01  7.592477e-01  2.296680e-02
    outer loop
      vertex   1.234901e+01  1.263022e+01  9.410304e+00
      vertex   7.451563e+00  1.616007e+01  3.140940e+01
      vertex   1.488881e+01  9.789063e+00  3.141024e+01
    endloop
  endfacet
  facet normal  8.052181e-01  5.927518e-01 -1.640856e-02
    outer loop
      vertex   1.234901e+01  1.263022e+01  9.410304e+00
      vertex   1.488881e+01  9.789063e+00  3.141024e+01
      vertex   1.599422e+01  7.678414e+00  9.410043e+00
    endloop
  endfacet
  facet normal  9.391984e-01  3.430780e-01  1.427648e-02
    outer loop
      vertex   1.599422e+01  7.678414e+00  9.410043e+00
      vertex   1.488881e+01  9.789063e+00  3.141024e+01
      vertex   1.743994e+01  2.805171e+00  3.141024e+01
    endloop
  endfacet
  facet normal  9.618105e-01  2.737039e-01 -2.576436e-03
    outer loop
      vertex   1.599422e+01  7.678414e+00  9.410043e+00
      vertex   1.743994e+01  2.805171e+00  3.141024e+01
      vertex   1.749499e+01  2.404613e+00  9.410392e+00
    endloop
  endfacet
  facet normal  9.999951e-01  1.935917e-03  2.467285e-03
    outer loop
      vertex   1.749499e+01  2.404613e+00  9.410392e+00
      vertex   1.743994e+01  2.805171e+00  3.141024e+01
      vertex   1.745129e+01 -3.060938e+00  3.141024e+01
    endloop
  endfacet
  facet normal  9.977123e-01 -6.604561e-02 -1.442630e-02
    outer loop
      vertex   1.749499e+01  2.404613e+00  9.410392e+00
      vertex   1.745129e+01 -3.060938e+00  3.141024e+01
      vertex   1.697774e+01 -5.409128e+00  9.410157e+00
    endloop
  endfacet
  facet normal  9.326289e-01 -3.603681e-01  1.838927e-02
    outer loop
      vertex   1.697774e+01 -5.409128e+00  9.410157e+00
      vertex   1.745129e+01 -3.060938e+00  3.141024e+01
      vertex   1.508860e+01 -9.175553e+00  3.141024e+01
    endloop
  endfacet
  facet normal  8.353688e-01 -5.492375e-01 -2.229696e-02
    outer loop
      vertex   1.697774e+01 -5.409128e+00  9.410157e+00
      vertex   1.508860e+01 -9.175553e+00  3.141024e+01
      vertex   1.169563e+01 -1.344301e+01  9.410192e+00
    endloop
  endfacet
  facet normal  7.460986e-01 -6.656870e-01  1.405906e-02
    outer loop
      vertex   1.169563e+01 -1.344301e+01  9.410192e+00
      vertex   1.508860e+01 -9.175553e+00  3.141024e+01
      vertex   1.031828e+01 -1.452211e+01  3.141024e+01
    endloop
  endfacet
  facet normal  4.286183e-01 -9.033167e-01 -1.747295e-02
    outer loop
      vertex   1.169563e+01 -1.344301e+01  9.410192e+00
      vertex   1.031828e+01 -1.452211e+01  3.141024e+01
      vertex   3.032581e+00 -1.755358e+01  9.410290e+00
    endloop
  endfacet
  facet normal  3.707617e-01 -9.287136e-01  5.186926e-03
    outer loop
      vertex   3.032581e+00 -1.755358e+01  9.410290e+00
      vertex   1.031828e+01 -1.452211e+01  3.141024e+01
      vertex   2.835011e+00 -1.750958e+01  3.141021e+01
    endloop
  endfacet
  facet normal -4.574703e-02 -9.989518e-01  1.586935e-03
    outer loop
      vertex   3.032581e+00 -1.755358e+01  9.410290e+00
      vertex   2.835011e+00 -1.750958e+01  3.141021e+01
      vertex  -4.266670e+00 -1.718436e+01  3.141037e+01
    endloop
  endfacet
  facet normal -6.439591e-02 -9.979137e-01 -4.617861e-03
    outer loop
      vertex   3.032581e+00 -1.755358e+01  9.410290e+00
      vertex  -4.266670e+00 -1.718436e+01  3.141037e+01
      vertex  -4.856337e+00 -1.704450e+01  9.410492e+00
    endloop
  endfacet
  facet normal -4.507607e-01 -8.926219e-01  6.407307e-03
    outer loop
      vertex  -4.856337e+00 -1.704450e+01  9.410492e+00
      vertex  -4.266670e+00 -1.718436e+01  3.141037e+01
      vertex  -1.186151e+01 -1.334908e+01  3.141066e+01
    endloop
  endfacet
  facet normal -4.763831e-01 -8.792287e-01 -4.000966e-03
    outer loop
      vertex  -4.856337e+00 -1.704450e+01  9.410492e+00
      vertex  -1.186151e+01 -1.334908e+01  3.141066e+01
      vertex  -1.160546e+01 -1.338770e+01  9.410244e+00
    endloop
  endfacet
  facet normal -7.706190e-01 -6.372477e-01 -7.850341e-03
    outer loop
      vertex  -1.160546e+01 -1.338770e+01  9.410244e+00
      vertex  -1.186151e+01 -1.334908e+01  3.141066e+01
      vertex  -1.508860e+01 -9.175553e+00  9.410261e+00
    endloop
  endfacet
  facet normal -8.490284e-01 -5.277826e-01  2.441678e-02
    outer loop
      vertex  -1.508860e+01 -9.175553e+00  9.410261e+00
      vertex  -1.186151e+01 -1.334908e+01  3.141066e+01
      vertex  -1.713899e+01 -4.859374e+00  3.141024e+01
    endloop
  endfacet
  facet normal -9.326639e-01 -3.603819e-01 -1.622036e-02
    outer loop
      vertex  -1.508860e+01 -9.175553e+00  9.410261e+00
      vertex  -1.713899e+01 -4.859374e+00  3.141024e+01
      vertex  -1.745129e+01 -3.060942e+00  9.410240e+00
    endloop
  endfacet
  facet normal -9.991634e-01 -3.939773e-02  1.096310e-02
    outer loop
      vertex  -1.745129e+01 -3.060942e+00  9.410240e+00
      vertex  -1.713899e+01 -4.859374e+00  3.141024e+01
      vertex  -1.745129e+01  3.060938e+00  3.141024e+01
    endloop
  endfacet
  facet normal -9.983203e-01  5.581430e-02 -1.553129e-02
    outer loop
      vertex  -1.745129e+01 -3.060942e+00  9.410240e+00
      vertex  -1.745129e+01  3.060938e+00  3.141024e+01
      vertex  -1.697774e+01  5.409128e+00  9.409959e+00
    endloop
  endfacet
  facet normal -9.326289e-01  3.603681e-01  1.838911e-02
    outer loop
      vertex  -1.697774e+01  5.409128e+00  9.409959e+00
      vertex  -1.745129e+01  3.060938e+00  3.141024e+01
      vertex  -1.508860e+01  9.175553e+00  3.141024e+01
    endloop
  endfacet
  facet normal -8.353687e-01  5.492377e-01 -2.229679e-02
    outer loop
      vertex  -1.697774e+01  5.409128e+00  9.409959e+00
      vertex  -1.508860e+01  9.175553e+00  3.141024e+01
      vertex  -1.169563e+01  1.344301e+01  9.410072e+00
    endloop
  endfacet
  facet normal -7.460986e-01  6.656870e-01  1.405898e-02
    outer loop
      vertex  -1.169563e+01  1.344301e+01  9.410072e+00
      vertex  -1.508860e+01  9.175553e+00  3.141024e+01
      vertex  -1.031828e+01  1.452211e+01  3.141024e+01
    endloop
  endfacet
  facet normal -4.755820e-01  8.795698e-01 -1.336786e-02
    outer loop
      vertex  -1.169563e+01  1.344301e+01  9.410072e+00
      vertex  -1.031828e+01  1.452211e+01  3.141024e+01
      vertex  -5.532864e+00  1.677521e+01  9.410181e+00
    endloop
  endfacet
  facet normal -3.805730e-01  9.246740e-01  1.191765e-02
    outer loop
      vertex  -5.532864e+00  1.677521e+01  9.410181e+00
      vertex  -1.031828e+01  1.452211e+01  3.141024e+01
      vertex  -3.592913e+00  1.729010e+01  3.141024e+01
    endloop
  endfacet
  facet normal -1.456811e-01  9.892780e-01 -1.030697e-02
    outer loop
      vertex  -5.532864e+00  1.677521e+01  9.410181e+00
      vertex  -3.592913e+00  1.729010e+01  3.141024e+01
      vertex   1.013342e+00  1.773921e+01  9.410070e+00
    endloop
  endfacet
  facet normal -7.507092e-02  9.971674e-01  4.637985e-03
    outer loop
      vertex   1.013342e+00  1.773921e+01  9.410070e+00
      vertex  -3.592913e+00  1.729010e+01  3.141024e+01
      vertex   1.216489e+00  1.765217e+01  3.141020e+01
    endloop
  endfacet
  facet normal -3.375944e-04 -1.270154e-04  9.999999e-01
    outer loop
      vertex  -1.745129e+01 -3.060942e+00  9.410240e+00
      vertex  -2.162209e+01 -1.590445e+01  9.407201e+00
      vertex  -1.508860e+01 -9.175553e+00  9.410261e+00
    endloop
  endfacet
  facet normal -2.506998e-04 -2.113865e-04  9.999999e-01
    outer loop
      vertex  -1.508860e+01 -9.175553e+00  9.410261e+00
      vertex  -2.162209e+01 -1.590445e+01  9.407201e+00
      vertex  -1.160546e+01 -1.338770e+01  9.410244e+00
    endloop
  endfacet
  facet normal  4.354815e-04  1.901104e-04  9.999999e-01
    outer loop
      vertex   1.749499e+01  2.404613e+00  9.410392e+00
      vertex   2.679960e+01  2.731613e+00  9.406278e+00
      vertex   1.599422e+01  7.678414e+00  9.410043e+00
    endloop
  endfacet
  facet normal  1.309258e-04 -4.751357e-04  9.999999e-01
    outer loop
      vertex   1.599422e+01  7.678414e+00  9.410043e+00
      vertex   2.679960e+01  2.731613e+00  9.406278e+00
      vertex   2.155586e+01  1.616376e+01  9.413346e+00
    endloop
  endfacet
  facet normal -3.582483e-04  2.166552e-04  9.999999e-01
    outer loop
      vertex  -1.160546e+01 -1.338770e+01  9.410244e+00
      vertex  -2.162209e+01 -1.590445e+01  9.407201e+00
      vertex  -1.290277e+01 -2.350013e+01  9.411970e+00
    endloop
  endfacet
  facet normal  5.212431e-05  1.640089e-04  1.000000e+00
    outer loop
      vertex  -1.160546e+01 -1.338770e+01  9.410244e+00
      vertex  -1.290277e+01 -2.350013e+01  9.411970e+00
      vertex  -4.856337e+00 -1.704450e+01  9.410492e+00
    endloop
  endfacet
  facet normal  1.193737e-04  8.018789e-05  1.000000e+00
    outer loop
      vertex  -4.856337e+00 -1.704450e+01  9.410492e+00
      vertex  -1.290277e+01 -2.350013e+01  9.411970e+00
      vertex  -2.287290e+00 -2.674412e+01  9.410963e+00
    endloop
  endfacet
  facet normal -2.418488e-04 -2.308039e-04  9.999999e-01
    outer loop
      vertex   1.599422e+01  7.678414e+00  9.410043e+00
      vertex   2.155586e+01  1.616376e+01  9.413346e+00
      vertex   1.234901e+01  1.263022e+01  9.410304e+00
    endloop
  endfacet
  facet normal -4.488380e-04  3.085184e-04  9.999999e-01
    outer loop
      vertex   1.234901e+01  1.263022e+01  9.410304e+00
      vertex   2.155586e+01  1.616376e+01  9.413346e+00
      vertex   1.111096e+01  2.448265e+01  9.406092e+00
    endloop
  endfacet
  facet normal  1.368399e-04  3.696955e-04  9.999999e-01
    outer loop
      vertex   1.234901e+01  1.263022e+01  9.410304e+00
      vertex   1.111096e+01  2.448265e+01  9.406092e+00
      vertex   7.462098e+00  1.607197e+01  9.409700e+00
    endloop
  endfacet
  facet normal  5.272949e-05  4.129409e-04  9.999999e-01
    outer loop
      vertex   1.697774e+01 -5.409128e+00  9.410157e+00
      vertex   2.430067e+01 -1.142042e+01  9.412253e+00
      vertex   2.679960e+01  2.731613e+00  9.406278e+00
    endloop
  endfacet
  facet normal  4.442513e-04 -5.943285e-05  9.999999e-01
    outer loop
      vertex   1.697774e+01 -5.409128e+00  9.410157e+00
      vertex   2.679960e+01  2.731613e+00  9.406278e+00
      vertex   1.749499e+01  2.404613e+00  9.410392e+00
    endloop
  endfacet
  facet normal  2.926264e-05  5.632102e-05  1.000000e+00
    outer loop
      vertex  -4.856337e+00 -1.704450e+01  9.410492e+00
      vertex  -2.287290e+00 -2.674412e+01  9.410963e+00
      vertex   3.032581e+00 -1.755358e+01  9.410290e+00
    endloop
  endfacet
  facet normal  3.352234e-04 -1.207819e-04  9.999999e-01
    outer loop
      vertex   3.032581e+00 -1.755358e+01  9.410290e+00
      vertex  -2.287290e+00 -2.674412e+01  9.410963e+00
      vertex   1.032139e+01 -2.484877e+01  9.406965e+00
    endloop
  endfacet
  facet normal  1.543822e-04 -3.014650e-04  9.999999e-01
    outer loop
      vertex   3.032581e+00 -1.755358e+01  9.410290e+00
      vertex   1.032139e+01 -2.484877e+01  9.406965e+00
      vertex   1.169563e+01 -1.344301e+01  9.410192e+00
    endloop
  endfacet
  facet normal  8.069336e-04 -1.189957e-05  9.999997e-01
    outer loop
      vertex  -1.697774e+01  5.409128e+00  9.409959e+00
      vertex  -2.608577e+01  6.323760e+00  9.417319e+00
      vertex  -1.745129e+01 -3.060942e+00  9.410240e+00
    endloop
  endfacet
  facet normal  1.416209e-04 -6.240263e-04  9.999998e-01
    outer loop
      vertex  -1.745129e+01 -3.060942e+00  9.410240e+00
      vertex  -2.608577e+01  6.323760e+00  9.417319e+00
      vertex  -2.603228e+01 -5.897819e+00  9.409685e+00
    endloop
  endfacet
  facet normal  1.518274e-05 -2.415760e-04  9.999999e-01
    outer loop
      vertex  -1.745129e+01 -3.060942e+00  9.410240e+00
      vertex  -2.603228e+01 -5.897819e+00  9.409685e+00
      vertex  -2.162209e+01 -1.590445e+01  9.407201e+00
    endloop
  endfacet
  facet normal  4.759640e-05 -4.541971e-05  1.000000e+00
    outer loop
      vertex  -1.169563e+01  1.344301e+01  9.410072e+00
      vertex  -2.154409e+01  1.574173e+01  9.410645e+00
      vertex  -1.697774e+01  5.409128e+00  9.409959e+00
    endloop
  endfacet
  facet normal  8.386750e-04  3.041865e-04  9.999996e-01
    outer loop
      vertex  -1.697774e+01  5.409128e+00  9.409959e+00
      vertex  -2.154409e+01  1.574173e+01  9.410645e+00
      vertex  -2.608577e+01  6.323760e+00  9.417319e+00
    endloop
  endfacet
  facet normal -2.248374e-04  3.832008e-04  9.999999e-01
    outer loop
      vertex  -5.532864e+00  1.677521e+01  9.410181e+00
      vertex  -1.368388e+01  2.308987e+01  9.405929e+00
      vertex  -1.169563e+01  1.344301e+01  9.410072e+00
    endloop
  endfacet
  facet normal  1.664642e-04  4.638490e-04  9.999998e-01
    outer loop
      vertex  -1.169563e+01  1.344301e+01  9.410072e+00
      vertex  -1.368388e+01  2.308987e+01  9.405929e+00
      vertex  -2.154409e+01  1.574173e+01  9.410645e+00
    endloop
  endfacet
  facet normal  1.513334e-04  3.634078e-04  9.999999e-01
    outer loop
      vertex   7.462098e+00  1.607197e+01  9.409700e+00
      vertex   1.111096e+01  2.448265e+01  9.406092e+00
      vertex   1.013342e+00  1.773921e+01  9.410070e+00
    endloop
  endfacet
  facet normal  2.610227e-04  1.991594e-04  9.999999e-01
    outer loop
      vertex   1.013342e+00  1.773921e+01  9.410070e+00
      vertex   1.111096e+01  2.448265e+01  9.406092e+00
      vertex  -1.376340e+00  2.679455e+01  9.408891e+00
    endloop
  endfacet
  facet normal -2.199672e-06  1.296957e-04  1.000000e+00
    outer loop
      vertex   1.013342e+00  1.773921e+01  9.410070e+00
      vertex  -1.376340e+00  2.679455e+01  9.408891e+00
      vertex  -5.532864e+00  1.677521e+01  9.410181e+00
    endloop
  endfacet
  facet normal -3.193134e-04  2.612504e-04  9.999999e-01
    outer loop
      vertex  -5.532864e+00  1.677521e+01  9.410181e+00
      vertex  -1.376340e+00  2.679455e+01  9.408891e+00
      vertex  -1.368388e+01  2.308987e+01  9.405929e+00
    endloop
  endfacet
  facet normal -1.515073e-04 -2.646095e-04  9.999999e-01
    outer loop
      vertex   1.169563e+01 -1.344301e+01  9.410192e+00
      vertex   1.032139e+01 -2.484877e+01  9.406965e+00
      vertex   1.888607e+01 -1.887553e+01  9.409843e+00
    endloop
  endfacet
  facet normal -1.264383e-04 -2.314283e-04  1.000000e+00
    outer loop
      vertex   1.169563e+01 -1.344301e+01  9.410192e+00
      vertex   1.888607e+01 -1.887553e+01  9.409843e+00
      vertex   2.430067e+01 -1.142042e+01  9.412253e+00
    endloop
  endfacet
  facet normal -1.836315e-04  1.250073e-04  1.000000e+00
    outer loop
      vertex   1.169563e+01 -1.344301e+01  9.410192e+00
      vertex   2.430067e+01 -1.142042e+01  9.412253e+00
      vertex   1.697774e+01 -5.409128e+00  9.410157e+00
    endloop
  endfacet
  facet normal  1.819654e-01  9.828181e-01  3.093686e-02
    outer loop
      vertex  -4.419265e-01  2.687335e+01  1.409464e+00
      vertex  -1.376340e+00  2.679455e+01  9.408891e+00
      vertex   1.111096e+01  2.448265e+01  9.406092e+00
    endloop
  endfacet
  facet normal  1.781416e-01  9.833235e-01  3.661226e-02
    outer loop
      vertex  -4.419265e-01  2.687335e+01  1.409464e+00
      vertex   1.111096e+01  2.448265e+01  9.406092e+00
      vertex   9.045220e+00  2.515461e+01  1.410128e+00
    endloop
  endfacet
  facet normal  4.989756e-01  8.647895e-01 -5.623583e-02
    outer loop
      vertex   9.045220e+00  2.515461e+01  1.410128e+00
      vertex   1.111096e+01  2.448265e+01  9.406092e+00
      vertex   1.781798e+01  2.009270e+01  1.408502e+00
    endloop
  endfacet
  facet normal  6.202840e-01  7.788863e-01  9.265005e-02
    outer loop
      vertex   1.781798e+01  2.009270e+01  1.408502e+00
      vertex   1.111096e+01  2.448265e+01  9.406092e+00
      vertex   2.155586e+01  1.616376e+01  9.413346e+00
    endloop
  endfacet
  facet normal  7.979904e-01  5.974170e-01 -7.939935e-02
    outer loop
      vertex   1.781798e+01  2.009270e+01  1.408502e+00
      vertex   2.155586e+01  1.616376e+01  9.413346e+00
      vertex   2.388933e+01  1.198327e+01  1.410714e+00
    endloop
  endfacet
  facet normal  9.284552e-01  3.624144e-01  8.140526e-02
    outer loop
      vertex   2.388933e+01  1.198327e+01  1.410714e+00
      vertex   2.155586e+01  1.616376e+01  9.413346e+00
      vertex   2.679960e+01  2.731613e+00  9.406278e+00
    endloop
  endfacet
  facet normal  9.621048e-01  2.700606e-01 -3.770526e-02
    outer loop
      vertex   2.388933e+01  1.198327e+01  1.410714e+00
      vertex   2.679960e+01  2.731613e+00  9.406278e+00
      vertex   2.691561e+01  1.201866e+00  1.409732e+00
    endloop
  endfacet
  facet normal  9.836577e-01 -1.736719e-01  4.749388e-02
    outer loop
      vertex   2.691561e+01  1.201866e+00  1.409732e+00
      vertex   2.679960e+01  2.731613e+00  9.406278e+00
      vertex   2.430067e+01 -1.142042e+01  9.412253e+00
    endloop
  endfacet
  facet normal  9.752666e-01 -2.193417e-01 -2.728251e-02
    outer loop
      vertex   2.691561e+01  1.201866e+00  1.409732e+00
      vertex   2.430067e+01 -1.142042e+01  9.412253e+00
      vertex   2.394521e+01 -1.200560e+01  1.410382e+00
    endloop
  endfacet
  facet normal  8.090915e-01 -5.876405e-01  7.032686e-03
    outer loop
      vertex   2.394521e+01 -1.200560e+01  1.410382e+00
      vertex   2.430067e+01 -1.142042e+01  9.412253e+00
      vertex   1.888607e+01 -1.887553e+01  9.409843e+00
    endloop
  endfacet
  facet normal  7.689427e-01 -6.364684e-01 -6.029227e-02
    outer loop
      vertex   2.394521e+01 -1.200560e+01  1.410382e+00
      vertex   1.888607e+01 -1.887553e+01  9.409843e+00
      vertex   1.638657e+01 -2.113735e+01  1.408818e+00
    endloop
  endfacet
  facet normal  5.712267e-01 -8.190733e-01  5.309467e-02
    outer loop
      vertex   1.638657e+01 -2.113735e+01  1.408818e+00
      vertex   1.888607e+01 -1.887553e+01  9.409843e+00
      vertex   1.032139e+01 -2.484877e+01  9.406965e+00
    endloop
  endfacet
  facet normal  4.445435e-01 -8.924402e-01 -7.701685e-02
    outer loop
      vertex   1.638657e+01 -2.113735e+01  1.408818e+00
      vertex   1.032139e+01 -2.484877e+01  9.406965e+00
      vertex   6.973110e+00 -2.582650e+01  1.410052e+00
    endloop
  endfacet
  facet normal  1.484137e-01 -9.871902e-01  5.855619e-02
    outer loop
      vertex   6.973110e+00 -2.582650e+01  1.410052e+00
      vertex   1.032139e+01 -2.484877e+01  9.406965e+00
      vertex  -2.287290e+00 -2.674412e+01  9.410963e+00
    endloop
  endfacet
  facet normal  9.193933e-02 -9.957342e-01 -7.788143e-03
    outer loop
      vertex   6.973110e+00 -2.582650e+01  1.410052e+00
      vertex  -2.287290e+00 -2.674412e+01  9.410963e+00
      vertex  -2.507305e+00 -2.670186e+01  1.410470e+00
    endloop
  endfacet
  facet normal -2.922474e-01 -9.563381e-01  2.985196e-03
    outer loop
      vertex  -2.507305e+00 -2.670186e+01  1.410470e+00
      vertex  -2.287290e+00 -2.674412e+01  9.410963e+00
      vertex  -1.290277e+01 -2.350013e+01  9.411970e+00
    endloop
  endfacet
  facet normal -3.302869e-01 -9.424475e-01 -5.199342e-02
    outer loop
      vertex  -2.507305e+00 -2.670186e+01  1.410470e+00
      vertex  -1.290277e+01 -2.350013e+01  9.411970e+00
      vertex  -1.462242e+01 -2.245602e+01  1.410207e+00
    endloop
  endfacet
  facet normal -6.562644e-01 -7.533195e-01  4.274057e-02
    outer loop
      vertex  -1.462242e+01 -2.245602e+01  1.410207e+00
      vertex  -1.290277e+01 -2.350013e+01  9.411970e+00
      vertex  -2.162209e+01 -1.590445e+01  9.407201e+00
    endloop
  endfacet
  facet normal -7.096524e-01 -7.031052e-01 -4.512755e-02
    outer loop
      vertex  -1.462242e+01 -2.245602e+01  1.410207e+00
      vertex  -2.162209e+01 -1.590445e+01  9.407201e+00
      vertex  -2.257484e+01 -1.442949e+01  1.409203e+00
    endloop
  endfacet
  facet normal -9.145183e-01 -4.030614e-01  3.460987e-02
    outer loop
      vertex  -2.257484e+01 -1.442949e+01  1.409203e+00
      vertex  -2.162209e+01 -1.590445e+01  9.407201e+00
      vertex  -2.603228e+01 -5.897819e+00  9.409685e+00
    endloop
  endfacet
  facet normal -9.466104e-01 -3.136206e-01 -7.463811e-02
    outer loop
      vertex  -2.257484e+01 -1.442949e+01  1.409203e+00
      vertex  -2.603228e+01 -5.897819e+00  9.409685e+00
      vertex  -2.686397e+01 -1.483784e+00  1.410431e+00
    endloop
  endfacet
  facet normal -9.948766e-01 -4.417327e-03  1.010003e-01
    outer loop
      vertex  -2.686397e+01 -1.483784e+00  1.410431e+00
      vertex  -2.603228e+01 -5.897819e+00  9.409685e+00
      vertex  -2.608577e+01  6.323760e+00  9.417319e+00
    endloop
  endfacet
  facet normal -9.834582e-01  1.678513e-01 -6.808921e-02
    outer loop
      vertex  -2.686397e+01 -1.483784e+00  1.410431e+00
      vertex  -2.608577e+01  6.323760e+00  9.417319e+00
      vertex  -2.499618e+01  9.459908e+00  1.410822e+00
    endloop
  endfacet
  facet normal -8.997054e-01  4.339033e-01  4.752124e-02
    outer loop
      vertex  -2.499618e+01  9.459908e+00  1.410822e+00
      vertex  -2.608577e+01  6.323760e+00  9.417319e+00
      vertex  -2.154409e+01  1.574173e+01  9.410645e+00
    endloop
  endfacet
  facet normal -8.694500e-01  4.938600e-01 -1.261525e-02
    outer loop
      vertex  -2.499618e+01  9.459908e+00  1.410822e+00
      vertex  -2.154409e+01  1.574173e+01  9.410645e+00
      vertex  -2.085679e+01  1.674738e+01  1.410160e+00
    endloop
  endfacet
  facet normal -6.825253e-01  7.301102e-01  3.313936e-02
    outer loop
      vertex  -2.085679e+01  1.674738e+01  1.410160e+00
      vertex  -2.154409e+01  1.574173e+01  9.410645e+00
      vertex  -1.368388e+01  2.308987e+01  9.405929e+00
    endloop
  endfacet
  facet normal -6.521235e-01  7.579395e-01 -1.620878e-02
    outer loop
      vertex  -2.085679e+01  1.674738e+01  1.410160e+00
      vertex  -1.368388e+01  2.308987e+01  9.405929e+00
      vertex  -1.309124e+01  2.342874e+01  1.408572e+00
    endloop
  endfacet
  facet normal -2.881851e-01  9.573820e-01  1.921139e-02
    outer loop
      vertex  -1.309124e+01  2.342874e+01  1.408572e+00
      vertex  -1.368388e+01  2.308987e+01  9.405929e+00
      vertex  -1.376340e+00  2.679455e+01  9.408891e+00
    endloop
  endfacet
  facet normal -2.626874e-01  9.646485e-01 -2.118202e-02
    outer loop
      vertex  -1.309124e+01  2.342874e+01  1.408572e+00
      vertex  -1.376340e+00  2.679455e+01  9.408891e+00
      vertex  -4.419265e-01  2.687335e+01  1.409464e+00
    endloop
  endfacet
  facet normal  4.430468e-05 -1.108829e-04 -1.000000e+00
    outer loop
      vertex  -9.547418e+00  1.134910e+01  1.410069e+00
      vertex  -1.309124e+01  2.342874e+01  1.408572e+00
      vertex  -1.154774e+00  1.481860e+01  1.410056e+00
    endloop
  endfacet
  facet normal  8.526995e-05 -5.409174e-05 -1.000000e+00
    outer loop
      vertex  -1.154774e+00  1.481860e+01  1.410056e+00
      vertex  -1.309124e+01  2.342874e+01  1.408572e+00
      vertex  -4.419265e-01  2.687335e+01  1.409464e+00
    endloop
  endfacet
  facet normal -1.854610e-04 -3.420241e-05 -1.000000e+00
    outer loop
      vertex   1.394612e+01 -5.248263e+00  1.408727e+00
      vertex   1.638657e+01 -2.113735e+01  1.408818e+00
      vertex   7.587718e+00 -1.277972e+01  1.410164e+00
    endloop
  endfacet
  facet normal  1.803718e-04  2.198681e-05 -1.000000e+00
    outer loop
      vertex   1.394612e+01 -5.248263e+00  1.408727e+00
      vertex   2.394521e+01 -1.200560e+01  1.410382e+00
      vertex   1.638657e+01 -2.113735e+01  1.408818e+00
    endloop
  endfacet
  facet normal -9.913126e-06  8.828232e-05 -1.000000e+00
    outer loop
      vertex   2.388933e+01  1.198327e+01  1.410714e+00
      vertex   2.691561e+01  1.201866e+00  1.409732e+00
      vertex   1.333279e+01  6.881968e+00  1.410368e+00
    endloop
  endfacet
  facet normal  9.957121e-06  1.357980e-04 -1.000000e+00
    outer loop
      vertex   1.333279e+01  6.881968e+00  1.410368e+00
      vertex   2.691561e+01  1.201866e+00  1.409732e+00
      vertex   1.394612e+01 -5.248263e+00  1.408727e+00
    endloop
  endfacet
  facet normal  1.148084e-04 -7.502998e-05 -1.000000e+00
    outer loop
      vertex   1.394612e+01 -5.248263e+00  1.408727e+00
      vertex   2.691561e+01  1.201866e+00  1.409732e+00
      vertex   2.394521e+01 -1.200560e+01  1.410382e+00
    endloop
  endfacet
  facet normal  2.316076e-05 -5.236291e-05 -1.000000e+00
    outer loop
      vertex  -1.961463e+00 -1.474096e+01  1.410096e+00
      vertex  -1.462242e+01 -2.245602e+01  1.410207e+00
      vertex  -1.027841e+01 -1.081354e+01  1.409698e+00
    endloop
  endfacet
  facet normal  5.967605e-05 -6.598740e-05 -1.000000e+00
    outer loop
      vertex  -1.027841e+01 -1.081354e+01  1.409698e+00
      vertex  -1.462242e+01 -2.245602e+01  1.410207e+00
      vertex  -2.257484e+01 -1.442949e+01  1.409203e+00
    endloop
  endfacet
  facet normal  1.057446e-05 -3.170788e-05 -1.000000e+00
    outer loop
      vertex  -1.961463e+00 -1.474096e+01  1.410096e+00
      vertex  -2.507305e+00 -2.670186e+01  1.410470e+00
      vertex  -1.462242e+01 -2.245602e+01  1.410207e+00
    endloop
  endfacet
  facet normal -1.386547e-04  1.507490e-05 -1.000000e+00
    outer loop
      vertex   7.587718e+00 -1.277972e+01  1.410164e+00
      vertex   1.638657e+01 -2.113735e+01  1.408818e+00
      vertex   6.973110e+00 -2.582650e+01  1.410052e+00
    endloop
  endfacet
  facet normal  5.350445e-06  8.291108e-06 -1.000000e+00
    outer loop
      vertex   7.587718e+00 -1.277972e+01  1.410164e+00
      vertex   6.973110e+00 -2.582650e+01  1.410052e+00
      vertex  -1.961463e+00 -1.474096e+01  1.410096e+00
    endloop
  endfacet
  facet normal -4.133871e-05 -2.933880e-05 -1.000000e+00
    outer loop
      vertex  -1.961463e+00 -1.474096e+01  1.410096e+00
      vertex   6.973110e+00 -2.582650e+01  1.410052e+00
      vertex  -2.507305e+00 -2.670186e+01  1.410470e+00
    endloop
  endfacet
  facet normal -8.520995e-05 -1.123449e-04 -1.000000e+00
    outer loop
      vertex   6.406561e+00  1.324626e+01  1.410243e+00
      vertex   1.781798e+01  2.009270e+01  1.408502e+00
      vertex   1.333279e+01  6.881968e+00  1.410368e+00
    endloop
  endfacet
  facet normal  1.208432e-04 -1.823021e-04 -9.999999e-01
    outer loop
      vertex   1.333279e+01  6.881968e+00  1.410368e+00
      vertex   1.781798e+01  2.009270e+01  1.408502e+00
      vertex   2.388933e+01  1.198327e+01  1.410714e+00
    endloop
  endfacet
  facet normal  6.038068e-05 -5.261994e-05 -1.000000e+00
    outer loop
      vertex  -1.154774e+00  1.481860e+01  1.410056e+00
      vertex  -4.419265e-01  2.687335e+01  1.409464e+00
      vertex   9.045220e+00  2.515461e+01  1.410128e+00
    endloop
  endfacet
  facet normal  2.175260e-05 -1.450018e-05 -1.000000e+00
    outer loop
      vertex  -1.154774e+00  1.481860e+01  1.410056e+00
      vertex   9.045220e+00  2.515461e+01  1.410128e+00
      vertex   6.406561e+00  1.324626e+01  1.410243e+00
    endloop
  endfacet
  facet normal -1.693137e-04  2.783642e-05 -1.000000e+00
    outer loop
      vertex   6.406561e+00  1.324626e+01  1.410243e+00
      vertex   9.045220e+00  2.515461e+01  1.410128e+00
      vertex   1.781798e+01  2.009270e+01  1.408502e+00
    endloop
  endfacet
  facet normal -2.468847e-05 -3.482887e-05 -1.000000e+00
    outer loop
      vertex  -1.501062e+01  1.866258e+00  1.410534e+00
      vertex  -2.085679e+01  1.674738e+01  1.410160e+00
      vertex  -9.547418e+00  1.134910e+01  1.410069e+00
    endloop
  endfacet
  facet normal -7.813729e-05 -1.468039e-04 -1.000000e+00
    outer loop
      vertex  -9.547418e+00  1.134910e+01  1.410069e+00
      vertex  -2.085679e+01  1.674738e+01  1.410160e+00
      vertex  -1.309124e+01  2.342874e+01  1.408572e+00
    endloop
  endfacet
  facet normal  1.126894e-05  9.862621e-05 -1.000000e+00
    outer loop
      vertex  -1.027841e+01 -1.081354e+01  1.409698e+00
      vertex  -2.257484e+01 -1.442949e+01  1.409203e+00
      vertex  -2.686397e+01 -1.483784e+00  1.410431e+00
    endloop
  endfacet
  facet normal -9.020951e-06  6.255673e-05 -1.000000e+00
    outer loop
      vertex  -1.027841e+01 -1.081354e+01  1.409698e+00
      vertex  -2.686397e+01 -1.483784e+00  1.410431e+00
      vertex  -1.501062e+01  1.866258e+00  1.410534e+00
    endloop
  endfacet
  facet normal -1.518157e-06  3.600983e-05 -1.000000e+00
    outer loop
      vertex  -1.501062e+01  1.866258e+00  1.410534e+00
      vertex  -2.686397e+01 -1.483784e+00  1.410431e+00
      vertex  -2.499618e+01  9.459908e+00  1.410822e+00
    endloop
  endfacet
  facet normal -6.846750e-05 -5.202781e-05 -1.000000e+00
    outer loop
      vertex  -1.501062e+01  1.866258e+00  1.410534e+00
      vertex  -2.499618e+01  9.459908e+00  1.410822e+00
      vertex  -2.085679e+01  1.674738e+01  1.410160e+00
    endloop
  endfacet
  facet normal -2.015858e-01 -9.694076e-01  1.400432e-01
    outer loop
      vertex   1.251688e+00  1.475158e+01  4.410154e+00
      vertex  -1.154774e+00  1.481860e+01  1.410056e+00
      vertex   6.406561e+00  1.324626e+01  1.410243e+00
    endloop
  endfacet
  facet normal -3.316636e-01 -9.381732e-01 -9.914804e-02
    outer loop
      vertex   1.251688e+00  1.475158e+01  4.410154e+00
      vertex   6.406561e+00  1.324626e+01  1.410243e+00
      vertex   8.417141e+00  1.221831e+01  4.411392e+00
    endloop
  endfacet
  facet normal -6.633307e-01 -7.218958e-01  1.971268e-01
    outer loop
      vertex   8.417141e+00  1.221831e+01  4.411392e+00
      vertex   6.406561e+00  1.324626e+01  1.410243e+00
      vertex   1.333279e+01  6.881968e+00  1.410368e+00
    endloop
  endfacet
  facet normal -7.760503e-01 -4.953370e-01 -3.903680e-01
    outer loop
      vertex   8.417141e+00  1.221831e+01  4.411392e+00
      vertex   1.333279e+01  6.881968e+00  1.410368e+00
      vertex   1.519721e+01  1.596191e+00  4.411014e+00
    endloop
  endfacet
  facet normal -8.819072e-01 -4.465438e-02  4.693033e-01
    outer loop
      vertex   1.519721e+01  1.596191e+00  4.411014e+00
      vertex   1.333279e+01  6.881968e+00  1.410368e+00
      vertex   1.394612e+01 -5.248263e+00  1.408727e+00
    endloop
  endfacet
  facet normal -8.889900e-01  3.102418e-01 -3.368185e-01
    outer loop
      vertex   1.519721e+01  1.596191e+00  4.411014e+00
      vertex   1.394612e+01 -5.248263e+00  1.408727e+00
      vertex   1.136215e+01 -9.392956e+00  4.411124e+00
    endloop
  endfacet
  facet normal -7.441559e-01  6.282939e-01  2.268893e-01
    outer loop
      vertex   1.136215e+01 -9.392956e+00  4.411124e+00
      vertex   1.394612e+01 -5.248263e+00  1.408727e+00
      vertex   7.587718e+00 -1.277972e+01  1.410164e+00
    endloop
  endfacet
  facet normal -5.284927e-01  8.110901e-01 -2.506558e-01
    outer loop
      vertex   1.136215e+01 -9.392956e+00  4.411124e+00
      vertex   7.587718e+00 -1.277972e+01  1.410164e+00
      vertex   4.089863e+00 -1.413171e+01  4.410296e+00
    endloop
  endfacet
  facet normal -1.970140e-01  9.592429e-01  2.025796e-01
    outer loop
      vertex   4.089863e+00 -1.413171e+01  4.410296e+00
      vertex   7.587718e+00 -1.277972e+01  1.410164e+00
      vertex  -1.961463e+00 -1.474096e+01  1.410096e+00
    endloop
  endfacet
  facet normal -1.997479e-02  9.868955e-01 -1.601194e-01
    outer loop
      vertex   4.089863e+00 -1.413171e+01  4.410296e+00
      vertex  -1.961463e+00 -1.474096e+01  1.410096e+00
      vertex  -3.825030e+00 -1.429195e+01  4.410069e+00
    endloop
  endfacet
  facet normal  4.234414e-01  8.967170e-01  1.288255e-01
    outer loop
      vertex  -3.825030e+00 -1.429195e+01  4.410069e+00
      vertex  -1.961463e+00 -1.474096e+01  1.410096e+00
      vertex  -1.027841e+01 -1.081354e+01  1.409698e+00
    endloop
  endfacet
  facet normal  5.292536e-01  8.299811e-01 -1.761304e-01
    outer loop
      vertex  -3.825030e+00 -1.429195e+01  4.410069e+00
      vertex  -1.027841e+01 -1.081354e+01  1.409698e+00
      vertex  -1.217978e+01 -8.963981e+00  4.411965e+00
    endloop
  endfacet
  facet normal  8.763823e-01  3.270503e-01  3.535423e-01
    outer loop
      vertex  -1.217978e+01 -8.963981e+00  4.411965e+00
      vertex  -1.027841e+01 -1.081354e+01  1.409698e+00
      vertex  -1.501062e+01  1.866258e+00  1.410534e+00
    endloop
  endfacet
  facet normal  9.181846e-01  1.369828e-01 -3.717158e-01
    outer loop
      vertex  -1.217978e+01 -8.963981e+00  4.411965e+00
      vertex  -1.501062e+01  1.866258e+00  1.410534e+00
      vertex  -1.429014e+01  5.191132e+00  4.415465e+00
    endloop
  endfacet
  facet normal  8.192250e-01 -4.719512e-01  3.257799e-01
    outer loop
      vertex  -1.429014e+01  5.191132e+00  4.415465e+00
      vertex  -1.501062e+01  1.866258e+00  1.410534e+00
      vertex  -9.547418e+00  1.134910e+01  1.410069e+00
    endloop
  endfacet
  facet normal  6.951203e-01 -6.666605e-01 -2.690196e-01
    outer loop
      vertex  -1.429014e+01  5.191132e+00  4.415465e+00
      vertex  -9.547418e+00  1.134910e+01  1.410069e+00
      vertex  -6.621366e+00  1.318925e+01  4.410598e+00
    endloop
  endfacet
  facet normal  3.750333e-01 -9.071975e-01  1.906377e-01
    outer loop
      vertex  -6.621366e+00  1.318925e+01  4.410598e+00
      vertex  -9.547418e+00  1.134910e+01  1.410069e+00
      vertex  -1.154774e+00  1.481860e+01  1.410056e+00
    endloop
  endfacet
  facet normal  1.916218e-01 -9.656910e-01 -1.752766e-01
    outer loop
      vertex  -6.621366e+00  1.318925e+01  4.410598e+00
      vertex  -1.154774e+00  1.481860e+01  1.410056e+00
      vertex   1.251688e+00  1.475158e+01  4.410154e+00
    endloop
  endfacet
  facet normal  1.378171e-04 -2.044704e-04 -1.000000e+00
    outer loop
      vertex   4.639381e+00  1.138035e+00  4.409653e+00
      vertex   1.519721e+01  1.596191e+00  4.411014e+00
      vertex   4.258636e+00 -2.005685e+00  4.410243e+00
    endloop
  endfacet
  facet normal  8.336962e-05 -3.911831e-05 -1.000000e+00
    outer loop
      vertex   4.258636e+00 -2.005685e+00  4.410243e+00
      vertex   1.519721e+01  1.596191e+00  4.411014e+00
      vertex   1.136215e+01 -9.392956e+00  4.411124e+00
    endloop
  endfacet
  facet normal  6.205851e-05 -5.961084e-05 -1.000000e+00
    outer loop
      vertex   4.258636e+00 -2.005685e+00  4.410243e+00
      vertex   1.136215e+01 -9.392956e+00  4.411124e+00
      vertex   2.297510e+00 -4.063335e+00  4.410244e+00
    endloop
  endfacet
  facet normal -2.318605e-04 -7.738680e-06 -1.000000e+00
    outer loop
      vertex  -1.370144e+00 -4.659946e+00  4.409426e+00
      vertex  -3.825030e+00 -1.429195e+01  4.410069e+00
      vertex  -1.217978e+01 -8.963981e+00  4.411965e+00
    endloop
  endfacet
  facet normal -2.463683e-04  2.869777e-05 -9.999999e-01
    outer loop
      vertex  -1.370144e+00 -4.659946e+00  4.409426e+00
      vertex  -1.217978e+01 -8.963981e+00  4.411965e+00
      vertex  -4.353755e+00 -1.794506e+00  4.410243e+00
    endloop
  endfacet
  facet normal  9.979106e-05  1.241606e-04 -1.000000e+00
    outer loop
      vertex  -2.795671e+00  3.869813e+00  4.409823e+00
      vertex  -6.621366e+00  1.318925e+01  4.410598e+00
      vertex   4.367706e-01  4.686009e+00  4.410247e+00
    endloop
  endfacet
  facet normal -5.550586e-05 -4.743948e-06 -1.000000e+00
    outer loop
      vertex   4.367706e-01  4.686009e+00  4.410247e+00
      vertex  -6.621366e+00  1.318925e+01  4.410598e+00
      vertex   1.251688e+00  1.475158e+01  4.410154e+00
    endloop
  endfacet
  facet normal -3.929005e-04  1.886487e-04 -9.999999e-01
    outer loop
      vertex  -4.353755e+00 -1.794506e+00  4.410243e+00
      vertex  -1.217978e+01 -8.963981e+00  4.411965e+00
      vertex  -1.429014e+01  5.191132e+00  4.415465e+00
    endloop
  endfacet
  facet normal -5.495573e-04 -3.418031e-05 -9.999999e-01
    outer loop
      vertex  -4.353755e+00 -1.794506e+00  4.410243e+00
      vertex  -1.429014e+01  5.191132e+00  4.415465e+00
      vertex  -4.542222e+00  1.235709e+00  4.410243e+00
    endloop
  endfacet
  facet normal -4.731117e-04  1.542157e-04 -9.999999e-01
    outer loop
      vertex  -4.542222e+00  1.235709e+00  4.410243e+00
      vertex  -1.429014e+01  5.191132e+00  4.415465e+00
      vertex  -2.795671e+00  3.869813e+00  4.409823e+00
    endloop
  endfacet
  facet normal -5.051112e-04 -1.241560e-04 -9.999998e-01
    outer loop
      vertex  -2.795671e+00  3.869813e+00  4.409823e+00
      vertex  -1.429014e+01  5.191132e+00  4.415465e+00
      vertex  -6.621366e+00  1.318925e+01  4.410598e+00
    endloop
  endfacet
  facet normal  1.050381e-04  1.348909e-05 -1.000000e+00
    outer loop
      vertex   2.297510e+00 -4.063335e+00  4.410244e+00
      vertex   1.136215e+01 -9.392956e+00  4.411124e+00
      vertex   4.089863e+00 -1.413171e+01  4.410296e+00
    endloop
  endfacet
  facet normal  2.176446e-04  3.353507e-05 -1.000000e+00
    outer loop
      vertex   2.297510e+00 -4.063335e+00  4.410244e+00
      vertex   4.089863e+00 -1.413171e+01  4.410296e+00
      vertex  -1.370144e+00 -4.659946e+00  4.409426e+00
    endloop
  endfacet
  facet normal  3.018563e-05 -7.452576e-05 -1.000000e+00
    outer loop
      vertex  -1.370144e+00 -4.659946e+00  4.409426e+00
      vertex   4.089863e+00 -1.413171e+01  4.410296e+00
      vertex  -3.825030e+00 -1.429195e+01  4.410069e+00
    endloop
  endfacet
  facet normal  1.647730e-04 -2.257792e-05 -1.000000e+00
    outer loop
      vertex   4.367706e-01  4.686009e+00  4.410247e+00
      vertex   1.251688e+00  1.475158e+01  4.410154e+00
      vertex   8.417141e+00  1.221831e+01  4.411392e+00
    endloop
  endfacet
  facet normal  4.129053e-05  1.082501e-04 -1.000000e+00
    outer loop
      vertex   4.367706e-01  4.686009e+00  4.410247e+00
      vertex   8.417141e+00  1.221831e+01  4.411392e+00
      vertex   2.662141e+00  3.801932e+00  4.410243e+00
    endloop
  endfacet
  facet normal -5.968907e-05  1.772984e-04 -9.999999e-01
    outer loop
      vertex   2.662141e+00  3.801932e+00  4.410243e+00
      vertex   8.417141e+00  1.221831e+01  4.411392e+00
      vertex   4.639381e+00  1.138035e+00  4.409653e+00
    endloop
  endfacet
  facet normal  1.239675e-04  1.146817e-04 -1.000000e+00
    outer loop
      vertex   4.639381e+00  1.138035e+00  4.409653e+00
      vertex   8.417141e+00  1.221831e+01  4.411392e+00
      vertex   1.519721e+01  1.596191e+00  4.411014e+00
    endloop
  endfacet
  facet normal -8.835365e-02 -9.960636e-01 -7.132018e-03
    outer loop
      vertex  -7.834359e-01  4.600920e+00  3.141024e+01
      vertex   4.367706e-01  4.686009e+00  4.410247e+00
      vertex   1.571495e+00  4.392031e+00  3.141024e+01
    endloop
  endfacet
  facet normal -3.691987e-01 -9.293349e-01  5.397560e-03
    outer loop
      vertex   1.571495e+00  4.392031e+00  3.141024e+01
      vertex   4.367706e-01  4.686009e+00  4.410247e+00
      vertex   2.662141e+00  3.801932e+00  4.410243e+00
    endloop
  endfacet
  facet normal -5.935574e-01 -8.047664e-01 -6.387762e-03
    outer loop
      vertex   1.571495e+00  4.392031e+00  3.141024e+01
      vertex   2.662141e+00  3.801932e+00  4.410243e+00
      vertex   3.845654e+00  2.714719e+00  3.141024e+01
    endloop
  endfacet
  facet normal -8.029311e-01 -5.959666e-01  1.119766e-02
    outer loop
      vertex   3.845654e+00  2.714719e+00  3.141024e+01
      vertex   2.662141e+00  3.801932e+00  4.410243e+00
      vertex   4.639381e+00  1.138035e+00  4.409653e+00
    endloop
  endfacet
  facet normal -9.736453e-01 -2.275513e-01 -1.533417e-02
    outer loop
      vertex   3.845654e+00  2.714719e+00  3.141024e+01
      vertex   4.639381e+00  1.138035e+00  4.409653e+00
      vertex   4.692552e+00 -9.090725e-01  3.141157e+01
    endloop
  endfacet
  facet normal -9.926845e-01  1.202288e-01  1.106971e-02
    outer loop
      vertex   4.692552e+00 -9.090725e-01  3.141157e+01
      vertex   4.639381e+00  1.138035e+00  4.409653e+00
      vertex   4.258636e+00 -2.005685e+00  4.410243e+00
    endloop
  endfacet
  facet normal -8.110121e-01  5.849310e-01 -1.072288e-02
    outer loop
      vertex   4.692552e+00 -9.090725e-01  3.141157e+01
      vertex   4.258636e+00 -2.005685e+00  4.410243e+00
      vertex   2.269067e+00 -4.269271e+00  3.141077e+01
    endloop
  endfacet
  facet normal -7.238741e-01  6.899174e-01  4.499513e-03
    outer loop
      vertex   2.269067e+00 -4.269271e+00  3.141077e+01
      vertex   4.258636e+00 -2.005685e+00  4.410243e+00
      vertex   2.297510e+00 -4.063335e+00  4.410244e+00
    endloop
  endfacet
  facet normal -1.605553e-01  9.869994e-01  7.358815e-03
    outer loop
      vertex   2.269067e+00 -4.269271e+00  3.141077e+01
      vertex   2.297510e+00 -4.063335e+00  4.410244e+00
      vertex  -1.370144e+00 -4.659946e+00  4.409426e+00
    endloop
  endfacet
  facet normal  3.559693e-02  9.991807e-01 -1.925460e-02
    outer loop
      vertex   2.269067e+00 -4.269271e+00  3.141077e+01
      vertex  -1.370144e+00 -4.659946e+00  4.409426e+00
      vertex  -2.421680e+00 -4.102167e+00  3.141032e+01
    endloop
  endfacet
  facet normal  6.926308e-01  7.211912e-01  1.207590e-02
    outer loop
      vertex  -2.421680e+00 -4.102167e+00  3.141032e+01
      vertex  -1.370144e+00 -4.659946e+00  4.409426e+00
      vertex  -4.353755e+00 -1.794506e+00  4.410243e+00
    endloop
  endfacet
  facet normal  8.179352e-01  5.752342e-01 -9.365402e-03
    outer loop
      vertex  -2.421680e+00 -4.102167e+00  3.141032e+01
      vertex  -4.353755e+00 -1.794506e+00  4.410243e+00
      vertex  -4.639940e+00 -9.479716e-01  3.141113e+01
    endloop
  endfacet
  facet normal  9.980342e-01  6.207380e-02  8.632143e-03
    outer loop
      vertex  -4.639940e+00 -9.479716e-01  3.141113e+01
      vertex  -4.353755e+00 -1.794506e+00  4.410243e+00
      vertex  -4.542222e+00  1.235709e+00  4.410243e+00
    endloop
  endfacet
  facet normal  9.630154e-01 -2.688271e-01 -1.825601e-02
    outer loop
      vertex  -4.639940e+00 -9.479716e-01  3.141113e+01
      vertex  -4.542222e+00  1.235709e+00  4.410243e+00
      vertex  -3.466923e+00  3.254149e+00  3.141057e+01
    endloop
  endfacet
  facet normal  8.334108e-01 -5.525943e-01  8.118898e-03
    outer loop
      vertex  -3.466923e+00  3.254149e+00  3.141057e+01
      vertex  -4.542222e+00  1.235709e+00  4.410243e+00
      vertex  -2.795671e+00  3.869813e+00  4.409823e+00
    endloop
  endfacet
  facet normal  4.485325e-01 -8.937189e-01 -9.227596e-03
    outer loop
      vertex  -3.466923e+00  3.254149e+00  3.141057e+01
      vertex  -2.795671e+00  3.869813e+00  4.409823e+00
      vertex  -7.834359e-01  4.600920e+00  3.141024e+01
    endloop
  endfacet
  facet normal  2.448088e-01 -9.695383e-01  8.008135e-03
    outer loop
      vertex  -7.834359e-01  4.600920e+00  3.141024e+01
      vertex  -2.795671e+00  3.869813e+00  4.409823e+00
      vertex   4.367706e-01  4.686009e+00  4.410247e+00
    endloop
  endfacet
endsolid vcg
