solid STL generated by MeshLab
  facet normal -1.013814e-03  2.738375e-03  9.999958e-01
    outer loop
      vertex   4.905700e+00  8.602438e-01  3.140866e+01
      vertex   1.795517e+01  5.964159e-01  3.142262e+01
      vertex   1.238064e+01  1.307946e+01  3.138278e+01
    endloop
  endfacet
  facet normal  9.059681e-04  8.733160e-04  9.999992e-01
    outer loop
      vertex   4.626740e-01 -4.984102e+00  3.140553e+01
      vertex  -1.548026e+00 -1.788940e+01  3.141862e+01
      vertex   1.205399e+01 -1.358642e+01  3.140254e+01
    endloop
  endfacet
  facet normal  4.844762e-04 -1.001918e-04  9.999999e-01
    outer loop
      vertex  -4.569880e+00  1.368634e+00  3.140860e+01
      vertex  -1.186151e+01 -1.334908e+01  3.141066e+01
      vertex   4.626740e-01 -4.984102e+00  3.140553e+01
    endloop
  endfacet
  facet normal -3.042715e-04  1.061877e-03  9.999993e-01
    outer loop
      vertex   4.626740e-01 -4.984102e+00  3.140553e+01
      vertex  -1.186151e+01 -1.334908e+01  3.141066e+01
      vertex  -1.548026e+00 -1.788940e+01  3.141862e+01
    endloop
  endfacet
  facet normal  1.962864e-03  5.320978e-04  9.999979e-01
    outer loop
      vertex   5.177367e-01  4.860772e+00  3.141044e+01
      vertex   1.238064e+01  1.307946e+01  3.138278e+01
      vertex  -6.333306e+00  1.712168e+01  3.141736e+01
    endloop
  endfacet
  facet normal  1.499530e-03  1.200877e-03  9.999982e-01
    outer loop
      vertex   4.905700e+00  8.602438e-01  3.140866e+01
      vertex   1.238064e+01  1.307946e+01  3.138278e+01
      vertex   5.177367e-01  4.860772e+00  3.141044e+01
    endloop
  endfacet
  facet normal  8.093257e-05  9.973688e-05  1.000000e+00
    outer loop
      vertex  -4.569880e+00  1.368634e+00  3.140860e+01
      vertex  -1.713899e+01 -4.859374e+00  3.141024e+01
      vertex  -1.186151e+01 -1.334908e+01  3.141066e+01
    endloop
  endfacet
  facet normal  1.893888e-05 -5.541125e-04  9.999998e-01
    outer loop
      vertex   5.177367e-01  4.860772e+00  3.141044e+01
      vertex  -6.333306e+00  1.712168e+01  3.141736e+01
      vertex  -4.569880e+00  1.368634e+00  3.140860e+01
    endloop
  endfacet
  facet normal -8.986900e-05 -4.685380e-04  9.999999e-01
    outer loop
      vertex   4.626740e-01 -4.984102e+00  3.140553e+01
      vertex   1.205399e+01 -1.358642e+01  3.140254e+01
      vertex   4.905700e+00  8.602438e-01  3.140866e+01
    endloop
  endfacet
  facet normal -1.088645e-03 -9.627370e-04  9.999989e-01
    outer loop
      vertex   4.905700e+00  8.602438e-01  3.140866e+01
      vertex   1.205399e+01 -1.358642e+01  3.140254e+01
      vertex   1.795517e+01  5.964159e-01  3.142262e+01
    endloop
  endfacet
  facet normal -8.152088e-04 -6.474884e-04  9.999994e-01
    outer loop
      vertex  -4.569880e+00  1.368634e+00  3.140860e+01
      vertex  -6.333306e+00  1.712168e+01  3.141736e+01
      vertex  -1.703757e+01  6.213666e+00  3.140158e+01
    endloop
  endfacet
  facet normal -2.585700e-04  7.849068e-04  9.999996e-01
    outer loop
      vertex  -4.569880e+00  1.368634e+00  3.140860e+01
      vertex  -1.703757e+01  6.213666e+00  3.140158e+01
      vertex  -1.713899e+01 -4.859374e+00  3.141024e+01
    endloop
  endfacet
  facet normal  2.104858e-01  9.737261e-01  8.690877e-02
    outer loop
      vertex  -1.462642e+00  1.803270e+01  9.413988e+00
      vertex  -6.333306e+00  1.712168e+01  3.141736e+01
      vertex   1.238064e+01  1.307946e+01  3.138278e+01
    endloop
  endfacet
  facet normal  2.466030e-01  9.670892e-01  6.265371e-02
    outer loop
      vertex  -1.462642e+00  1.803270e+01  9.413988e+00
      vertex   1.238064e+01  1.307946e+01  3.138278e+01
      vertex   9.375060e+00  1.527006e+01  9.399761e+00
    endloop
  endfacet
  facet normal  7.904892e-01  6.106526e-01 -4.722654e-02
    outer loop
      vertex   9.375060e+00  1.527006e+01  9.399761e+00
      vertex   1.238064e+01  1.307946e+01  3.138278e+01
      vertex   1.721929e+01  5.115379e+00  9.395532e+00
    endloop
  endfacet
  facet normal  9.117388e-01  4.073233e-01  5.310509e-02
    outer loop
      vertex   1.721929e+01  5.115379e+00  9.395532e+00
      vertex   1.238064e+01  1.307946e+01  3.138278e+01
      vertex   1.795517e+01  5.964159e-01  3.142262e+01
    endloop
  endfacet
  facet normal  9.990100e-01 -2.298144e-02 -3.808955e-02
    outer loop
      vertex   1.721929e+01  5.115379e+00  9.395532e+00
      vertex   1.795517e+01  5.964159e-01  3.142262e+01
      vertex   1.697774e+01 -5.409128e+00  9.410157e+00
    endloop
  endfacet
  facet normal  9.213622e-01 -3.834498e-01  6.370298e-02
    outer loop
      vertex   1.697774e+01 -5.409128e+00  9.410157e+00
      vertex   1.795517e+01  5.964159e-01  3.142262e+01
      vertex   1.205399e+01 -1.358642e+01  3.140254e+01
    endloop
  endfacet
  facet normal  8.354530e-01 -5.492929e-01 -1.719522e-02
    outer loop
      vertex   1.697774e+01 -5.409128e+00  9.410157e+00
      vertex   1.205399e+01 -1.358642e+01  3.140254e+01
      vertex   1.169563e+01 -1.344301e+01  9.410192e+00
    endloop
  endfacet
  facet normal  3.636103e-01 -9.314738e-01 -1.199900e-02
    outer loop
      vertex   1.169563e+01 -1.344301e+01  9.410192e+00
      vertex   1.205399e+01 -1.358642e+01  3.140254e+01
      vertex  -1.000053e+00 -1.839888e+01  9.408723e+00
    endloop
  endfacet
  facet normal  3.015156e-01 -9.530027e-01  2.956694e-02
    outer loop
      vertex  -1.000053e+00 -1.839888e+01  9.408723e+00
      vertex   1.205399e+01 -1.358642e+01  3.140254e+01
      vertex  -1.548026e+00 -1.788940e+01  3.141862e+01
    endloop
  endfacet
  facet normal -4.028981e-01 -9.151769e-01  1.115377e-02
    outer loop
      vertex  -1.000053e+00 -1.839888e+01  9.408723e+00
      vertex  -1.548026e+00 -1.788940e+01  3.141862e+01
      vertex  -1.186151e+01 -1.334908e+01  3.141066e+01
    endloop
  endfacet
  facet normal -4.470938e-01 -8.943537e-01 -1.544307e-02
    outer loop
      vertex  -1.000053e+00 -1.839888e+01  9.408723e+00
      vertex  -1.186151e+01 -1.334908e+01  3.141066e+01
      vertex  -1.316158e+01 -1.231922e+01  9.406894e+00
    endloop
  endfacet
  facet normal -8.490064e-01 -5.277689e-01  2.546088e-02
    outer loop
      vertex  -1.316158e+01 -1.231922e+01  9.406894e+00
      vertex  -1.186151e+01 -1.334908e+01  3.141066e+01
      vertex  -1.713899e+01 -4.859374e+00  3.141024e+01
    endloop
  endfacet
  facet normal -9.575232e-01 -2.773035e-01 -7.907090e-02
    outer loop
      vertex  -1.316158e+01 -1.231922e+01  9.406894e+00
      vertex  -1.713899e+01 -4.859374e+00  3.141024e+01
      vertex  -1.774427e+01  3.505288e+00  9.404888e+00
    endloop
  endfacet
  facet normal -9.994779e-01  9.178595e-03  3.098054e-02
    outer loop
      vertex  -1.774427e+01  3.505288e+00  9.404888e+00
      vertex  -1.713899e+01 -4.859374e+00  3.141024e+01
      vertex  -1.703757e+01  6.213666e+00  3.140158e+01
    endloop
  endfacet
  facet normal -8.536352e-01  5.195875e-01 -3.654996e-02
    outer loop
      vertex  -1.774427e+01  3.505288e+00  9.404888e+00
      vertex  -1.703757e+01  6.213666e+00  3.140158e+01
      vertex  -1.169563e+01  1.344301e+01  9.410072e+00
    endloop
  endfacet
  facet normal -7.126318e-01  6.992384e-01  5.675835e-02
    outer loop
      vertex  -1.169563e+01  1.344301e+01  9.410072e+00
      vertex  -1.703757e+01  6.213666e+00  3.140158e+01
      vertex  -6.333306e+00  1.712168e+01  3.141736e+01
    endloop
  endfacet
  facet normal -4.086540e-01  9.111646e-01 -5.273419e-02
    outer loop
      vertex  -1.169563e+01  1.344301e+01  9.410072e+00
      vertex  -6.333306e+00  1.712168e+01  3.141736e+01
      vertex  -1.462642e+00  1.803270e+01  9.413988e+00
    endloop
  endfacet
  facet normal  1.841619e-03  6.600614e-04  9.999981e-01
    outer loop
      vertex  -1.774427e+01  3.505288e+00  9.404888e+00
      vertex  -2.418274e+01 -1.284981e+01  9.427541e+00
      vertex  -1.316158e+01 -1.231922e+01  9.406894e+00
    endloop
  endfacet
  facet normal -1.202626e-03 -3.253387e-04  9.999992e-01
    outer loop
      vertex   1.721929e+01  5.115379e+00  9.395532e+00
      vertex   2.679960e+01  2.731613e+00  9.406278e+00
      vertex   1.652656e+01  2.225064e+01  9.400273e+00
    endloop
  endfacet
  facet normal  1.734239e-03  2.890370e-03  9.999943e-01
    outer loop
      vertex  -1.316158e+01 -1.231922e+01  9.406894e+00
      vertex  -2.418274e+01 -1.284981e+01  9.427541e+00
      vertex  -5.996581e+00 -2.669220e+01  9.436011e+00
    endloop
  endfacet
  facet normal  1.148568e-03  2.598413e-03  9.999959e-01
    outer loop
      vertex  -1.316158e+01 -1.231922e+01  9.406894e+00
      vertex  -5.996581e+00 -2.669220e+01  9.436011e+00
      vertex  -1.000053e+00 -1.839888e+01  9.408723e+00
    endloop
  endfacet
  facet normal  1.909604e-04 -2.689998e-04  9.999999e-01
    outer loop
      vertex   1.721929e+01  5.115379e+00  9.395532e+00
      vertex   1.652656e+01  2.225064e+01  9.400273e+00
      vertex   9.375060e+00  1.527006e+01  9.399761e+00
    endloop
  endfacet
  facet normal -6.150057e-04  1.218567e-03  9.999991e-01
    outer loop
      vertex   1.697774e+01 -5.409128e+00  9.410157e+00
      vertex   2.369691e+01 -1.366414e+01  9.424349e+00
      vertex   2.679960e+01  2.731613e+00  9.406278e+00
    endloop
  endfacet
  facet normal -7.714934e-04  1.407371e-03  9.999987e-01
    outer loop
      vertex   1.697774e+01 -5.409128e+00  9.410157e+00
      vertex   2.679960e+01  2.731613e+00  9.406278e+00
      vertex   1.721929e+01  5.115379e+00  9.395532e+00
    endloop
  endfacet
  facet normal  1.511133e-03  2.379978e-03  9.999961e-01
    outer loop
      vertex  -1.000053e+00 -1.839888e+01  9.408723e+00
      vertex  -5.996581e+00 -2.669220e+01  9.436011e+00
      vertex   1.032139e+01 -2.484877e+01  9.406965e+00
    endloop
  endfacet
  facet normal -5.523006e-06 -2.821986e-04  9.999999e-01
    outer loop
      vertex  -1.000053e+00 -1.839888e+01  9.408723e+00
      vertex   1.032139e+01 -2.484877e+01  9.406965e+00
      vertex   1.169563e+01 -1.344301e+01  9.410192e+00
    endloop
  endfacet
  facet normal  2.758082e-03  2.992770e-04  9.999962e-01
    outer loop
      vertex  -1.774427e+01  3.505288e+00  9.404888e+00
      vertex  -2.554436e+01  9.586627e+00  9.424582e+00
      vertex  -2.418274e+01 -1.284981e+01  9.427541e+00
    endloop
  endfacet
  facet normal  1.436410e-03 -1.395942e-03  9.999980e-01
    outer loop
      vertex  -1.169563e+01  1.344301e+01  9.410072e+00
      vertex  -2.554436e+01  9.586627e+00  9.424582e+00
      vertex  -1.774427e+01  3.505288e+00  9.404888e+00
    endloop
  endfacet
  facet normal -1.947554e-04 -4.189515e-04  9.999999e-01
    outer loop
      vertex  -1.462642e+00  1.803270e+01  9.413988e+00
      vertex  -9.364240e+00  2.564392e+01  9.415638e+00
      vertex  -1.169563e+01  1.344301e+01  9.410072e+00
    endloop
  endfacet
  facet normal  1.240737e-03 -6.932500e-04  9.999990e-01
    outer loop
      vertex  -1.169563e+01  1.344301e+01  9.410072e+00
      vertex  -9.364240e+00  2.564392e+01  9.415638e+00
      vertex  -2.554436e+01  9.586627e+00  9.424582e+00
    endloop
  endfacet
  facet normal  1.026064e-03 -1.124550e-03  9.999988e-01
    outer loop
      vertex   9.375060e+00  1.527006e+01  9.399761e+00
      vertex   1.652656e+01  2.225064e+01  9.400273e+00
      vertex  -1.462642e+00  1.803270e+01  9.413988e+00
    endloop
  endfacet
  facet normal  6.540169e-04  4.622017e-04  9.999996e-01
    outer loop
      vertex  -1.462642e+00  1.803270e+01  9.413988e+00
      vertex   1.652656e+01  2.225064e+01  9.400273e+00
      vertex  -9.364240e+00  2.564392e+01  9.415638e+00
    endloop
  endfacet
  facet normal -1.182236e-03 -1.404205e-04  9.999993e-01
    outer loop
      vertex   1.169563e+01 -1.344301e+01  9.410192e+00
      vertex   1.032139e+01 -2.484877e+01  9.406965e+00
      vertex   2.369691e+01 -1.366414e+01  9.424349e+00
    endloop
  endfacet
  facet normal -1.165451e-03  7.705328e-04  9.999990e-01
    outer loop
      vertex   1.169563e+01 -1.344301e+01  9.410192e+00
      vertex   2.369691e+01 -1.366414e+01  9.424349e+00
      vertex   1.697774e+01 -5.409128e+00  9.410157e+00
    endloop
  endfacet
  facet normal  1.290363e-01  9.839930e-01  1.229124e-01
    outer loop
      vertex  -6.508760e+00  2.626888e+01  1.414699e+00
      vertex  -9.364240e+00  2.564392e+01  9.415638e+00
      vertex   1.652656e+01  2.225064e+01  9.400273e+00
    endloop
  endfacet
  facet normal  1.363582e-01  9.853456e-01  1.024722e-01
    outer loop
      vertex  -6.508760e+00  2.626888e+01  1.414699e+00
      vertex   1.652656e+01  2.225064e+01  9.400273e+00
      vertex   1.364087e+01  2.348050e+01  1.414296e+00
    endloop
  endfacet
  facet normal  7.949281e-01  5.731468e-01 -1.989778e-01
    outer loop
      vertex   1.364087e+01  2.348050e+01  1.414296e+00
      vertex   1.652656e+01  2.225064e+01  9.400273e+00
      vertex   2.700566e+01  4.938883e+00  1.399145e+00
    endloop
  endfacet
  facet normal  8.749605e-01  4.605456e-01  1.494720e-01
    outer loop
      vertex   2.700566e+01  4.938883e+00  1.399145e+00
      vertex   1.652656e+01  2.225064e+01  9.400273e+00
      vertex   2.679960e+01  2.731613e+00  9.406278e+00
    endloop
  endfacet
  facet normal  9.822249e-01 -1.859026e-01 -2.596955e-02
    outer loop
      vertex   2.700566e+01  4.938883e+00  1.399145e+00
      vertex   2.679960e+01  2.731613e+00  9.406278e+00
      vertex   2.369691e+01 -1.366414e+01  9.424349e+00
    endloop
  endfacet
  facet normal  9.679638e-01 -2.224233e-01 -1.165071e-01
    outer loop
      vertex   2.700566e+01  4.938883e+00  1.399145e+00
      vertex   2.369691e+01 -1.366414e+01  9.424349e+00
      vertex   2.224900e+01 -1.576859e+01  1.412476e+00
    endloop
  endfacet
  facet normal  6.390798e-01 -7.643973e-01  8.528664e-02
    outer loop
      vertex   2.224900e+01 -1.576859e+01  1.412476e+00
      vertex   2.369691e+01 -1.366414e+01  9.424349e+00
      vertex   1.032139e+01 -2.484877e+01  9.406965e+00
    endloop
  endfacet
  facet normal  4.664103e-01 -8.444768e-01 -2.632874e-01
    outer loop
      vertex   2.224900e+01 -1.576859e+01  1.412476e+00
      vertex   1.032139e+01 -2.484877e+01  9.406965e+00
      vertex   1.453003e+00 -2.724767e+01  1.391023e+00
    endloop
  endfacet
  facet normal  1.109146e-01 -9.791285e-01  1.703097e-01
    outer loop
      vertex   1.453003e+00 -2.724767e+01  1.391023e+00
      vertex   1.032139e+01 -2.484877e+01  9.406965e+00
      vertex  -5.996581e+00 -2.669220e+01  9.436011e+00
    endloop
  endfacet
  facet normal -3.383798e-01 -9.069962e-01 -2.507131e-01
    outer loop
      vertex   1.453003e+00 -2.724767e+01  1.391023e+00
      vertex  -5.996581e+00 -2.669220e+01  9.436011e+00
      vertex  -1.934037e+01 -1.949219e+01  1.398469e+00
    endloop
  endfacet
  facet normal -5.813251e-01 -7.635738e-01  2.810981e-01
    outer loop
      vertex  -1.934037e+01 -1.949219e+01  1.398469e+00
      vertex  -5.996581e+00 -2.669220e+01  9.436011e+00
      vertex  -2.418274e+01 -1.284981e+01  9.427541e+00
    endloop
  endfacet
  facet normal -9.060170e-01 -2.350196e-01 -3.519930e-01
    outer loop
      vertex  -1.934037e+01 -1.949219e+01  1.398469e+00
      vertex  -2.418274e+01 -1.284981e+01  9.427541e+00
      vertex  -2.673107e+01  8.983985e+00  1.408795e+00
    endloop
  endfacet
  facet normal -9.867821e-01 -5.986602e-02  1.505897e-01
    outer loop
      vertex  -2.673107e+01  8.983985e+00  1.408795e+00
      vertex  -2.418274e+01 -1.284981e+01  9.427541e+00
      vertex  -2.554436e+01  9.586627e+00  9.424582e+00
    endloop
  endfacet
  facet normal -7.034821e-01  7.088915e-01  5.085168e-02
    outer loop
      vertex  -2.673107e+01  8.983985e+00  1.408795e+00
      vertex  -2.554436e+01  9.586627e+00  9.424582e+00
      vertex  -9.364240e+00  2.564392e+01  9.415638e+00
    endloop
  endfacet
  facet normal -6.402547e-01  7.491181e-01 -1.699885e-01
    outer loop
      vertex  -2.673107e+01  8.983985e+00  1.408795e+00
      vertex  -9.364240e+00  2.564392e+01  9.415638e+00
      vertex  -6.508760e+00  2.626888e+01  1.414699e+00
    endloop
  endfacet
  facet normal -4.731077e-04  1.604119e-04 -9.999999e-01
    outer loop
      vertex  -1.488693e+01  5.847583e+00  1.415387e+00
      vertex  -6.508760e+00  2.626888e+01  1.414699e+00
      vertex   1.839465e+00  1.532141e+01  1.408993e+00
    endloop
  endfacet
  facet normal  5.404887e-04  1.018186e-03 -9.999993e-01
    outer loop
      vertex   1.557473e+01  2.828347e-01  1.425212e+00
      vertex   2.224900e+01 -1.576859e+01  1.412476e+00
      vertex  -2.067783e+00 -1.650067e+01  1.398588e+00
    endloop
  endfacet
  facet normal -2.226500e-03 -1.323467e-04 -9.999975e-01
    outer loop
      vertex   1.557473e+01  2.828347e-01  1.425212e+00
      vertex   2.700566e+01  4.938883e+00  1.399145e+00
      vertex   2.224900e+01 -1.576859e+01  1.412476e+00
    endloop
  endfacet
  facet normal -1.088900e-04  6.682464e-04 -9.999998e-01
    outer loop
      vertex  -2.067783e+00 -1.650067e+01  1.398588e+00
      vertex   1.453003e+00 -2.724767e+01  1.391023e+00
      vertex  -1.934037e+01 -1.949219e+01  1.398469e+00
    endloop
  endfacet
  facet normal  5.445789e-04  8.823269e-04 -9.999994e-01
    outer loop
      vertex  -2.067783e+00 -1.650067e+01  1.398588e+00
      vertex   2.224900e+01 -1.576859e+01  1.412476e+00
      vertex   1.453003e+00 -2.724767e+01  1.391023e+00
    endloop
  endfacet
  facet normal  7.324644e-04 -4.094926e-04 -9.999996e-01
    outer loop
      vertex   1.839465e+00  1.532141e+01  1.408993e+00
      vertex   1.364087e+01  2.348050e+01  1.414296e+00
      vertex   1.557473e+01  2.828347e-01  1.425212e+00
    endloop
  endfacet
  facet normal -2.020147e-03 -6.389613e-04 -9.999978e-01
    outer loop
      vertex   1.557473e+01  2.828347e-01  1.425212e+00
      vertex   1.364087e+01  2.348050e+01  1.414296e+00
      vertex   2.700566e+01  4.938883e+00  1.399145e+00
    endloop
  endfacet
  facet normal  5.829076e-05  5.656409e-04 -9.999998e-01
    outer loop
      vertex   1.839465e+00  1.532141e+01  1.408993e+00
      vertex  -6.508760e+00  2.626888e+01  1.414699e+00
      vertex   1.364087e+01  2.348050e+01  1.414296e+00
    endloop
  endfacet
  facet normal  4.939780e-04 -2.363507e-04 -9.999998e-01
    outer loop
      vertex  -1.488693e+01  5.847583e+00  1.415387e+00
      vertex  -2.673107e+01  8.983985e+00  1.408795e+00
      vertex  -6.508760e+00  2.626888e+01  1.414699e+00
    endloop
  endfacet
  facet normal -5.354668e-05  3.487015e-04 -9.999999e-01
    outer loop
      vertex  -2.067783e+00 -1.650067e+01  1.398588e+00
      vertex  -1.934037e+01 -1.949219e+01  1.398469e+00
      vertex  -2.673107e+01  8.983985e+00  1.408795e+00
    endloop
  endfacet
  facet normal  8.909506e-04  1.262757e-03 -9.999987e-01
    outer loop
      vertex  -2.067783e+00 -1.650067e+01  1.398588e+00
      vertex  -2.673107e+01  8.983985e+00  1.408795e+00
      vertex  -1.488693e+01  5.847583e+00  1.415387e+00
    endloop
  endfacet
  facet normal -3.926897e-01 -6.379402e-01 -6.624402e-01
    outer loop
      vertex  -2.987975e+00  1.517445e+01  4.412196e+00
      vertex   1.839465e+00  1.532141e+01  1.408993e+00
      vertex   1.499873e+01  4.122438e+00  4.393059e+00
    endloop
  endfacet
  facet normal -5.971081e-01 -5.447248e-01  5.888436e-01
    outer loop
      vertex   1.499873e+01  4.122438e+00  4.393059e+00
      vertex   1.839465e+00  1.532141e+01  1.408993e+00
      vertex   1.557473e+01  2.828347e-01  1.425212e+00
    endloop
  endfacet
  facet normal -7.503089e-01  3.301508e-01 -5.727451e-01
    outer loop
      vertex   1.499873e+01  4.122438e+00  4.393059e+00
      vertex   1.557473e+01  2.828347e-01  1.425212e+00
      vertex   6.287244e+00 -1.560396e+01  4.434303e+00
    endloop
  endfacet
  facet normal -3.521362e-01  3.687944e-01  8.602272e-01
    outer loop
      vertex   6.287244e+00 -1.560396e+01  4.434303e+00
      vertex   1.557473e+01  2.828347e-01  1.425212e+00
      vertex  -2.067783e+00 -1.650067e+01  1.398588e+00
    endloop
  endfacet
  facet normal  2.836240e-01  3.626404e-01 -8.877215e-01
    outer loop
      vertex   6.287244e+00 -1.560396e+01  4.434303e+00
      vertex  -2.067783e+00 -1.650067e+01  1.398588e+00
      vertex  -1.539331e+01  1.232261e+00  4.385152e+00
    endloop
  endfacet
  facet normal  6.384545e-01  3.657138e-01  6.772217e-01
    outer loop
      vertex  -1.539331e+01  1.232261e+00  4.385152e+00
      vertex  -2.067783e+00 -1.650067e+01  1.398588e+00
      vertex  -1.488693e+01  5.847583e+00  1.415387e+00
    endloop
  endfacet
  facet normal  5.548427e-01 -4.923816e-01 -6.706042e-01
    outer loop
      vertex  -1.539331e+01  1.232261e+00  4.385152e+00
      vertex  -1.488693e+01  5.847583e+00  1.415387e+00
      vertex  -2.987975e+00  1.517445e+01  4.412196e+00
    endloop
  endfacet
  facet normal  3.944477e-01 -6.960072e-01  5.999874e-01
    outer loop
      vertex  -2.987975e+00  1.517445e+01  4.412196e+00
      vertex  -1.488693e+01  5.847583e+00  1.415387e+00
      vertex   1.839465e+00  1.532141e+01  1.408993e+00
    endloop
  endfacet
  facet normal -1.421956e-03  9.278574e-04 -9.999986e-01
    outer loop
      vertex   3.087017e+00  4.162793e+00  4.410034e+00
      vertex   1.499873e+01  4.122438e+00  4.393059e+00
      vertex   2.088932e+00 -4.785099e+00  4.403151e+00
    endloop
  endfacet
  facet normal  9.505070e-04 -2.510579e-03 -9.999964e-01
    outer loop
      vertex   2.088932e+00 -4.785099e+00  4.403151e+00
      vertex   1.499873e+01  4.122438e+00  4.393059e+00
      vertex   6.287244e+00 -1.560396e+01  4.434303e+00
    endloop
  endfacet
  facet normal  4.440108e-05 -2.862197e-03 -9.999959e-01
    outer loop
      vertex   2.088932e+00 -4.785099e+00  4.403151e+00
      vertex   6.287244e+00 -1.560396e+01  4.434303e+00
      vertex  -1.539331e+01  1.232261e+00  4.385152e+00
    endloop
  endfacet
  facet normal  1.998456e-03  2.814927e-03 -9.999940e-01
    outer loop
      vertex   2.088932e+00 -4.785099e+00  4.403151e+00
      vertex  -1.539331e+01  1.232261e+00  4.385152e+00
      vertex  -5.329002e+00  1.583003e+00  4.406252e+00
    endloop
  endfacet
  facet normal  3.328912e-04  3.799443e-04 -9.999999e-01
    outer loop
      vertex  -5.329002e+00  1.583003e+00  4.406252e+00
      vertex  -2.987975e+00  1.517445e+01  4.412196e+00
      vertex   3.087017e+00  4.162793e+00  4.410034e+00
    endloop
  endfacet
  facet normal  2.093894e-03  7.662345e-05 -9.999977e-01
    outer loop
      vertex  -5.329002e+00  1.583003e+00  4.406252e+00
      vertex  -1.539331e+01  1.232261e+00  4.385152e+00
      vertex  -2.987975e+00  1.517445e+01  4.412196e+00
    endloop
  endfacet
  facet normal -1.427102e-03 -5.910223e-04 -9.999988e-01
    outer loop
      vertex   3.087017e+00  4.162793e+00  4.410034e+00
      vertex  -2.987975e+00  1.517445e+01  4.412196e+00
      vertex   1.499873e+01  4.122438e+00  4.393059e+00
    endloop
  endfacet
  facet normal -6.730584e-01 -7.382213e-01 -4.496273e-02
    outer loop
      vertex   5.177367e-01  4.860772e+00  3.141044e+01
      vertex   3.087017e+00  4.162793e+00  4.410034e+00
      vertex   4.905700e+00  8.602438e-01  3.140866e+01
    endloop
  endfacet
  facet normal -9.906386e-01  1.104382e-01  8.024056e-02
    outer loop
      vertex   4.905700e+00  8.602438e-01  3.140866e+01
      vertex   3.087017e+00  4.162793e+00  4.410034e+00
      vertex   2.088932e+00 -4.785099e+00  4.403151e+00
    endloop
  endfacet
  facet normal -7.953126e-01  6.046409e-01 -4.344276e-02
    outer loop
      vertex   4.905700e+00  8.602438e-01  3.140866e+01
      vertex   2.088932e+00 -4.785099e+00  4.403151e+00
      vertex   4.626740e-01 -4.984102e+00  3.140553e+01
    endloop
  endfacet
  facet normal  6.507307e-01  7.579871e-01  4.477746e-02
    outer loop
      vertex   4.626740e-01 -4.984102e+00  3.140553e+01
      vertex   2.088932e+00 -4.785099e+00  4.403151e+00
      vertex  -5.329002e+00  1.583003e+00  4.406252e+00
    endloop
  endfacet
  facet normal  7.837286e-01  6.208678e-01 -1.710410e-02
    outer loop
      vertex   4.626740e-01 -4.984102e+00  3.140553e+01
      vertex  -5.329002e+00  1.583003e+00  4.406252e+00
      vertex  -4.569880e+00  1.368634e+00  3.140860e+01
    endloop
  endfacet
  facet normal  5.657755e-01 -8.242537e-01 -2.244940e-02
    outer loop
      vertex  -4.569880e+00  1.368634e+00  3.140860e+01
      vertex  -5.329002e+00  1.583003e+00  4.406252e+00
      vertex   5.177367e-01  4.860772e+00  3.141044e+01
    endloop
  endfacet
  facet normal  2.926472e-01 -9.547766e-01  5.252910e-02
    outer loop
      vertex   5.177367e-01  4.860772e+00  3.141044e+01
      vertex  -5.329002e+00  1.583003e+00  4.406252e+00
      vertex   3.087017e+00  4.162793e+00  4.410034e+00
    endloop
  endfacet
endsolid vcg
