solid STL generated by MeshLab
  facet normal  0.000000e+00  0.000000e+00  1.000000e+00
    outer loop
      vertex   4.386643e+00 -1.586881e+00  3.141024e+01
      vertex   1.758675e+01 -1.202966e+00  3.141024e+01
      vertex   4.623641e+00  4.045166e-01  3.141024e+01
    endloop
  endfacet
  facet normal -0.000000e+00  0.000000e+00  1.000000e+00
    outer loop
      vertex   4.623641e+00  4.045166e-01  3.141024e+01
      vertex   1.758675e+01 -1.202966e+00  3.141024e+01
      vertex   1.758675e+01  1.202966e+00  3.141024e+01
    endloop
  endfacet
  facet normal  0.000000e+00  0.000000e+00  1.000000e+00
    outer loop
      vertex   4.623641e+00  4.045166e-01  3.141024e+01
      vertex   1.758675e+01  1.202966e+00  3.141024e+01
      vertex   1.725914e+01  3.586490e+00  3.141024e+01
    endloop
  endfacet
  facet normal  0.000000e+00 -0.000000e+00  1.000000e+00
    outer loop
      vertex   4.623641e+00  4.045166e-01  3.141024e+01
      vertex   1.725914e+01  3.586490e+00  3.141024e+01
      vertex   3.845654e+00  2.714719e+00  3.141024e+01
    endloop
  endfacet
  facet normal  0.000000e+00  0.000000e+00  1.000000e+00
    outer loop
      vertex   3.845654e+00  2.714719e+00  3.141024e+01
      vertex   1.725914e+01  3.586490e+00  3.141024e+01
      vertex   1.661003e+01  5.903204e+00  3.141024e+01
    endloop
  endfacet
  facet normal -6.742503e-08 -2.875553e-07  1.000000e+00
    outer loop
      vertex  -1.571495e+00 -4.392031e+00  3.141024e+01
      vertex  -5.913855e+00 -1.663981e+01  3.141024e+01
      vertex  -2.400324e+00 -1.746365e+01  3.141024e+01
    endloop
  endfacet
  facet normal  8.747209e-07 -3.472938e-07  1.000000e+00
    outer loop
      vertex  -1.571495e+00 -4.392031e+00  3.141024e+01
      vertex  -2.400324e+00 -1.746365e+01  3.141024e+01
      vertex   5.190176e-01 -4.618738e+00  3.141024e+01
    endloop
  endfacet
  facet normal -3.168465e-09 -1.477705e-07  1.000000e+00
    outer loop
      vertex   5.190176e-01 -4.618738e+00  3.141024e+01
      vertex  -2.400324e+00 -1.746365e+01  3.141024e+01
      vertex   1.872792e+00 -1.755527e+01  3.141024e+01
    endloop
  endfacet
  facet normal  2.910378e-08 -1.443933e-07  1.000000e+00
    outer loop
      vertex   5.190176e-01 -4.618738e+00  3.141024e+01
      vertex   1.872792e+00 -1.755527e+01  3.141024e+01
      vertex   4.755934e+00 -1.697415e+01  3.141024e+01
    endloop
  endfacet
  facet normal  8.433930e-07  1.348427e-07  1.000000e+00
    outer loop
      vertex   5.190176e-01 -4.618738e+00  3.141024e+01
      vertex   4.755934e+00 -1.697415e+01  3.141024e+01
      vertex   2.663775e+00 -3.888440e+00  3.141024e+01
    endloop
  endfacet
  facet normal  0.000000e+00  0.000000e+00  1.000000e+00
    outer loop
      vertex   2.663775e+00 -3.888440e+00  3.141024e+01
      vertex   4.755934e+00 -1.697415e+01  3.141024e+01
      vertex   7.022951e+00 -1.616846e+01  3.141024e+01
    endloop
  endfacet
  facet normal  0.000000e+00  0.000000e+00  1.000000e+00
    outer loop
      vertex   2.663775e+00 -3.888440e+00  3.141024e+01
      vertex   7.022951e+00 -1.616846e+01  3.141024e+01
      vertex   9.159143e+00 -1.506157e+01  3.141024e+01
    endloop
  endfacet
  facet normal  0.000000e+00  0.000000e+00  1.000000e+00
    outer loop
      vertex   2.663775e+00 -3.888440e+00  3.141024e+01
      vertex   9.159143e+00 -1.506157e+01  3.141024e+01
      vertex   1.112472e+01 -1.367412e+01  3.141024e+01
    endloop
  endfacet
  facet normal  0.000000e+00  0.000000e+00  1.000000e+00
    outer loop
      vertex  -4.384223e+00 -1.622002e+00  3.141024e+01
      vertex  -1.440141e+01 -1.016563e+01  3.141024e+01
      vertex  -3.281896e+00 -3.281896e+00  3.141024e+01
    endloop
  endfacet
  facet normal  0.000000e+00  0.000000e+00  1.000000e+00
    outer loop
      vertex  -3.281896e+00 -3.281896e+00  3.141024e+01
      vertex  -1.440141e+01 -1.016563e+01  3.141024e+01
      vertex  -1.288306e+01 -1.203194e+01  3.141024e+01
    endloop
  endfacet
  facet normal  0.000000e+00  0.000000e+00  1.000000e+00
    outer loop
      vertex  -3.281896e+00 -3.281896e+00  3.141024e+01
      vertex  -1.288306e+01 -1.203194e+01  3.141024e+01
      vertex  -1.112472e+01 -1.367412e+01  3.141024e+01
    endloop
  endfacet
  facet normal -1.497017e-06  1.129771e-06  1.000000e+00
    outer loop
      vertex  -3.281896e+00 -3.281896e+00  3.141024e+01
      vertex  -1.112472e+01 -1.367412e+01  3.141024e+01
      vertex  -1.571495e+00 -4.392031e+00  3.141024e+01
    endloop
  endfacet
  facet normal -1.680262e-07 -2.380397e-07  1.000000e+00
    outer loop
      vertex  -1.571495e+00 -4.392031e+00  3.141024e+01
      vertex  -1.112472e+01 -1.367412e+01  3.141024e+01
      vertex  -9.159143e+00 -1.506157e+01  3.141024e+01
    endloop
  endfacet
  facet normal -1.291929e-07 -2.656560e-07  1.000000e+00
    outer loop
      vertex  -1.571495e+00 -4.392031e+00  3.141024e+01
      vertex  -9.159143e+00 -1.506157e+01  3.141024e+01
      vertex  -5.913855e+00 -1.663981e+01  3.141024e+01
    endloop
  endfacet
  facet normal  6.742503e-08  2.875553e-07  1.000000e+00
    outer loop
      vertex   1.571495e+00  4.392031e+00  3.141024e+01
      vertex   5.913855e+00  1.663981e+01  3.141024e+01
      vertex   2.400324e+00  1.746365e+01  3.141024e+01
    endloop
  endfacet
  facet normal -1.585075e-06  3.923350e-07  1.000000e+00
    outer loop
      vertex   1.571495e+00  4.392031e+00  3.141024e+01
      vertex   2.400324e+00  1.746365e+01  3.141024e+01
      vertex  -7.834359e-01  4.600920e+00  3.141024e+01
    endloop
  endfacet
  facet normal  0.000000e+00  0.000000e+00  1.000000e+00
    outer loop
      vertex  -7.834359e-01  4.600920e+00  3.141024e+01
      vertex   2.400324e+00  1.746365e+01  3.141024e+01
      vertex   0.000000e+00  1.762784e+01  3.141024e+01
    endloop
  endfacet
  facet normal  0.000000e+00  0.000000e+00  1.000000e+00
    outer loop
      vertex   1.661003e+01  5.903204e+00  3.141024e+01
      vertex   1.565150e+01  8.109953e+00  3.141024e+01
      vertex   3.845654e+00  2.714719e+00  3.141024e+01
    endloop
  endfacet
  facet normal  0.000000e+00  0.000000e+00  1.000000e+00
    outer loop
      vertex   3.845654e+00  2.714719e+00  3.141024e+01
      vertex   1.565150e+01  8.109953e+00  3.141024e+01
      vertex   1.440141e+01  1.016563e+01  3.141024e+01
    endloop
  endfacet
  facet normal  0.000000e+00  0.000000e+00  1.000000e+00
    outer loop
      vertex   3.845654e+00  2.714719e+00  3.141024e+01
      vertex   1.440141e+01  1.016563e+01  3.141024e+01
      vertex   1.288306e+01  1.203194e+01  3.141024e+01
    endloop
  endfacet
  facet normal  0.000000e+00  0.000000e+00  1.000000e+00
    outer loop
      vertex   3.845654e+00  2.714719e+00  3.141024e+01
      vertex   1.288306e+01  1.203194e+01  3.141024e+01
      vertex   1.112472e+01  1.367412e+01  3.141024e+01
    endloop
  endfacet
  facet normal  1.125876e-06 -7.477893e-07  1.000000e+00
    outer loop
      vertex   3.845654e+00  2.714719e+00  3.141024e+01
      vertex   1.112472e+01  1.367412e+01  3.141024e+01
      vertex   1.571495e+00  4.392031e+00  3.141024e+01
    endloop
  endfacet
  facet normal  1.680262e-07  2.380397e-07  1.000000e+00
    outer loop
      vertex   1.571495e+00  4.392031e+00  3.141024e+01
      vertex   1.112472e+01  1.367412e+01  3.141024e+01
      vertex   9.159143e+00  1.506157e+01  3.141024e+01
    endloop
  endfacet
  facet normal  1.291929e-07  2.656560e-07  1.000000e+00
    outer loop
      vertex   1.571495e+00  4.392031e+00  3.141024e+01
      vertex   9.159143e+00  1.506157e+01  3.141024e+01
      vertex   5.913855e+00  1.663981e+01  3.141024e+01
    endloop
  endfacet
  facet normal  0.000000e+00  0.000000e+00  1.000000e+00
    outer loop
      vertex  -4.635518e+00  2.687618e-01  3.141024e+01
      vertex  -1.758675e+01 -1.202966e+00  3.141024e+01
      vertex  -4.384223e+00 -1.622002e+00  3.141024e+01
    endloop
  endfacet
  facet normal  0.000000e+00  0.000000e+00  1.000000e+00
    outer loop
      vertex  -4.384223e+00 -1.622002e+00  3.141024e+01
      vertex  -1.758675e+01 -1.202966e+00  3.141024e+01
      vertex  -1.725914e+01 -3.586490e+00  3.141024e+01
    endloop
  endfacet
  facet normal  0.000000e+00  0.000000e+00  1.000000e+00
    outer loop
      vertex  -4.384223e+00 -1.622002e+00  3.141024e+01
      vertex  -1.725914e+01 -3.586490e+00  3.141024e+01
      vertex  -1.661003e+01 -5.903204e+00  3.141024e+01
    endloop
  endfacet
  facet normal  0.000000e+00  0.000000e+00  1.000000e+00
    outer loop
      vertex  -4.384223e+00 -1.622002e+00  3.141024e+01
      vertex  -1.661003e+01 -5.903204e+00  3.141024e+01
      vertex  -1.565150e+01 -8.109953e+00  3.141024e+01
    endloop
  endfacet
  facet normal  0.000000e+00  0.000000e+00  1.000000e+00
    outer loop
      vertex  -4.384223e+00 -1.622002e+00  3.141024e+01
      vertex  -1.565150e+01 -8.109953e+00  3.141024e+01
      vertex  -1.440141e+01 -1.016563e+01  3.141024e+01
    endloop
  endfacet
  facet normal  0.000000e+00  0.000000e+00  1.000000e+00
    outer loop
      vertex   0.000000e+00  1.762784e+01  3.141024e+01
      vertex  -2.400324e+00  1.746365e+01  3.141024e+01
      vertex  -7.834359e-01  4.600920e+00  3.141024e+01
    endloop
  endfacet
  facet normal  0.000000e+00  0.000000e+00  1.000000e+00
    outer loop
      vertex  -7.834359e-01  4.600920e+00  3.141024e+01
      vertex  -2.400324e+00  1.746365e+01  3.141024e+01
      vertex  -4.755934e+00  1.697415e+01  3.141024e+01
    endloop
  endfacet
  facet normal  0.000000e+00  0.000000e+00  1.000000e+00
    outer loop
      vertex  -7.834359e-01  4.600920e+00  3.141024e+01
      vertex  -4.755934e+00  1.697415e+01  3.141024e+01
      vertex  -7.022951e+00  1.616846e+01  3.141024e+01
    endloop
  endfacet
  facet normal  0.000000e+00  0.000000e+00  1.000000e+00
    outer loop
      vertex  -7.834359e-01  4.600920e+00  3.141024e+01
      vertex  -7.022951e+00  1.616846e+01  3.141024e+01
      vertex  -2.662141e+00  3.801932e+00  3.141024e+01
    endloop
  endfacet
  facet normal  0.000000e+00  0.000000e+00  1.000000e+00
    outer loop
      vertex  -2.662141e+00  3.801932e+00  3.141024e+01
      vertex  -7.022951e+00  1.616846e+01  3.141024e+01
      vertex  -9.159143e+00  1.506157e+01  3.141024e+01
    endloop
  endfacet
  facet normal  0.000000e+00  0.000000e+00  1.000000e+00
    outer loop
      vertex  -2.662141e+00  3.801932e+00  3.141024e+01
      vertex  -9.159143e+00  1.506157e+01  3.141024e+01
      vertex  -1.112472e+01  1.367412e+01  3.141024e+01
    endloop
  endfacet
  facet normal  0.000000e+00  0.000000e+00  1.000000e+00
    outer loop
      vertex  -2.662141e+00  3.801932e+00  3.141024e+01
      vertex  -1.112472e+01  1.367412e+01  3.141024e+01
      vertex  -4.044441e+00  2.324506e+00  3.141024e+01
    endloop
  endfacet
  facet normal  0.000000e+00 -0.000000e+00  1.000000e+00
    outer loop
      vertex   1.112472e+01 -1.367412e+01  3.141024e+01
      vertex   1.288306e+01 -1.203194e+01  3.141024e+01
      vertex   2.663775e+00 -3.888440e+00  3.141024e+01
    endloop
  endfacet
  facet normal  0.000000e+00  0.000000e+00  1.000000e+00
    outer loop
      vertex   2.663775e+00 -3.888440e+00  3.141024e+01
      vertex   1.288306e+01 -1.203194e+01  3.141024e+01
      vertex   1.440141e+01 -1.016563e+01  3.141024e+01
    endloop
  endfacet
  facet normal -0.000000e+00  0.000000e+00  1.000000e+00
    outer loop
      vertex   2.663775e+00 -3.888440e+00  3.141024e+01
      vertex   1.440141e+01 -1.016563e+01  3.141024e+01
      vertex   4.386643e+00 -1.586881e+00  3.141024e+01
    endloop
  endfacet
  facet normal  0.000000e+00  0.000000e+00  1.000000e+00
    outer loop
      vertex   4.386643e+00 -1.586881e+00  3.141024e+01
      vertex   1.440141e+01 -1.016563e+01  3.141024e+01
      vertex   1.565150e+01 -8.109953e+00  3.141024e+01
    endloop
  endfacet
  facet normal  0.000000e+00  0.000000e+00  1.000000e+00
    outer loop
      vertex   4.386643e+00 -1.586881e+00  3.141024e+01
      vertex   1.565150e+01 -8.109953e+00  3.141024e+01
      vertex   1.661003e+01 -5.903204e+00  3.141024e+01
    endloop
  endfacet
  facet normal  0.000000e+00  0.000000e+00  1.000000e+00
    outer loop
      vertex   4.386643e+00 -1.586881e+00  3.141024e+01
      vertex   1.661003e+01 -5.903204e+00  3.141024e+01
      vertex   1.725914e+01 -3.586490e+00  3.141024e+01
    endloop
  endfacet
  facet normal -0.000000e+00  0.000000e+00  1.000000e+00
    outer loop
      vertex   4.386643e+00 -1.586881e+00  3.141024e+01
      vertex   1.725914e+01 -3.586490e+00  3.141024e+01
      vertex   1.758675e+01 -1.202966e+00  3.141024e+01
    endloop
  endfacet
  facet normal  0.000000e+00  0.000000e+00  1.000000e+00
    outer loop
      vertex  -1.112472e+01  1.367412e+01  3.141024e+01
      vertex  -1.288306e+01  1.203194e+01  3.141024e+01
      vertex  -4.044441e+00  2.324506e+00  3.141024e+01
    endloop
  endfacet
  facet normal  0.000000e+00  0.000000e+00  1.000000e+00
    outer loop
      vertex  -4.044441e+00  2.324506e+00  3.141024e+01
      vertex  -1.288306e+01  1.203194e+01  3.141024e+01
      vertex  -1.440141e+01  1.016563e+01  3.141024e+01
    endloop
  endfacet
  facet normal  0.000000e+00  0.000000e+00  1.000000e+00
    outer loop
      vertex  -4.044441e+00  2.324506e+00  3.141024e+01
      vertex  -1.440141e+01  1.016563e+01  3.141024e+01
      vertex  -1.565150e+01  8.109953e+00  3.141024e+01
    endloop
  endfacet
  facet normal  0.000000e+00  0.000000e+00  1.000000e+00
    outer loop
      vertex  -4.044441e+00  2.324506e+00  3.141024e+01
      vertex  -1.565150e+01  8.109953e+00  3.141024e+01
      vertex  -1.661003e+01  5.903204e+00  3.141024e+01
    endloop
  endfacet
  facet normal  0.000000e+00  0.000000e+00  1.000000e+00
    outer loop
      vertex  -4.044441e+00  2.324506e+00  3.141024e+01
      vertex  -1.661003e+01  5.903204e+00  3.141024e+01
      vertex  -4.635518e+00  2.687618e-01  3.141024e+01
    endloop
  endfacet
  facet normal  0.000000e+00  0.000000e+00  1.000000e+00
    outer loop
      vertex  -4.635518e+00  2.687618e-01  3.141024e+01
      vertex  -1.661003e+01  5.903204e+00  3.141024e+01
      vertex  -1.725914e+01  3.586490e+00  3.141024e+01
    endloop
  endfacet
  facet normal  0.000000e+00  0.000000e+00  1.000000e+00
    outer loop
      vertex  -4.635518e+00  2.687618e-01  3.141024e+01
      vertex  -1.725914e+01  3.586490e+00  3.141024e+01
      vertex  -1.758675e+01  1.202966e+00  3.141024e+01
    endloop
  endfacet
  facet normal  0.000000e+00  0.000000e+00  1.000000e+00
    outer loop
      vertex  -4.635518e+00  2.687618e-01  3.141024e+01
      vertex  -1.758675e+01  1.202966e+00  3.141024e+01
      vertex  -1.758675e+01 -1.202966e+00  3.141024e+01
    endloop
  endfacet
  facet normal  6.316606e-02  9.980029e-01  5.565171e-04
    outer loop
      vertex   0.000000e+00  1.762784e+01  9.410242e+00
      vertex   2.400324e+00  1.746365e+01  3.141024e+01
      vertex   2.293250e+00  1.748269e+01  9.410242e+00
    endloop
  endfacet
  facet normal  2.282852e-01  9.735943e-01 -2.682518e-04
    outer loop
      vertex   2.293250e+00  1.748269e+01  9.410242e+00
      vertex   2.400324e+00  1.746365e+01  3.141024e+01
      vertex   5.913855e+00  1.663981e+01  3.141024e+01
    endloop
  endfacet
  facet normal  2.374803e-01  9.713906e-01 -1.865945e-03
    outer loop
      vertex   2.293250e+00  1.748269e+01  9.410242e+00
      vertex   5.913855e+00  1.663981e+01  3.141024e+01
      vertex   6.294823e+00  1.650441e+01  9.410242e+00
    endloop
  endfacet
  facet normal  4.373414e-01  8.992932e-01  2.038716e-03
    outer loop
      vertex   6.294823e+00  1.650441e+01  9.410242e+00
      vertex   5.913855e+00  1.663981e+01  3.141024e+01
      vertex   9.159143e+00  1.506157e+01  3.141024e+01
    endloop
  endfacet
  facet normal  4.498760e-01  8.930910e-01  0.000000e+00
    outer loop
      vertex   6.294823e+00  1.650441e+01  9.410242e+00
      vertex   9.159143e+00  1.506157e+01  3.141024e+01
      vertex   9.159143e+00  1.506157e+01  9.410242e+00
    endloop
  endfacet
  facet normal  5.766790e-01  8.169709e-01 -0.000000e+00
    outer loop
      vertex   9.159143e+00  1.506157e+01  9.410242e+00
      vertex   9.159143e+00  1.506157e+01  3.141024e+01
      vertex   1.112472e+01  1.367412e+01  3.141024e+01
    endloop
  endfacet
  facet normal  5.766790e-01  8.169709e-01  0.000000e+00
    outer loop
      vertex   9.159143e+00  1.506157e+01  9.410242e+00
      vertex   1.112472e+01  1.367412e+01  3.141024e+01
      vertex   1.112472e+01  1.367412e+01  9.410242e+00
    endloop
  endfacet
  facet normal  6.825540e-01  7.308352e-01 -0.000000e+00
    outer loop
      vertex   1.112472e+01  1.367412e+01  9.410242e+00
      vertex   1.112472e+01  1.367412e+01  3.141024e+01
      vertex   1.288306e+01  1.203194e+01  3.141024e+01
    endloop
  endfacet
  facet normal  6.825540e-01  7.308352e-01  0.000000e+00
    outer loop
      vertex   1.112472e+01  1.367412e+01  9.410242e+00
      vertex   1.288306e+01  1.203194e+01  3.141024e+01
      vertex   1.288306e+01  1.203194e+01  9.410242e+00
    endloop
  endfacet
  facet normal  7.757125e-01  6.310863e-01 -0.000000e+00
    outer loop
      vertex   1.288306e+01  1.203194e+01  9.410242e+00
      vertex   1.288306e+01  1.203194e+01  3.141024e+01
      vertex   1.440141e+01  1.016563e+01  3.141024e+01
    endloop
  endfacet
  facet normal  7.757125e-01  6.310863e-01  0.000000e+00
    outer loop
      vertex   1.288306e+01  1.203194e+01  9.410242e+00
      vertex   1.440141e+01  1.016563e+01  3.141024e+01
      vertex   1.440141e+01  1.016563e+01  9.410242e+00
    endloop
  endfacet
  facet normal  8.544186e-01  5.195853e-01 -0.000000e+00
    outer loop
      vertex   1.440141e+01  1.016563e+01  9.410242e+00
      vertex   1.440141e+01  1.016563e+01  3.141024e+01
      vertex   1.565150e+01  8.109953e+00  3.141024e+01
    endloop
  endfacet
  facet normal  8.544186e-01  5.195853e-01  0.000000e+00
    outer loop
      vertex   1.440141e+01  1.016563e+01  9.410242e+00
      vertex   1.565150e+01  8.109953e+00  3.141024e+01
      vertex   1.565150e+01  8.109953e+00  9.410242e+00
    endloop
  endfacet
  facet normal  9.172108e-01  3.984022e-01 -0.000000e+00
    outer loop
      vertex   1.565150e+01  8.109953e+00  9.410242e+00
      vertex   1.565150e+01  8.109953e+00  3.141024e+01
      vertex   1.661003e+01  5.903204e+00  3.141024e+01
    endloop
  endfacet
  facet normal  9.172108e-01  3.984022e-01  0.000000e+00
    outer loop
      vertex   1.565150e+01  8.109953e+00  9.410242e+00
      vertex   1.661003e+01  5.903204e+00  3.141024e+01
      vertex   1.661003e+01  5.903204e+00  9.410242e+00
    endloop
  endfacet
  facet normal  9.629175e-01  2.697960e-01 -0.000000e+00
    outer loop
      vertex   1.661003e+01  5.903204e+00  9.410242e+00
      vertex   1.661003e+01  5.903204e+00  3.141024e+01
      vertex   1.725914e+01  3.586490e+00  3.141024e+01
    endloop
  endfacet
  facet normal  9.629175e-01  2.697960e-01  0.000000e+00
    outer loop
      vertex   1.661003e+01  5.903204e+00  9.410242e+00
      vertex   1.725914e+01  3.586490e+00  3.141024e+01
      vertex   1.725914e+01  3.586490e+00  9.410242e+00
    endloop
  endfacet
  facet normal  9.906858e-01  1.361675e-01 -0.000000e+00
    outer loop
      vertex   1.725914e+01  3.586490e+00  9.410242e+00
      vertex   1.725914e+01  3.586490e+00  3.141024e+01
      vertex   1.758675e+01  1.202966e+00  3.141024e+01
    endloop
  endfacet
  facet normal  9.906858e-01  1.361675e-01  0.000000e+00
    outer loop
      vertex   1.725914e+01  3.586490e+00  9.410242e+00
      vertex   1.758675e+01  1.202966e+00  3.141024e+01
      vertex   1.758675e+01  1.202966e+00  9.410242e+00
    endloop
  endfacet
  facet normal  1.000000e+00  0.000000e+00 -0.000000e+00
    outer loop
      vertex   1.758675e+01  1.202966e+00  9.410242e+00
      vertex   1.758675e+01  1.202966e+00  3.141024e+01
      vertex   1.758675e+01 -1.202966e+00  3.141024e+01
    endloop
  endfacet
  facet normal  1.000000e+00  0.000000e+00  0.000000e+00
    outer loop
      vertex   1.758675e+01  1.202966e+00  9.410242e+00
      vertex   1.758675e+01 -1.202966e+00  3.141024e+01
      vertex   1.758675e+01 -1.202966e+00  9.410242e+00
    endloop
  endfacet
  facet normal  9.906858e-01 -1.361675e-01  0.000000e+00
    outer loop
      vertex   1.758675e+01 -1.202966e+00  9.410242e+00
      vertex   1.758675e+01 -1.202966e+00  3.141024e+01
      vertex   1.725914e+01 -3.586490e+00  3.141024e+01
    endloop
  endfacet
  facet normal  9.906858e-01 -1.361675e-01  0.000000e+00
    outer loop
      vertex   1.758675e+01 -1.202966e+00  9.410242e+00
      vertex   1.725914e+01 -3.586490e+00  3.141024e+01
      vertex   1.725914e+01 -3.586490e+00  9.410242e+00
    endloop
  endfacet
  facet normal  9.629175e-01 -2.697960e-01  0.000000e+00
    outer loop
      vertex   1.725914e+01 -3.586490e+00  9.410242e+00
      vertex   1.725914e+01 -3.586490e+00  3.141024e+01
      vertex   1.661003e+01 -5.903204e+00  3.141024e+01
    endloop
  endfacet
  facet normal  9.629175e-01 -2.697960e-01  0.000000e+00
    outer loop
      vertex   1.725914e+01 -3.586490e+00  9.410242e+00
      vertex   1.661003e+01 -5.903204e+00  3.141024e+01
      vertex   1.661003e+01 -5.903204e+00  9.410242e+00
    endloop
  endfacet
  facet normal  9.172108e-01 -3.984022e-01  0.000000e+00
    outer loop
      vertex   1.661003e+01 -5.903204e+00  9.410242e+00
      vertex   1.661003e+01 -5.903204e+00  3.141024e+01
      vertex   1.565150e+01 -8.109953e+00  3.141024e+01
    endloop
  endfacet
  facet normal  9.172108e-01 -3.984022e-01  0.000000e+00
    outer loop
      vertex   1.661003e+01 -5.903204e+00  9.410242e+00
      vertex   1.565150e+01 -8.109953e+00  3.141024e+01
      vertex   1.565150e+01 -8.109953e+00  9.410242e+00
    endloop
  endfacet
  facet normal  8.544186e-01 -5.195853e-01  0.000000e+00
    outer loop
      vertex   1.565150e+01 -8.109953e+00  9.410242e+00
      vertex   1.565150e+01 -8.109953e+00  3.141024e+01
      vertex   1.440141e+01 -1.016563e+01  3.141024e+01
    endloop
  endfacet
  facet normal  8.544186e-01 -5.195853e-01  0.000000e+00
    outer loop
      vertex   1.565150e+01 -8.109953e+00  9.410242e+00
      vertex   1.440141e+01 -1.016563e+01  3.141024e+01
      vertex   1.440141e+01 -1.016563e+01  9.410242e+00
    endloop
  endfacet
  facet normal  7.757125e-01 -6.310863e-01  0.000000e+00
    outer loop
      vertex   1.440141e+01 -1.016563e+01  9.410242e+00
      vertex   1.440141e+01 -1.016563e+01  3.141024e+01
      vertex   1.288306e+01 -1.203194e+01  3.141024e+01
    endloop
  endfacet
  facet normal  7.757125e-01 -6.310863e-01  0.000000e+00
    outer loop
      vertex   1.440141e+01 -1.016563e+01  9.410242e+00
      vertex   1.288306e+01 -1.203194e+01  3.141024e+01
      vertex   1.288306e+01 -1.203194e+01  9.410242e+00
    endloop
  endfacet
  facet normal  6.825540e-01 -7.308352e-01  0.000000e+00
    outer loop
      vertex   1.288306e+01 -1.203194e+01  9.410242e+00
      vertex   1.288306e+01 -1.203194e+01  3.141024e+01
      vertex   1.112472e+01 -1.367412e+01  3.141024e+01
    endloop
  endfacet
  facet normal  6.825540e-01 -7.308352e-01  0.000000e+00
    outer loop
      vertex   1.288306e+01 -1.203194e+01  9.410242e+00
      vertex   1.112472e+01 -1.367412e+01  3.141024e+01
      vertex   1.112472e+01 -1.367412e+01  9.410242e+00
    endloop
  endfacet
  facet normal  5.766790e-01 -8.169709e-01  0.000000e+00
    outer loop
      vertex   1.112472e+01 -1.367412e+01  9.410242e+00
      vertex   1.112472e+01 -1.367412e+01  3.141024e+01
      vertex   9.159143e+00 -1.506157e+01  3.141024e+01
    endloop
  endfacet
  facet normal  5.766790e-01 -8.169709e-01  0.000000e+00
    outer loop
      vertex   1.112472e+01 -1.367412e+01  9.410242e+00
      vertex   9.159143e+00 -1.506157e+01  3.141024e+01
      vertex   9.159143e+00 -1.506157e+01  9.410242e+00
    endloop
  endfacet
  facet normal  4.600667e-01 -8.878844e-01  0.000000e+00
    outer loop
      vertex   9.159143e+00 -1.506157e+01  9.410242e+00
      vertex   9.159143e+00 -1.506157e+01  3.141024e+01
      vertex   7.022951e+00 -1.616846e+01  3.141024e+01
    endloop
  endfacet
  facet normal  4.600667e-01 -8.878844e-01  0.000000e+00
    outer loop
      vertex   9.159143e+00 -1.506157e+01  9.410242e+00
      vertex   7.022951e+00 -1.616846e+01  3.141024e+01
      vertex   7.022951e+00 -1.616846e+01  9.410242e+00
    endloop
  endfacet
  facet normal  3.348762e-01 -9.422622e-01  0.000000e+00
    outer loop
      vertex   7.022951e+00 -1.616846e+01  9.410242e+00
      vertex   7.022951e+00 -1.616846e+01  3.141024e+01
      vertex   4.755934e+00 -1.697415e+01  3.141024e+01
    endloop
  endfacet
  facet normal  3.348762e-01 -9.422622e-01  0.000000e+00
    outer loop
      vertex   7.022951e+00 -1.616846e+01  9.410242e+00
      vertex   4.755934e+00 -1.697415e+01  3.141024e+01
      vertex   4.755934e+00 -1.697415e+01  9.410242e+00
    endloop
  endfacet
  facet normal  1.975855e-01 -9.802857e-01  0.000000e+00
    outer loop
      vertex   4.755934e+00 -1.697415e+01  9.410242e+00
      vertex   4.755934e+00 -1.697415e+01  3.141024e+01
      vertex   1.872792e+00 -1.755527e+01  3.141024e+01
    endloop
  endfacet
  facet normal  2.034554e-01 -9.790839e-01  8.010121e-04
    outer loop
      vertex   4.755934e+00 -1.697415e+01  9.410242e+00
      vertex   1.872792e+00 -1.755527e+01  3.141024e+01
      vertex   2.400324e+00 -1.746365e+01  9.410242e+00
    endloop
  endfacet
  facet normal  3.871876e-02 -9.992449e-01 -3.233125e-03
    outer loop
      vertex   2.400324e+00 -1.746365e+01  9.410242e+00
      vertex   1.872792e+00 -1.755527e+01  3.141024e+01
      vertex   2.158788e-15 -1.762784e+01  3.141024e+01
    endloop
  endfacet
  facet normal  6.824391e-02 -9.976687e-01  0.000000e+00
    outer loop
      vertex   2.400324e+00 -1.746365e+01  9.410242e+00
      vertex   2.158788e-15 -1.762784e+01  3.141024e+01
      vertex   2.158788e-15 -1.762784e+01  9.410242e+00
    endloop
  endfacet
  facet normal -6.824391e-02 -9.976687e-01  0.000000e+00
    outer loop
      vertex   2.158788e-15 -1.762784e+01  9.410242e+00
      vertex   2.158788e-15 -1.762784e+01  3.141024e+01
      vertex  -2.400324e+00 -1.746365e+01  3.141024e+01
    endloop
  endfacet
  facet normal -6.310144e-02 -9.980069e-01  5.635972e-04
    outer loop
      vertex   2.158788e-15 -1.762784e+01  9.410242e+00
      vertex  -2.400324e+00 -1.746365e+01  3.141024e+01
      vertex  -2.291957e+00 -1.748293e+01  9.410242e+00
    endloop
  endfacet
  facet normal -2.282852e-01 -9.735943e-01 -2.714499e-04
    outer loop
      vertex  -2.291957e+00 -1.748293e+01  9.410242e+00
      vertex  -2.400324e+00 -1.746365e+01  3.141024e+01
      vertex  -5.913855e+00 -1.663981e+01  3.141024e+01
    endloop
  endfacet
  facet normal -2.022178e-01 -9.793314e-01  4.239928e-03
    outer loop
      vertex  -2.291957e+00 -1.748293e+01  9.410242e+00
      vertex  -5.913855e+00 -1.663981e+01  3.141024e+01
      vertex  -4.755934e+00 -1.697415e+01  9.410242e+00
    endloop
  endfacet
  facet normal -3.348743e-01 -9.422570e-01 -3.305581e-03
    outer loop
      vertex  -4.755934e+00 -1.697415e+01  9.410242e+00
      vertex  -5.913855e+00 -1.663981e+01  3.141024e+01
      vertex  -7.022951e+00 -1.616846e+01  9.410242e+00
    endloop
  endfacet
  facet normal -4.373406e-01 -8.992916e-01  2.780629e-03
    outer loop
      vertex  -7.022951e+00 -1.616846e+01  9.410242e+00
      vertex  -5.913855e+00 -1.663981e+01  3.141024e+01
      vertex  -9.159143e+00 -1.506157e+01  3.141024e+01
    endloop
  endfacet
  facet normal -4.600667e-01 -8.878844e-01  0.000000e+00
    outer loop
      vertex  -7.022951e+00 -1.616846e+01  9.410242e+00
      vertex  -9.159143e+00 -1.506157e+01  3.141024e+01
      vertex  -9.159143e+00 -1.506157e+01  9.410242e+00
    endloop
  endfacet
  facet normal -5.766790e-01 -8.169709e-01  0.000000e+00
    outer loop
      vertex  -9.159143e+00 -1.506157e+01  9.410242e+00
      vertex  -9.159143e+00 -1.506157e+01  3.141024e+01
      vertex  -1.112472e+01 -1.367412e+01  3.141024e+01
    endloop
  endfacet
  facet normal -5.766790e-01 -8.169709e-01  0.000000e+00
    outer loop
      vertex  -9.159143e+00 -1.506157e+01  9.410242e+00
      vertex  -1.112472e+01 -1.367412e+01  3.141024e+01
      vertex  -1.112472e+01 -1.367412e+01  9.410242e+00
    endloop
  endfacet
  facet normal -6.825540e-01 -7.308352e-01  0.000000e+00
    outer loop
      vertex  -1.112472e+01 -1.367412e+01  9.410242e+00
      vertex  -1.112472e+01 -1.367412e+01  3.141024e+01
      vertex  -1.288306e+01 -1.203194e+01  3.141024e+01
    endloop
  endfacet
  facet normal -6.825540e-01 -7.308352e-01  0.000000e+00
    outer loop
      vertex  -1.112472e+01 -1.367412e+01  9.410242e+00
      vertex  -1.288306e+01 -1.203194e+01  3.141024e+01
      vertex  -1.288306e+01 -1.203194e+01  9.410242e+00
    endloop
  endfacet
  facet normal -7.757125e-01 -6.310863e-01  0.000000e+00
    outer loop
      vertex  -1.288306e+01 -1.203194e+01  9.410242e+00
      vertex  -1.288306e+01 -1.203194e+01  3.141024e+01
      vertex  -1.440141e+01 -1.016563e+01  3.141024e+01
    endloop
  endfacet
  facet normal -7.757125e-01 -6.310863e-01  0.000000e+00
    outer loop
      vertex  -1.288306e+01 -1.203194e+01  9.410242e+00
      vertex  -1.440141e+01 -1.016563e+01  3.141024e+01
      vertex  -1.440141e+01 -1.016563e+01  9.410242e+00
    endloop
  endfacet
  facet normal -8.544186e-01 -5.195853e-01  0.000000e+00
    outer loop
      vertex  -1.440141e+01 -1.016563e+01  9.410242e+00
      vertex  -1.440141e+01 -1.016563e+01  3.141024e+01
      vertex  -1.565150e+01 -8.109953e+00  3.141024e+01
    endloop
  endfacet
  facet normal -8.544186e-01 -5.195853e-01  0.000000e+00
    outer loop
      vertex  -1.440141e+01 -1.016563e+01  9.410242e+00
      vertex  -1.565150e+01 -8.109953e+00  3.141024e+01
      vertex  -1.565150e+01 -8.109953e+00  9.410242e+00
    endloop
  endfacet
  facet normal -9.172108e-01 -3.984022e-01  0.000000e+00
    outer loop
      vertex  -1.565150e+01 -8.109953e+00  9.410242e+00
      vertex  -1.565150e+01 -8.109953e+00  3.141024e+01
      vertex  -1.661003e+01 -5.903204e+00  3.141024e+01
    endloop
  endfacet
  facet normal -9.172108e-01 -3.984022e-01  0.000000e+00
    outer loop
      vertex  -1.565150e+01 -8.109953e+00  9.410242e+00
      vertex  -1.661003e+01 -5.903204e+00  3.141024e+01
      vertex  -1.661003e+01 -5.903204e+00  9.410242e+00
    endloop
  endfacet
  facet normal -9.629175e-01 -2.697960e-01  0.000000e+00
    outer loop
      vertex  -1.661003e+01 -5.903204e+00  9.410242e+00
      vertex  -1.661003e+01 -5.903204e+00  3.141024e+01
      vertex  -1.725914e+01 -3.586490e+00  3.141024e+01
    endloop
  endfacet
  facet normal -9.629175e-01 -2.697960e-01  0.000000e+00
    outer loop
      vertex  -1.661003e+01 -5.903204e+00  9.410242e+00
      vertex  -1.725914e+01 -3.586490e+00  3.141024e+01
      vertex  -1.725914e+01 -3.586490e+00  9.410242e+00
    endloop
  endfacet
  facet normal -9.906858e-01 -1.361675e-01  0.000000e+00
    outer loop
      vertex  -1.725914e+01 -3.586490e+00  9.410242e+00
      vertex  -1.725914e+01 -3.586490e+00  3.141024e+01
      vertex  -1.758675e+01 -1.202966e+00  3.141024e+01
    endloop
  endfacet
  facet normal -9.906858e-01 -1.361675e-01  0.000000e+00
    outer loop
      vertex  -1.725914e+01 -3.586490e+00  9.410242e+00
      vertex  -1.758675e+01 -1.202966e+00  3.141024e+01
      vertex  -1.758675e+01 -1.202966e+00  9.410242e+00
    endloop
  endfacet
  facet normal -1.000000e+00  0.000000e+00  0.000000e+00
    outer loop
      vertex  -1.758675e+01 -1.202966e+00  9.410242e+00
      vertex  -1.758675e+01 -1.202966e+00  3.141024e+01
      vertex  -1.758675e+01  1.202966e+00  3.141024e+01
    endloop
  endfacet
  facet normal -1.000000e+00  0.000000e+00  0.000000e+00
    outer loop
      vertex  -1.758675e+01 -1.202966e+00  9.410242e+00
      vertex  -1.758675e+01  1.202966e+00  3.141024e+01
      vertex  -1.758675e+01  1.202966e+00  9.410242e+00
    endloop
  endfacet
  facet normal -9.906858e-01  1.361675e-01  0.000000e+00
    outer loop
      vertex  -1.758675e+01  1.202966e+00  9.410242e+00
      vertex  -1.758675e+01  1.202966e+00  3.141024e+01
      vertex  -1.725914e+01  3.586490e+00  3.141024e+01
    endloop
  endfacet
  facet normal -9.906858e-01  1.361675e-01  0.000000e+00
    outer loop
      vertex  -1.758675e+01  1.202966e+00  9.410242e+00
      vertex  -1.725914e+01  3.586490e+00  3.141024e+01
      vertex  -1.725914e+01  3.586490e+00  9.410242e+00
    endloop
  endfacet
  facet normal -9.629175e-01  2.697960e-01  0.000000e+00
    outer loop
      vertex  -1.725914e+01  3.586490e+00  9.410242e+00
      vertex  -1.725914e+01  3.586490e+00  3.141024e+01
      vertex  -1.661003e+01  5.903204e+00  3.141024e+01
    endloop
  endfacet
  facet normal -9.629175e-01  2.697960e-01  0.000000e+00
    outer loop
      vertex  -1.725914e+01  3.586490e+00  9.410242e+00
      vertex  -1.661003e+01  5.903204e+00  3.141024e+01
      vertex  -1.661003e+01  5.903204e+00  9.410242e+00
    endloop
  endfacet
  facet normal -9.172108e-01  3.984022e-01  0.000000e+00
    outer loop
      vertex  -1.661003e+01  5.903204e+00  9.410242e+00
      vertex  -1.661003e+01  5.903204e+00  3.141024e+01
      vertex  -1.565150e+01  8.109953e+00  3.141024e+01
    endloop
  endfacet
  facet normal -9.172108e-01  3.984022e-01  0.000000e+00
    outer loop
      vertex  -1.661003e+01  5.903204e+00  9.410242e+00
      vertex  -1.565150e+01  8.109953e+00  3.141024e+01
      vertex  -1.565150e+01  8.109953e+00  9.410242e+00
    endloop
  endfacet
  facet normal -8.544186e-01  5.195853e-01  0.000000e+00
    outer loop
      vertex  -1.565150e+01  8.109953e+00  9.410242e+00
      vertex  -1.565150e+01  8.109953e+00  3.141024e+01
      vertex  -1.440141e+01  1.016563e+01  3.141024e+01
    endloop
  endfacet
  facet normal -8.544186e-01  5.195853e-01  0.000000e+00
    outer loop
      vertex  -1.565150e+01  8.109953e+00  9.410242e+00
      vertex  -1.440141e+01  1.016563e+01  3.141024e+01
      vertex  -1.440141e+01  1.016563e+01  9.410242e+00
    endloop
  endfacet
  facet normal -7.757125e-01  6.310863e-01  0.000000e+00
    outer loop
      vertex  -1.440141e+01  1.016563e+01  9.410242e+00
      vertex  -1.440141e+01  1.016563e+01  3.141024e+01
      vertex  -1.288306e+01  1.203194e+01  3.141024e+01
    endloop
  endfacet
  facet normal -7.757125e-01  6.310863e-01  0.000000e+00
    outer loop
      vertex  -1.440141e+01  1.016563e+01  9.410242e+00
      vertex  -1.288306e+01  1.203194e+01  3.141024e+01
      vertex  -1.288306e+01  1.203194e+01  9.410242e+00
    endloop
  endfacet
  facet normal -6.825540e-01  7.308352e-01  0.000000e+00
    outer loop
      vertex  -1.288306e+01  1.203194e+01  9.410242e+00
      vertex  -1.288306e+01  1.203194e+01  3.141024e+01
      vertex  -1.112472e+01  1.367412e+01  3.141024e+01
    endloop
  endfacet
  facet normal -6.825540e-01  7.308352e-01  0.000000e+00
    outer loop
      vertex  -1.288306e+01  1.203194e+01  9.410242e+00
      vertex  -1.112472e+01  1.367412e+01  3.141024e+01
      vertex  -1.112472e+01  1.367412e+01  9.410242e+00
    endloop
  endfacet
  facet normal -5.766790e-01  8.169709e-01  0.000000e+00
    outer loop
      vertex  -1.112472e+01  1.367412e+01  9.410242e+00
      vertex  -1.112472e+01  1.367412e+01  3.141024e+01
      vertex  -9.159143e+00  1.506157e+01  3.141024e+01
    endloop
  endfacet
  facet normal -5.766790e-01  8.169709e-01  0.000000e+00
    outer loop
      vertex  -1.112472e+01  1.367412e+01  9.410242e+00
      vertex  -9.159143e+00  1.506157e+01  3.141024e+01
      vertex  -9.159143e+00  1.506157e+01  9.410242e+00
    endloop
  endfacet
  facet normal -4.600667e-01  8.878844e-01  0.000000e+00
    outer loop
      vertex  -9.159143e+00  1.506157e+01  9.410242e+00
      vertex  -9.159143e+00  1.506157e+01  3.141024e+01
      vertex  -7.022951e+00  1.616846e+01  3.141024e+01
    endloop
  endfacet
  facet normal -4.600667e-01  8.878844e-01  0.000000e+00
    outer loop
      vertex  -9.159143e+00  1.506157e+01  9.410242e+00
      vertex  -7.022951e+00  1.616846e+01  3.141024e+01
      vertex  -7.022951e+00  1.616846e+01  9.410242e+00
    endloop
  endfacet
  facet normal -3.348762e-01  9.422622e-01  0.000000e+00
    outer loop
      vertex  -7.022951e+00  1.616846e+01  9.410242e+00
      vertex  -7.022951e+00  1.616846e+01  3.141024e+01
      vertex  -4.755934e+00  1.697415e+01  3.141024e+01
    endloop
  endfacet
  facet normal -3.348762e-01  9.422622e-01  0.000000e+00
    outer loop
      vertex  -7.022951e+00  1.616846e+01  9.410242e+00
      vertex  -4.755934e+00  1.697415e+01  3.141024e+01
      vertex  -4.755934e+00  1.697415e+01  9.410242e+00
    endloop
  endfacet
  facet normal -2.034555e-01  9.790841e-01  0.000000e+00
    outer loop
      vertex  -4.755934e+00  1.697415e+01  9.410242e+00
      vertex  -4.755934e+00  1.697415e+01  3.141024e+01
      vertex  -2.400324e+00  1.746365e+01  3.141024e+01
    endloop
  endfacet
  facet normal -2.034555e-01  9.790841e-01  0.000000e+00
    outer loop
      vertex  -4.755934e+00  1.697415e+01  9.410242e+00
      vertex  -2.400324e+00  1.746365e+01  3.141024e+01
      vertex  -2.400324e+00  1.746365e+01  9.410242e+00
    endloop
  endfacet
  facet normal -6.824391e-02  9.976687e-01  0.000000e+00
    outer loop
      vertex  -2.400324e+00  1.746365e+01  9.410242e+00
      vertex  -2.400324e+00  1.746365e+01  3.141024e+01
      vertex   0.000000e+00  1.762784e+01  3.141024e+01
    endloop
  endfacet
  facet normal -6.824391e-02  9.976687e-01  0.000000e+00
    outer loop
      vertex  -2.400324e+00  1.746365e+01  9.410242e+00
      vertex   0.000000e+00  1.762784e+01  3.141024e+01
      vertex   0.000000e+00  1.762784e+01  9.410242e+00
    endloop
  endfacet
  facet normal  6.824391e-02  9.976687e-01 -0.000000e+00
    outer loop
      vertex   0.000000e+00  1.762784e+01  9.410242e+00
      vertex   0.000000e+00  1.762784e+01  3.141024e+01
      vertex   2.400324e+00  1.746365e+01  3.141024e+01
    endloop
  endfacet
  facet normal -6.589877e-05 -2.862397e-05  1.000000e+00
    outer loop
      vertex  -1.661003e+01 -5.903204e+00  9.410242e+00
      vertex  -2.383732e+01 -1.205342e+01  9.409590e+00
      vertex  -1.565150e+01 -8.109953e+00  9.410242e+00
    endloop
  endfacet
  facet normal -6.163256e-05 -3.747973e-05  1.000000e+00
    outer loop
      vertex  -1.565150e+01 -8.109953e+00  9.410242e+00
      vertex  -2.383732e+01 -1.205342e+01  9.409590e+00
      vertex  -1.440141e+01 -1.016563e+01  9.410242e+00
    endloop
  endfacet
  facet normal -5.623210e-05 -6.447337e-05  1.000000e+00
    outer loop
      vertex  -1.440141e+01 -1.016563e+01  9.410242e+00
      vertex  -2.383732e+01 -1.205342e+01  9.409590e+00
      vertex  -1.969127e+01 -1.802140e+01  9.409438e+00
    endloop
  endfacet
  facet normal -6.882540e-05 -5.599339e-05  1.000000e+00
    outer loop
      vertex  -1.440141e+01 -1.016563e+01  9.410242e+00
      vertex  -1.969127e+01 -1.802140e+01  9.409438e+00
      vertex  -1.288306e+01 -1.203194e+01  9.410242e+00
    endloop
  endfacet
  facet normal -6.080683e-05 -6.510807e-05  1.000000e+00
    outer loop
      vertex  -1.288306e+01 -1.203194e+01  9.410242e+00
      vertex  -1.969127e+01 -1.802140e+01  9.409438e+00
      vertex  -1.112472e+01 -1.367412e+01  9.410242e+00
    endloop
  endfacet
  facet normal -4.416468e-05 -6.070336e-06  1.000000e+00
    outer loop
      vertex   1.758675e+01  1.202966e+00  9.410242e+00
      vertex   2.617298e+01  5.188914e+00  9.410645e+00
      vertex   1.725914e+01  3.586490e+00  9.410242e+00
    endloop
  endfacet
  facet normal -4.308576e-05 -1.207203e-05  1.000000e+00
    outer loop
      vertex   1.725914e+01  3.586490e+00  9.410242e+00
      vertex   2.617298e+01  5.188914e+00  9.410645e+00
      vertex   1.661003e+01  5.903204e+00  9.410242e+00
    endloop
  endfacet
  facet normal -2.926394e-05  1.729754e-04  1.000000e+00
    outer loop
      vertex   1.661003e+01  5.903204e+00  9.410242e+00
      vertex   2.617298e+01  5.188914e+00  9.410645e+00
      vertex   2.367661e+01  1.236949e+01  9.409330e+00
    endloop
  endfacet
  facet normal  9.232257e-05  4.010148e-05  1.000000e+00
    outer loop
      vertex   1.661003e+01  5.903204e+00  9.410242e+00
      vertex   2.367661e+01  1.236949e+01  9.409330e+00
      vertex   1.565150e+01  8.109953e+00  9.410242e+00
    endloop
  endfacet
  facet normal  8.588583e-05  5.222852e-05  1.000000e+00
    outer loop
      vertex   1.565150e+01  8.109953e+00  9.410242e+00
      vertex   2.367661e+01  1.236949e+01  9.409330e+00
      vertex   1.440141e+01  1.016563e+01  9.410242e+00
    endloop
  endfacet
  facet normal -1.251756e-04  6.173402e-05  1.000000e+00
    outer loop
      vertex  -1.112472e+01 -1.367412e+01  9.410242e+00
      vertex  -1.969127e+01 -1.802140e+01  9.409438e+00
      vertex  -1.517276e+01 -2.188217e+01  9.410242e+00
    endloop
  endfacet
  facet normal  0.000000e+00  0.000000e+00  1.000000e+00
    outer loop
      vertex  -1.112472e+01 -1.367412e+01  9.410242e+00
      vertex  -1.517276e+01 -2.188217e+01  9.410242e+00
      vertex  -9.159143e+00 -1.506157e+01  9.410242e+00
    endloop
  endfacet
  facet normal  6.388929e-05 -5.633019e-05  1.000000e+00
    outer loop
      vertex  -9.159143e+00 -1.506157e+01  9.410242e+00
      vertex  -1.517276e+01 -2.188217e+01  9.410242e+00
      vertex  -1.105497e+01 -2.430550e+01  9.409842e+00
    endloop
  endfacet
  facet normal -2.024703e-05 -3.907482e-05  1.000000e+00
    outer loop
      vertex  -9.159143e+00 -1.506157e+01  9.410242e+00
      vertex  -1.105497e+01 -2.430550e+01  9.409842e+00
      vertex  -7.022951e+00 -1.616846e+01  9.410242e+00
    endloop
  endfacet
  facet normal -1.483935e-05 -4.175440e-05  1.000000e+00
    outer loop
      vertex  -7.022951e+00 -1.616846e+01  9.410242e+00
      vertex  -1.105497e+01 -2.430550e+01  9.409842e+00
      vertex  -4.755934e+00 -1.697415e+01  9.410242e+00
    endloop
  endfacet
  facet normal -6.862529e-05  4.458016e-06  1.000000e+00
    outer loop
      vertex  -4.755934e+00 -1.697415e+01  9.410242e+00
      vertex  -1.105497e+01 -2.430550e+01  9.409842e+00
      vertex  -5.350150e+00 -2.612133e+01  9.410242e+00
    endloop
  endfacet
  facet normal  0.000000e+00  0.000000e+00  1.000000e+00
    outer loop
      vertex  -4.755934e+00 -1.697415e+01  9.410242e+00
      vertex  -5.350150e+00 -2.612133e+01  9.410242e+00
      vertex  -2.291957e+00 -1.748293e+01  9.410242e+00
    endloop
  endfacet
  facet normal  9.313064e-05  2.173794e-05  1.000000e+00
    outer loop
      vertex   1.440141e+01  1.016563e+01  9.410242e+00
      vertex   2.367661e+01  1.236949e+01  9.409330e+00
      vertex   1.975186e+01  1.799688e+01  9.409574e+00
    endloop
  endfacet
  facet normal  5.703358e-05  4.640007e-05  1.000000e+00
    outer loop
      vertex   1.440141e+01  1.016563e+01  9.410242e+00
      vertex   1.975186e+01  1.799688e+01  9.409574e+00
      vertex   1.288306e+01  1.203194e+01  9.410242e+00
    endloop
  endfacet
  facet normal  5.043318e-05  5.400062e-05  1.000000e+00
    outer loop
      vertex   1.288306e+01  1.203194e+01  9.410242e+00
      vertex   1.975186e+01  1.799688e+01  9.409574e+00
      vertex   1.112472e+01  1.367412e+01  9.410242e+00
    endloop
  endfacet
  facet normal  1.835629e-05  1.180180e-04  1.000000e+00
    outer loop
      vertex   1.112472e+01  1.367412e+01  9.410242e+00
      vertex   1.975186e+01  1.799688e+01  9.409574e+00
      vertex   1.393512e+01  2.273996e+01  9.409121e+00
    endloop
  endfacet
  facet normal  7.164519e-05  1.014985e-04  1.000000e+00
    outer loop
      vertex   1.112472e+01  1.367412e+01  9.410242e+00
      vertex   1.393512e+01  2.273996e+01  9.409121e+00
      vertex   9.159143e+00  1.506157e+01  9.410242e+00
    endloop
  endfacet
  facet normal  5.602261e-05  1.112158e-04  1.000000e+00
    outer loop
      vertex   9.159143e+00  1.506157e+01  9.410242e+00
      vertex   1.393512e+01  2.273996e+01  9.409121e+00
      vertex   6.294823e+00  1.650441e+01  9.410242e+00
    endloop
  endfacet
  facet normal  6.582254e-05 -2.859086e-05  1.000000e+00
    outer loop
      vertex   1.565150e+01 -8.109953e+00  9.410242e+00
      vertex   2.501258e+01 -9.374093e+00  9.409590e+00
      vertex   1.661003e+01 -5.903204e+00  9.410242e+00
    endloop
  endfacet
  facet normal  6.957971e-05 -1.949526e-05  1.000000e+00
    outer loop
      vertex   1.661003e+01 -5.903204e+00  9.410242e+00
      vertex   2.501258e+01 -9.374093e+00  9.409590e+00
      vertex   1.725914e+01 -3.586490e+00  9.410242e+00
    endloop
  endfacet
  facet normal  1.140814e-04  4.012209e-05  1.000000e+00
    outer loop
      vertex   1.725914e+01 -3.586490e+00  9.410242e+00
      vertex   2.501258e+01 -9.374093e+00  9.409590e+00
      vertex   2.658200e+01 -2.165777e+00  9.409122e+00
    endloop
  endfacet
  facet normal  1.227671e-04 -1.687406e-05  1.000000e+00
    outer loop
      vertex   1.725914e+01 -3.586490e+00  9.410242e+00
      vertex   2.658200e+01 -2.165777e+00  9.409122e+00
      vertex   1.758675e+01 -1.202966e+00  9.410242e+00
    endloop
  endfacet
  facet normal  1.245732e-04 -0.000000e+00  1.000000e+00
    outer loop
      vertex   1.758675e+01 -1.202966e+00  9.410242e+00
      vertex   2.658200e+01 -2.165777e+00  9.409122e+00
      vertex   1.758675e+01  1.202966e+00  9.410242e+00
    endloop
  endfacet
  facet normal  4.797139e-05 -2.045430e-04  1.000000e+00
    outer loop
      vertex   1.758675e+01  1.202966e+00  9.410242e+00
      vertex   2.658200e+01 -2.165777e+00  9.409122e+00
      vertex   2.617298e+01  5.188914e+00  9.410645e+00
    endloop
  endfacet
  facet normal  1.175223e-04 -4.160558e-05  1.000000e+00
    outer loop
      vertex  -2.291957e+00 -1.748293e+01  9.410242e+00
      vertex  -5.350150e+00 -2.612133e+01  9.410242e+00
      vertex  -8.526702e-03 -2.671148e+01  9.409590e+00
    endloop
  endfacet
  facet normal  2.900726e-07 -7.061246e-05  1.000000e+00
    outer loop
      vertex  -2.291957e+00 -1.748293e+01  9.410242e+00
      vertex  -8.526702e-03 -2.671148e+01  9.409590e+00
      vertex   2.400324e+00 -1.746365e+01  9.410242e+00
    endloop
  endfacet
  facet normal -5.649771e-05 -5.582052e-05  1.000000e+00
    outer loop
      vertex   2.400324e+00 -1.746365e+01  9.410242e+00
      vertex  -8.526702e-03 -2.671148e+01  9.409590e+00
      vertex   6.153037e+00 -2.597725e+01  9.409979e+00
    endloop
  endfacet
  facet normal  5.885493e-06 -2.832262e-05  1.000000e+00
    outer loop
      vertex   2.400324e+00 -1.746365e+01  9.410242e+00
      vertex   6.153037e+00 -2.597725e+01  9.409979e+00
      vertex   4.755934e+00 -1.697415e+01  9.410242e+00
    endloop
  endfacet
  facet normal  9.847252e-06 -2.770783e-05  1.000000e+00
    outer loop
      vertex   4.755934e+00 -1.697415e+01  9.410242e+00
      vertex   6.153037e+00 -2.597725e+01  9.409979e+00
      vertex   7.022951e+00 -1.616846e+01  9.410242e+00
    endloop
  endfacet
  facet normal  3.746328e-05 -3.015702e-05  1.000000e+00
    outer loop
      vertex   7.022951e+00 -1.616846e+01  9.410242e+00
      vertex   6.153037e+00 -2.597725e+01  9.409979e+00
      vertex   1.314370e+01 -2.330143e+01  9.409798e+00
    endloop
  endfacet
  facet normal  2.234723e-05 -4.312800e-05  1.000000e+00
    outer loop
      vertex   7.022951e+00 -1.616846e+01  9.410242e+00
      vertex   1.314370e+01 -2.330143e+01  9.409798e+00
      vertex   9.159143e+00 -1.506157e+01  9.410242e+00
    endloop
  endfacet
  facet normal -5.048819e-05  6.939489e-06  1.000000e+00
    outer loop
      vertex  -1.725914e+01  3.586490e+00  9.410242e+00
      vertex  -2.658168e+01  2.550059e+00  9.409779e+00
      vertex  -1.758675e+01  1.202966e+00  9.410242e+00
    endloop
  endfacet
  facet normal -5.152746e-05  0.000000e+00  1.000000e+00
    outer loop
      vertex  -1.758675e+01  1.202966e+00  9.410242e+00
      vertex  -2.658168e+01  2.550059e+00  9.409779e+00
      vertex  -1.758675e+01 -1.202966e+00  9.410242e+00
    endloop
  endfacet
  facet normal -5.770935e-05 -1.481620e-05  1.000000e+00
    outer loop
      vertex  -1.758675e+01 -1.202966e+00  9.410242e+00
      vertex  -2.658168e+01  2.550059e+00  9.409779e+00
      vertex  -2.603228e+01 -5.897819e+00  9.409685e+00
    endloop
  endfacet
  facet normal -6.126460e-05 -8.420680e-06  1.000000e+00
    outer loop
      vertex  -1.758675e+01 -1.202966e+00  9.410242e+00
      vertex  -2.603228e+01 -5.897819e+00  9.409685e+00
      vertex  -1.725914e+01 -3.586490e+00  9.410242e+00
    endloop
  endfacet
  facet normal -5.911911e-05 -1.656434e-05  1.000000e+00
    outer loop
      vertex  -1.725914e+01 -3.586490e+00  9.410242e+00
      vertex  -2.603228e+01 -5.897819e+00  9.409685e+00
      vertex  -1.661003e+01 -5.903204e+00  9.410242e+00
    endloop
  endfacet
  facet normal -5.913054e-05 -3.657749e-05  1.000000e+00
    outer loop
      vertex  -1.661003e+01 -5.903204e+00  9.410242e+00
      vertex  -2.603228e+01 -5.897819e+00  9.409685e+00
      vertex  -2.383732e+01 -1.205342e+01  9.409590e+00
    endloop
  endfacet
  facet normal  3.454053e-05 -2.810069e-05  1.000000e+00
    outer loop
      vertex  -1.288306e+01  1.203194e+01  9.410242e+00
      vertex  -2.154409e+01  1.574173e+01  9.410645e+00
      vertex  -1.440141e+01  1.016563e+01  9.410242e+00
    endloop
  endfacet
  facet normal  3.829692e-05 -2.328896e-05  1.000000e+00
    outer loop
      vertex  -1.440141e+01  1.016563e+01  9.410242e+00
      vertex  -2.154409e+01  1.574173e+01  9.410645e+00
      vertex  -1.565150e+01  8.109953e+00  9.410242e+00
    endloop
  endfacet
  facet normal -1.096340e-04 -1.375083e-04  1.000000e+00
    outer loop
      vertex  -1.565150e+01  8.109953e+00  9.410242e+00
      vertex  -2.154409e+01  1.574173e+01  9.410645e+00
      vertex  -2.513626e+01  9.041821e+00  9.409330e+00
    endloop
  endfacet
  facet normal -9.218969e-05  4.004376e-05  1.000000e+00
    outer loop
      vertex  -1.565150e+01  8.109953e+00  9.410242e+00
      vertex  -2.513626e+01  9.041821e+00  9.409330e+00
      vertex  -1.661003e+01  5.903204e+00  9.410242e+00
    endloop
  endfacet
  facet normal -9.693267e-05  2.715918e-05  1.000000e+00
    outer loop
      vertex  -1.661003e+01  5.903204e+00  9.410242e+00
      vertex  -2.513626e+01  9.041821e+00  9.409330e+00
      vertex  -1.725914e+01  3.586490e+00  9.410242e+00
    endloop
  endfacet
  facet normal -5.884954e-05  8.214857e-05  1.000000e+00
    outer loop
      vertex  -1.725914e+01  3.586490e+00  9.410242e+00
      vertex  -2.513626e+01  9.041821e+00  9.409330e+00
      vertex  -2.658168e+01  2.550059e+00  9.409779e+00
    endloop
  endfacet
  facet normal -2.456386e-05  6.911688e-05  1.000000e+00
    outer loop
      vertex  -4.755934e+00  1.697415e+01  9.410242e+00
      vertex  -9.928490e+00  2.480824e+01  9.409574e+00
      vertex  -7.022951e+00  1.616846e+01  9.410242e+00
    endloop
  endfacet
  facet normal -3.414420e-05  6.589502e-05  1.000000e+00
    outer loop
      vertex  -7.022951e+00  1.616846e+01  9.410242e+00
      vertex  -9.928490e+00  2.480824e+01  9.409574e+00
      vertex  -9.159143e+00  1.506157e+01  9.410242e+00
    endloop
  endfacet
  facet normal -1.048118e-04  6.031692e-05  1.000000e+00
    outer loop
      vertex  -9.159143e+00  1.506157e+01  9.410242e+00
      vertex  -9.928490e+00  2.480824e+01  9.409574e+00
      vertex  -1.641012e+01  2.102384e+01  9.409122e+00
    endloop
  endfacet
  facet normal -7.132382e-05  1.010432e-04  1.000000e+00
    outer loop
      vertex  -9.159143e+00  1.506157e+01  9.410242e+00
      vertex  -1.641012e+01  2.102384e+01  9.409122e+00
      vertex  -1.112472e+01  1.367412e+01  9.410242e+00
    endloop
  endfacet
  facet normal -8.510931e-05  9.112962e-05  1.000000e+00
    outer loop
      vertex  -1.112472e+01  1.367412e+01  9.410242e+00
      vertex  -1.641012e+01  2.102384e+01  9.409122e+00
      vertex  -1.288306e+01  1.203194e+01  9.410242e+00
    endloop
  endfacet
  facet normal  1.200859e-04  1.716172e-04  1.000000e+00
    outer loop
      vertex  -1.288306e+01  1.203194e+01  9.410242e+00
      vertex  -1.641012e+01  2.102384e+01  9.409122e+00
      vertex  -2.154409e+01  1.574173e+01  9.410645e+00
    endloop
  endfacet
  facet normal  1.991678e-04 -6.417726e-05  1.000000e+00
    outer loop
      vertex   6.294823e+00  1.650441e+01  9.410242e+00
      vertex   1.393512e+01  2.273996e+01  9.409121e+00
      vertex   7.252831e+00  2.567411e+01  9.410640e+00
    endloop
  endfacet
  facet normal -1.033859e-05 -4.228902e-05  1.000000e+00
    outer loop
      vertex   6.294823e+00  1.650441e+01  9.410242e+00
      vertex   7.252831e+00  2.567411e+01  9.410640e+00
      vertex   2.293250e+00  1.748269e+01  9.410242e+00
    endloop
  endfacet
  facet normal -1.012541e-04  1.275672e-05  1.000000e+00
    outer loop
      vertex   2.293250e+00  1.748269e+01  9.410242e+00
      vertex   7.252831e+00  2.567411e+01  9.410640e+00
      vertex   1.198113e+00  2.665755e+01  9.410014e+00
    endloop
  endfacet
  facet normal -1.007541e-07  2.483066e-05  1.000000e+00
    outer loop
      vertex   2.293250e+00  1.748269e+01  9.410242e+00
      vertex   1.198113e+00  2.665755e+01  9.410014e+00
      vertex  -2.400324e+00  1.746365e+01  9.410242e+00
    endloop
  endfacet
  facet normal  4.021657e-05  9.050711e-06  1.000000e+00
    outer loop
      vertex  -2.400324e+00  1.746365e+01  9.410242e+00
      vertex   1.198113e+00  2.665755e+01  9.410014e+00
      vertex  -4.387922e+00  2.629548e+01  9.410242e+00
    endloop
  endfacet
  facet normal  0.000000e+00  0.000000e+00  1.000000e+00
    outer loop
      vertex  -2.400324e+00  1.746365e+01  9.410242e+00
      vertex  -4.387922e+00  2.629548e+01  9.410242e+00
      vertex  -4.755934e+00  1.697415e+01  9.410242e+00
    endloop
  endfacet
  facet normal -1.219526e-04  4.814755e-06  1.000000e+00
    outer loop
      vertex  -4.755934e+00  1.697415e+01  9.410242e+00
      vertex  -4.387922e+00  2.629548e+01  9.410242e+00
      vertex  -9.928490e+00  2.480824e+01  9.409574e+00
    endloop
  endfacet
  facet normal  2.838278e-05 -4.020938e-05  1.000000e+00
    outer loop
      vertex   9.159143e+00 -1.506157e+01  9.410242e+00
      vertex   1.314370e+01 -2.330143e+01  9.409798e+00
      vertex   1.112472e+01 -1.367412e+01  9.410242e+00
    endloop
  endfacet
  facet normal  2.376572e-05 -4.117763e-05  1.000000e+00
    outer loop
      vertex   1.112472e+01 -1.367412e+01  9.410242e+00
      vertex   1.314370e+01 -2.330143e+01  9.409798e+00
      vertex   1.888607e+01 -1.887553e+01  9.409843e+00
    endloop
  endfacet
  facet normal  2.990362e-05 -3.201888e-05  1.000000e+00
    outer loop
      vertex   1.112472e+01 -1.367412e+01  9.410242e+00
      vertex   1.888607e+01 -1.887553e+01  9.409843e+00
      vertex   1.288306e+01 -1.203194e+01  9.410242e+00
    endloop
  endfacet
  facet normal  3.445230e-05 -2.802891e-05  1.000000e+00
    outer loop
      vertex   1.288306e+01 -1.203194e+01  9.410242e+00
      vertex   1.888607e+01 -1.887553e+01  9.409843e+00
      vertex   1.440141e+01 -1.016563e+01  9.410242e+00
    endloop
  endfacet
  facet normal -2.992513e-05 -6.117637e-05  1.000000e+00
    outer loop
      vertex   1.440141e+01 -1.016563e+01  9.410242e+00
      vertex   1.888607e+01 -1.887553e+01  9.409843e+00
      vertex   2.258691e+01 -1.416966e+01  9.410242e+00
    endloop
  endfacet
  facet normal -0.000000e+00  0.000000e+00  1.000000e+00
    outer loop
      vertex   1.440141e+01 -1.016563e+01  9.410242e+00
      vertex   2.258691e+01 -1.416966e+01  9.410242e+00
      vertex   1.565150e+01 -8.109953e+00  9.410242e+00
    endloop
  endfacet
  facet normal  8.242251e-05  9.433357e-05  1.000000e+00
    outer loop
      vertex   1.565150e+01 -8.109953e+00  9.410242e+00
      vertex   2.258691e+01 -1.416966e+01  9.410242e+00
      vertex   2.501258e+01 -9.374093e+00  9.409590e+00
    endloop
  endfacet
  facet normal  1.603244e-01  9.870643e-01 -2.429012e-04
    outer loop
      vertex   1.233634e+00  2.664982e+01  1.410194e+00
      vertex   1.198113e+00  2.665755e+01  9.410014e+00
      vertex   7.252831e+00  2.567411e+01  9.410640e+00
    endloop
  endfacet
  facet normal  1.879522e-01  9.819394e-01 -2.165388e-02
    outer loop
      vertex   1.233634e+00  2.664982e+01  1.410194e+00
      vertex   7.252831e+00  2.567411e+01  9.410640e+00
      vertex   9.045220e+00  2.515461e+01  1.410128e+00
    endloop
  endfacet
  facet normal  4.018608e-01  9.151893e-01  3.060338e-02
    outer loop
      vertex   9.045220e+00  2.515461e+01  1.410128e+00
      vertex   7.252831e+00  2.567411e+01  9.410640e+00
      vertex   1.393512e+01  2.273996e+01  9.409121e+00
    endloop
  endfacet
  facet normal  4.670605e-01  8.840284e-01 -1.866064e-02
    outer loop
      vertex   9.045220e+00  2.515461e+01  1.410128e+00
      vertex   1.393512e+01  2.273996e+01  9.409121e+00
      vertex   1.519059e+01  2.190781e+01  1.410243e+00
    endloop
  endfacet
  facet normal  6.318451e-01  7.748725e-01  1.855896e-02
    outer loop
      vertex   1.519059e+01  2.190781e+01  1.410243e+00
      vertex   1.393512e+01  2.273996e+01  9.409121e+00
      vertex   1.975186e+01  1.799688e+01  9.409574e+00
    endloop
  endfacet
  facet normal  6.567407e-01  7.540942e-01 -5.795279e-03
    outer loop
      vertex   1.519059e+01  2.190781e+01  1.410243e+00
      vertex   1.975186e+01  1.799688e+01  9.409574e+00
      vertex   1.961367e+01  1.805575e+01  1.410243e+00
    endloop
  endfacet
  facet normal  8.201771e-01  5.720229e-01 -9.958453e-03
    outer loop
      vertex   1.961367e+01  1.805575e+01  1.410243e+00
      vertex   1.975186e+01  1.799688e+01  9.409574e+00
      vertex   2.367661e+01  1.236949e+01  9.409330e+00
    endloop
  endfacet
  facet normal  8.176371e-01  5.757020e-01 -6.052967e-03
    outer loop
      vertex   1.961367e+01  1.805575e+01  1.410243e+00
      vertex   2.367661e+01  1.236949e+01  9.409330e+00
      vertex   2.388933e+01  1.198327e+01  1.410714e+00
    endloop
  endfacet
  facet normal  9.445055e-01  3.283649e-01  9.263850e-03
    outer loop
      vertex   2.388933e+01  1.198327e+01  1.410714e+00
      vertex   2.367661e+01  1.236949e+01  9.409330e+00
      vertex   2.617298e+01  5.188914e+00  9.410645e+00
    endloop
  endfacet
  facet normal  9.557655e-01  2.931612e-01 -2.384903e-02
    outer loop
      vertex   2.388933e+01  1.198327e+01  1.410714e+00
      vertex   2.617298e+01  5.188914e+00  9.410645e+00
      vertex   2.652321e+01  3.396257e+00  1.410144e+00
    endloop
  endfacet
  facet normal  9.979698e-01  5.549404e-02  3.125212e-02
    outer loop
      vertex   2.652321e+01  3.396257e+00  1.410144e+00
      vertex   2.617298e+01  5.188914e+00  9.410645e+00
      vertex   2.658200e+01 -2.165777e+00  9.409122e+00
    endloop
  endfacet
  facet normal  9.996853e-01 -1.654487e-02 -1.885224e-02
    outer loop
      vertex   2.652321e+01  3.396257e+00  1.410144e+00
      vertex   2.658200e+01 -2.165777e+00  9.409122e+00
      vertex   2.640640e+01 -3.661705e+00  1.410243e+00
    endloop
  endfacet
  facet normal  9.769450e-01 -2.127025e-01  1.833183e-02
    outer loop
      vertex   2.640640e+01 -3.661705e+00  1.410243e+00
      vertex   2.658200e+01 -2.165777e+00  9.409122e+00
      vertex   2.501258e+01 -9.374093e+00  9.409590e+00
    endloop
  endfacet
  facet normal  9.693803e-01 -2.454812e-01 -6.393813e-03
    outer loop
      vertex   2.640640e+01 -3.661705e+00  1.410243e+00
      vertex   2.501258e+01 -9.374093e+00  9.409590e+00
      vertex   2.496649e+01 -9.347758e+00  1.410243e+00
    endloop
  endfacet
  facet normal  8.923219e-01 -4.513510e-01 -6.627542e-03
    outer loop
      vertex   2.496649e+01 -9.347758e+00  1.410243e+00
      vertex   2.501258e+01 -9.374093e+00  9.409590e+00
      vertex   2.258691e+01 -1.416966e+01  9.410242e+00
    endloop
  endfacet
  facet normal  8.922321e-01 -4.515266e-01 -6.760118e-03
    outer loop
      vertex   2.496649e+01 -9.347758e+00  1.410243e+00
      vertex   2.258691e+01 -1.416966e+01  9.410242e+00
      vertex   2.231802e+01 -1.458123e+01  1.410243e+00
    endloop
  endfacet
  facet normal  7.860328e-01 -6.181613e-01  5.382061e-03
    outer loop
      vertex   2.231802e+01 -1.458123e+01  1.410243e+00
      vertex   2.258691e+01 -1.416966e+01  9.410242e+00
      vertex   1.888607e+01 -1.887553e+01  9.409843e+00
    endloop
  endfacet
  facet normal  7.718762e-01 -6.356925e-01 -1.010233e-02
    outer loop
      vertex   2.231802e+01 -1.458123e+01  1.410243e+00
      vertex   1.888607e+01 -1.887553e+01  9.409843e+00
      vertex   1.858929e+01 -1.910876e+01  1.410243e+00
    endloop
  endfacet
  facet normal  6.104632e-01 -7.920445e-01  4.445599e-04
    outer loop
      vertex   1.858929e+01 -1.910876e+01  1.410243e+00
      vertex   1.888607e+01 -1.887553e+01  9.409843e+00
      vertex   1.314370e+01 -2.330143e+01  9.409798e+00
    endloop
  endfacet
  facet normal  6.142068e-01 -7.891322e-01  4.519357e-03
    outer loop
      vertex   1.858929e+01 -1.910876e+01  1.410243e+00
      vertex   1.314370e+01 -2.330143e+01  9.409798e+00
      vertex   1.396066e+01 -2.271137e+01  1.410243e+00
    endloop
  endfacet
  facet normal  4.070458e-01 -9.130440e-01 -2.577715e-02
    outer loop
      vertex   1.396066e+01 -2.271137e+01  1.410243e+00
      vertex   1.314370e+01 -2.330143e+01  9.409798e+00
      vertex   6.973110e+00 -2.582650e+01  1.410052e+00
    endloop
  endfacet
  facet normal  3.574141e-01 -9.337519e-01  1.904243e-02
    outer loop
      vertex   6.973110e+00 -2.582650e+01  1.410052e+00
      vertex   1.314370e+01 -2.330143e+01  9.409798e+00
      vertex   6.153037e+00 -2.597725e+01  9.409979e+00
    endloop
  endfacet
  facet normal  1.183230e-01 -9.929534e-01 -6.582445e-03
    outer loop
      vertex   6.973110e+00 -2.582650e+01  1.410052e+00
      vertex   6.153037e+00 -2.597725e+01  9.409979e+00
      vertex  -8.526702e-03 -2.671148e+01  9.409590e+00
    endloop
  endfacet
  facet normal  1.185541e-01 -9.929271e-01 -6.377846e-03
    outer loop
      vertex   6.973110e+00 -2.582650e+01  1.410052e+00
      vertex  -8.526702e-03 -2.671148e+01  9.409590e+00
      vertex  -1.181970e-05 -2.665908e+01  1.410243e+00
    endloop
  endfacet
  facet normal -1.098118e-01 -9.939303e-01 -6.627501e-03
    outer loop
      vertex  -1.181970e-05 -2.665908e+01  1.410243e+00
      vertex  -8.526702e-03 -2.671148e+01  9.409590e+00
      vertex  -5.350150e+00 -2.612133e+01  9.410242e+00
    endloop
  endfacet
  facet normal -1.100072e-01 -9.939078e-01 -6.759736e-03
    outer loop
      vertex  -1.181970e-05 -2.665908e+01  1.410243e+00
      vertex  -5.350150e+00 -2.612133e+01  9.410242e+00
      vertex  -5.829855e+00 -2.601382e+01  1.410243e+00
    endloop
  endfacet
  facet normal -3.033000e-01 -9.528800e-01  5.382041e-03
    outer loop
      vertex  -5.829855e+00 -2.601382e+01  1.410243e+00
      vertex  -5.350150e+00 -2.612133e+01  9.410242e+00
      vertex  -1.105497e+01 -2.430550e+01  9.409842e+00
    endloop
  endfacet
  facet normal -3.246820e-01 -9.457693e-01 -1.010258e-02
    outer loop
      vertex  -5.829855e+00 -2.601382e+01  1.410243e+00
      vertex  -1.105497e+01 -2.430550e+01  9.409842e+00
      vertex  -1.137743e+01 -2.410934e+01  1.410243e+00
    endloop
  endfacet
  facet normal -5.071905e-01 -8.618338e-01 -6.874375e-04
    outer loop
      vertex  -1.137743e+01 -2.410934e+01  1.410243e+00
      vertex  -1.105497e+01 -2.430550e+01  9.409842e+00
      vertex  -1.517276e+01 -2.188217e+01  9.410242e+00
    endloop
  endfacet
  facet normal -5.236389e-01 -8.518658e-01 -1.126588e-02
    outer loop
      vertex  -1.137743e+01 -2.410934e+01  1.410243e+00
      vertex  -1.517276e+01 -2.188217e+01  9.410242e+00
      vertex  -1.637434e+01 -2.103777e+01  1.410243e+00
    endloop
  endfacet
  facet normal -6.495084e-01 -7.601572e-01  1.731924e-02
    outer loop
      vertex  -1.637434e+01 -2.103777e+01  1.410243e+00
      vertex  -1.517276e+01 -2.188217e+01  9.410242e+00
      vertex  -1.969127e+01 -1.802140e+01  9.409438e+00
    endloop
  endfacet
  facet normal -6.971731e-01 -7.166551e-01 -1.884923e-02
    outer loop
      vertex  -1.637434e+01 -2.103777e+01  1.410243e+00
      vertex  -1.969127e+01 -1.802140e+01  9.409438e+00
      vertex  -2.057862e+01 -1.694777e+01  1.410243e+00
    endloop
  endfacet
  facet normal -8.211783e-01 -5.704869e-01  1.452501e-02
    outer loop
      vertex  -2.057862e+01 -1.694777e+01  1.410243e+00
      vertex  -1.969127e+01 -1.802140e+01  9.409438e+00
      vertex  -2.383732e+01 -1.205342e+01  9.409590e+00
    endloop
  endfacet
  facet normal -8.371518e-01 -5.469332e-01 -6.393352e-03
    outer loop
      vertex  -2.057862e+01 -1.694777e+01  1.410243e+00
      vertex  -2.383732e+01 -1.205342e+01  9.409590e+00
      vertex  -2.378672e+01 -1.203736e+01  1.410243e+00
    endloop
  endfacet
  facet normal -9.418893e-01 -3.358578e-01 -6.632147e-03
    outer loop
      vertex  -2.378672e+01 -1.203736e+01  1.410243e+00
      vertex  -2.383732e+01 -1.205342e+01  9.409590e+00
      vertex  -2.603228e+01 -5.897819e+00  9.409685e+00
    endloop
  endfacet
  facet normal -9.364943e-01 -3.506278e-01  6.218235e-03
    outer loop
      vertex  -2.378672e+01 -1.203736e+01  1.410243e+00
      vertex  -2.603228e+01 -5.897819e+00  9.409685e+00
      vertex  -2.584332e+01 -6.544388e+00  1.410243e+00
    endloop
  endfacet
  facet normal -9.932951e-01 -1.147327e-01 -1.419016e-02
    outer loop
      vertex  -2.584332e+01 -6.544388e+00  1.410243e+00
      vertex  -2.603228e+01 -5.897819e+00  9.409685e+00
      vertex  -2.672264e+01  1.068311e+00  1.410318e+00
    endloop
  endfacet
  facet normal -9.974549e-01 -6.486848e-02  2.959232e-02
    outer loop
      vertex  -2.672264e+01  1.068311e+00  1.410318e+00
      vertex  -2.603228e+01 -5.897819e+00  9.409685e+00
      vertex  -2.658168e+01  2.550059e+00  9.409779e+00
    endloop
  endfacet
  facet normal -9.758388e-01  2.172727e-01 -2.304989e-02
    outer loop
      vertex  -2.672264e+01  1.068311e+00  1.410318e+00
      vertex  -2.658168e+01  2.550059e+00  9.409779e+00
      vertex  -2.513626e+01  9.041821e+00  9.409330e+00
    endloop
  endfacet
  facet normal -9.794638e-01  2.015116e-01 -6.620173e-03
    outer loop
      vertex  -2.672264e+01  1.068311e+00  1.410318e+00
      vertex  -2.513626e+01  9.041821e+00  9.409330e+00
      vertex  -2.499618e+01  9.459908e+00  1.410822e+00
    endloop
  endfacet
  facet normal -8.812823e-01  4.724994e-01  9.263972e-03
    outer loop
      vertex  -2.499618e+01  9.459908e+00  1.410822e+00
      vertex  -2.513626e+01  9.041821e+00  9.409330e+00
      vertex  -2.154409e+01  1.574173e+01  9.410645e+00
    endloop
  endfacet
  facet normal -8.694500e-01  4.938600e-01 -1.261525e-02
    outer loop
      vertex  -2.499618e+01  9.459908e+00  1.410822e+00
      vertex  -2.154409e+01  1.574173e+01  9.410645e+00
      vertex  -2.085679e+01  1.674738e+01  1.410160e+00
    endloop
  endfacet
  facet normal -7.168444e-01  6.967483e-01  2.599753e-02
    outer loop
      vertex  -2.085679e+01  1.674738e+01  1.410160e+00
      vertex  -2.154409e+01  1.574173e+01  9.410645e+00
      vertex  -1.641012e+01  2.102384e+01  9.409122e+00
    endloop
  endfacet
  facet normal -6.731923e-01  7.391707e-01 -2.094910e-02
    outer loop
      vertex  -2.085679e+01  1.674738e+01  1.410160e+00
      vertex  -1.641012e+01  2.102384e+01  9.409122e+00
      vertex  -1.519059e+01  2.190781e+01  1.410243e+00
    endloop
  endfacet
  facet normal -5.041283e-01  8.634294e-01  1.855909e-02
    outer loop
      vertex  -1.519059e+01  2.190781e+01  1.410243e+00
      vertex  -1.641012e+01  2.102384e+01  9.409122e+00
      vertex  -9.928490e+00  2.480824e+01  9.409574e+00
    endloop
  endfacet
  facet normal -4.759402e-01  8.794585e-01 -5.795392e-03
    outer loop
      vertex  -1.519059e+01  2.190781e+01  1.410243e+00
      vertex  -9.928490e+00  2.480824e+01  9.409574e+00
      vertex  -1.003207e+01  2.469947e+01  1.410243e+00
    endloop
  endfacet
  facet normal -2.592373e-01  9.657642e-01 -9.774913e-03
    outer loop
      vertex  -1.003207e+01  2.469947e+01  1.410243e+00
      vertex  -9.928490e+00  2.480824e+01  9.409574e+00
      vertex  -4.387922e+00  2.629548e+01  9.410242e+00
    endloop
  endfacet
  facet normal -2.634167e-01  9.646595e-01 -6.605871e-03
    outer loop
      vertex  -1.003207e+01  2.469947e+01  1.410243e+00
      vertex  -4.387922e+00  2.629548e+01  9.410242e+00
      vertex  -3.854889e+00  2.638626e+01  1.410243e+00
    endloop
  endfacet
  facet normal -6.467941e-02  9.978815e-01  7.012768e-03
    outer loop
      vertex  -3.854889e+00  2.638626e+01  1.410243e+00
      vertex  -4.387922e+00  2.629548e+01  9.410242e+00
      vertex   1.198113e+00  2.665755e+01  9.410014e+00
    endloop
  endfacet
  facet normal -5.172588e-02  9.986606e-01 -1.195665e-03
    outer loop
      vertex  -3.854889e+00  2.638626e+01  1.410243e+00
      vertex   1.198113e+00  2.665755e+01  9.410014e+00
      vertex   1.233634e+00  2.664982e+01  1.410194e+00
    endloop
  endfacet
  facet normal -1.038835e-05  1.376493e-05 -1.000000e+00
    outer loop
      vertex  -1.154774e+00  1.481860e+01  1.410056e+00
      vertex  -3.854889e+00  2.638626e+01  1.410243e+00
      vertex   1.233634e+00  2.664982e+01  1.410194e+00
    endloop
  endfacet
  facet normal  3.286846e-05  2.048234e-05 -1.000000e+00
    outer loop
      vertex   1.099631e+01  9.701051e+00  1.410243e+00
      vertex   2.388933e+01  1.198327e+01  1.410714e+00
      vertex   1.370610e+01  5.352600e+00  1.410243e+00
    endloop
  endfacet
  facet normal -6.933439e-06  1.281184e-05 -1.000000e+00
    outer loop
      vertex  -9.547418e+00  1.134910e+01  1.410069e+00
      vertex  -1.519059e+01  2.190781e+01  1.410243e+00
      vertex  -1.003207e+01  2.469947e+01  1.410243e+00
    endloop
  endfacet
  facet normal -6.831940e-06  1.281553e-05 -1.000000e+00
    outer loop
      vertex  -9.547418e+00  1.134910e+01  1.410069e+00
      vertex  -1.003207e+01  2.469947e+01  1.410243e+00
      vertex  -1.154774e+00  1.481860e+01  1.410056e+00
    endloop
  endfacet
  facet normal -4.155994e-06  1.521968e-05 -1.000000e+00
    outer loop
      vertex  -1.154774e+00  1.481860e+01  1.410056e+00
      vertex  -1.003207e+01  2.469947e+01  1.410243e+00
      vertex  -3.854889e+00  2.638626e+01  1.410243e+00
    endloop
  endfacet
  facet normal -0.000000e+00  0.000000e+00 -1.000000e+00
    outer loop
      vertex  -8.309284e+00 -1.214345e+01  1.410243e+00
      vertex  -2.057862e+01 -1.694777e+01  1.410243e+00
      vertex  -1.275523e+01 -7.335634e+00  1.410243e+00
    endloop
  endfacet
  facet normal  0.000000e+00  0.000000e+00 -1.000000e+00
    outer loop
      vertex  -1.275523e+01 -7.335634e+00  1.410243e+00
      vertex  -2.057862e+01 -1.694777e+01  1.410243e+00
      vertex  -2.378672e+01 -1.203736e+01  1.410243e+00
    endloop
  endfacet
  facet normal  1.014137e-05  5.065292e-06 -1.000000e+00
    outer loop
      vertex   1.273044e+01 -7.378577e+00  1.410243e+00
      vertex   1.858929e+01 -1.910876e+01  1.410243e+00
      vertex   7.587718e+00 -1.277972e+01  1.410164e+00
    endloop
  endfacet
  facet normal  4.155757e-06 -5.339312e-06 -1.000000e+00
    outer loop
      vertex   7.587718e+00 -1.277972e+01  1.410164e+00
      vertex   1.858929e+01 -1.910876e+01  1.410243e+00
      vertex   1.396066e+01 -2.271137e+01  1.410243e+00
    endloop
  endfacet
  facet normal  0.000000e+00 -0.000000e+00 -1.000000e+00
    outer loop
      vertex   1.467118e+01 -1.124319e+00  1.410243e+00
      vertex   2.496649e+01 -9.347758e+00  1.410243e+00
      vertex   1.273044e+01 -7.378577e+00  1.410243e+00
    endloop
  endfacet
  facet normal  0.000000e+00  0.000000e+00 -1.000000e+00
    outer loop
      vertex   1.273044e+01 -7.378577e+00  1.410243e+00
      vertex   2.496649e+01 -9.347758e+00  1.410243e+00
      vertex   2.231802e+01 -1.458123e+01  1.410243e+00
    endloop
  endfacet
  facet normal  0.000000e+00  0.000000e+00 -1.000000e+00
    outer loop
      vertex   1.273044e+01 -7.378577e+00  1.410243e+00
      vertex   2.231802e+01 -1.458123e+01  1.410243e+00
      vertex   1.858929e+01 -1.910876e+01  1.410243e+00
    endloop
  endfacet
  facet normal  2.543220e-06  6.705514e-05 -1.000000e+00
    outer loop
      vertex   2.388933e+01  1.198327e+01  1.410714e+00
      vertex   2.652321e+01  3.396257e+00  1.410144e+00
      vertex   1.370610e+01  5.352600e+00  1.410243e+00
    endloop
  endfacet
  facet normal -7.870760e-06 -1.172768e-06 -1.000000e+00
    outer loop
      vertex   1.370610e+01  5.352600e+00  1.410243e+00
      vertex   2.652321e+01  3.396257e+00  1.410144e+00
      vertex   1.467118e+01 -1.124319e+00  1.410243e+00
    endloop
  endfacet
  facet normal -3.009402e-06 -1.391826e-05 -1.000000e+00
    outer loop
      vertex   1.467118e+01 -1.124319e+00  1.410243e+00
      vertex   2.652321e+01  3.396257e+00  1.410144e+00
      vertex   2.640640e+01 -3.661705e+00  1.410243e+00
    endloop
  endfacet
  facet normal  0.000000e+00  0.000000e+00 -1.000000e+00
    outer loop
      vertex   1.467118e+01 -1.124319e+00  1.410243e+00
      vertex   2.640640e+01 -3.661705e+00  1.410243e+00
      vertex   2.496649e+01 -9.347758e+00  1.410243e+00
    endloop
  endfacet
  facet normal -2.093942e-05  5.369030e-06 -1.000000e+00
    outer loop
      vertex  -1.961463e+00 -1.474096e+01  1.410096e+00
      vertex  -1.137743e+01 -2.410934e+01  1.410243e+00
      vertex  -8.309284e+00 -1.214345e+01  1.410243e+00
    endloop
  endfacet
  facet normal  0.000000e+00  0.000000e+00 -1.000000e+00
    outer loop
      vertex  -8.309284e+00 -1.214345e+01  1.410243e+00
      vertex  -1.137743e+01 -2.410934e+01  1.410243e+00
      vertex  -1.637434e+01 -2.103777e+01  1.410243e+00
    endloop
  endfacet
  facet normal  0.000000e+00  0.000000e+00 -1.000000e+00
    outer loop
      vertex  -8.309284e+00 -1.214345e+01  1.410243e+00
      vertex  -1.637434e+01 -2.103777e+01  1.410243e+00
      vertex  -2.057862e+01 -1.694777e+01  1.410243e+00
    endloop
  endfacet
  facet normal -1.389225e-06 -1.255154e-05 -1.000000e+00
    outer loop
      vertex  -1.961463e+00 -1.474096e+01  1.410096e+00
      vertex  -1.181970e-05 -2.665908e+01  1.410243e+00
      vertex  -5.829855e+00 -2.601382e+01  1.410243e+00
    endloop
  endfacet
  facet normal -4.001226e-06 -1.165521e-05 -1.000000e+00
    outer loop
      vertex  -1.961463e+00 -1.474096e+01  1.410096e+00
      vertex  -5.829855e+00 -2.601382e+01  1.410243e+00
      vertex  -1.137743e+01 -2.410934e+01  1.410243e+00
    endloop
  endfacet
  facet normal  2.402645e-05  7.411320e-06 -1.000000e+00
    outer loop
      vertex   7.587718e+00 -1.277972e+01  1.410164e+00
      vertex   1.396066e+01 -2.271137e+01  1.410243e+00
      vertex   6.973110e+00 -2.582650e+01  1.410052e+00
    endloop
  endfacet
  facet normal  5.350445e-06  8.291108e-06 -1.000000e+00
    outer loop
      vertex   7.587718e+00 -1.277972e+01  1.410164e+00
      vertex   6.973110e+00 -2.582650e+01  1.410052e+00
      vertex  -1.961463e+00 -1.474096e+01  1.410096e+00
    endloop
  endfacet
  facet normal -2.541628e-05 -1.650585e-05 -1.000000e+00
    outer loop
      vertex  -1.961463e+00 -1.474096e+01  1.410096e+00
      vertex   6.973110e+00 -2.582650e+01  1.410052e+00
      vertex  -1.181970e-05 -2.665908e+01  1.410243e+00
    endloop
  endfacet
  facet normal  0.000000e+00  0.000000e+00 -1.000000e+00
    outer loop
      vertex   6.406561e+00  1.324626e+01  1.410243e+00
      vertex   1.519059e+01  2.190781e+01  1.410243e+00
      vertex   1.099631e+01  9.701051e+00  1.410243e+00
    endloop
  endfacet
  facet normal  0.000000e+00  0.000000e+00 -1.000000e+00
    outer loop
      vertex   1.099631e+01  9.701051e+00  1.410243e+00
      vertex   1.519059e+01  2.190781e+01  1.410243e+00
      vertex   1.961367e+01  1.805575e+01  1.410243e+00
    endloop
  endfacet
  facet normal  4.464531e-05 -4.604893e-05 -1.000000e+00
    outer loop
      vertex   1.099631e+01  9.701051e+00  1.410243e+00
      vertex   1.961367e+01  1.805575e+01  1.410243e+00
      vertex   2.388933e+01  1.198327e+01  1.410714e+00
    endloop
  endfacet
  facet normal -5.989591e-06  1.287694e-05 -1.000000e+00
    outer loop
      vertex  -1.154774e+00  1.481860e+01  1.410056e+00
      vertex   1.233634e+00  2.664982e+01  1.410194e+00
      vertex   9.045220e+00  2.515461e+01  1.410128e+00
    endloop
  endfacet
  facet normal  2.175260e-05 -1.450018e-05 -1.000000e+00
    outer loop
      vertex  -1.154774e+00  1.481860e+01  1.410056e+00
      vertex   9.045220e+00  2.515461e+01  1.410128e+00
      vertex   6.406561e+00  1.324626e+01  1.410243e+00
    endloop
  endfacet
  facet normal  1.221387e-05 -1.238658e-05 -1.000000e+00
    outer loop
      vertex   6.406561e+00  1.324626e+01  1.410243e+00
      vertex   9.045220e+00  2.515461e+01  1.410128e+00
      vertex   1.519059e+01  2.190781e+01  1.410243e+00
    endloop
  endfacet
  facet normal -1.655523e-05 -1.778977e-05 -1.000000e+00
    outer loop
      vertex  -1.368798e+01  5.398756e+00  1.410243e+00
      vertex  -2.085679e+01  1.674738e+01  1.410160e+00
      vertex  -9.547418e+00  1.134910e+01  1.410069e+00
    endloop
  endfacet
  facet normal -2.408823e-07  1.638873e-05 -1.000000e+00
    outer loop
      vertex  -9.547418e+00  1.134910e+01  1.410069e+00
      vertex  -2.085679e+01  1.674738e+01  1.410160e+00
      vertex  -1.519059e+01  2.190781e+01  1.410243e+00
    endloop
  endfacet
  facet normal -0.000000e+00  0.000000e+00 -1.000000e+00
    outer loop
      vertex  -1.275523e+01 -7.335634e+00  1.410243e+00
      vertex  -2.378672e+01 -1.203736e+01  1.410243e+00
      vertex  -2.584332e+01 -6.544388e+00  1.410243e+00
    endloop
  endfacet
  facet normal  0.000000e+00  0.000000e+00 -1.000000e+00
    outer loop
      vertex  -1.275523e+01 -7.335634e+00  1.410243e+00
      vertex  -2.584332e+01 -6.544388e+00  1.410243e+00
      vertex  -1.467488e+01 -1.074871e+00  1.410243e+00
    endloop
  endfacet
  facet normal -4.550912e-06  9.292698e-06 -1.000000e+00
    outer loop
      vertex  -1.467488e+01 -1.074871e+00  1.410243e+00
      vertex  -2.584332e+01 -6.544388e+00  1.410243e+00
      vertex  -2.672264e+01  1.068311e+00  1.410318e+00
    endloop
  endfacet
  facet normal -6.040189e-06  9.208240e-07 -1.000000e+00
    outer loop
      vertex  -1.467488e+01 -1.074871e+00  1.410243e+00
      vertex  -2.672264e+01  1.068311e+00  1.410318e+00
      vertex  -1.368798e+01  5.398756e+00  1.410243e+00
    endloop
  endfacet
  facet normal -2.759840e-05  6.581112e-05 -1.000000e+00
    outer loop
      vertex  -1.368798e+01  5.398756e+00  1.410243e+00
      vertex  -2.672264e+01  1.068311e+00  1.410318e+00
      vertex  -2.499618e+01  9.459908e+00  1.410822e+00
    endloop
  endfacet
  facet normal -6.967247e-05 -5.134338e-05 -1.000000e+00
    outer loop
      vertex  -1.368798e+01  5.398756e+00  1.410243e+00
      vertex  -2.499618e+01  9.459908e+00  1.410822e+00
      vertex  -2.085679e+01  1.674738e+01  1.410160e+00
    endloop
  endfacet
  facet normal -2.015858e-01 -9.694076e-01  1.400432e-01
    outer loop
      vertex   1.251688e+00  1.475158e+01  4.410154e+00
      vertex  -1.154774e+00  1.481860e+01  1.410056e+00
      vertex   6.406561e+00  1.324626e+01  1.410243e+00
    endloop
  endfacet
  facet normal -3.087150e-01 -9.496223e-01 -5.396936e-02
    outer loop
      vertex   1.251688e+00  1.475158e+01  4.410154e+00
      vertex   6.406561e+00  1.324626e+01  1.410243e+00
      vertex   7.010921e+00  1.287929e+01  4.410243e+00
    endloop
  endfacet
  facet normal -6.034965e-01 -7.970018e-01  2.408438e-02
    outer loop
      vertex   7.010921e+00  1.287929e+01  4.410243e+00
      vertex   6.406561e+00  1.324626e+01  1.410243e+00
      vertex   1.049568e+01  1.024060e+01  4.410243e+00
    endloop
  endfacet
  facet normal -6.107986e-01 -7.907603e-01  4.029066e-02
    outer loop
      vertex   1.049568e+01  1.024060e+01  4.410243e+00
      vertex   6.406561e+00  1.324626e+01  1.410243e+00
      vertex   1.099631e+01  9.701051e+00  1.410243e+00
    endloop
  endfacet
  facet normal -8.166076e-01 -5.762702e-01 -3.262991e-02
    outer loop
      vertex   1.049568e+01  1.024060e+01  4.410243e+00
      vertex   1.099631e+01  9.701051e+00  1.410243e+00
      vertex   1.355101e+01  5.911042e+00  4.410061e+00
    endloop
  endfacet
  facet normal -8.474379e-01 -5.280901e-01  5.449697e-02
    outer loop
      vertex   1.355101e+01  5.911042e+00  4.410061e+00
      vertex   1.099631e+01  9.701051e+00  1.410243e+00
      vertex   1.370610e+01  5.352600e+00  1.410243e+00
    endloop
  endfacet
  facet normal -9.844448e-01 -1.747316e-01 -1.836694e-02
    outer loop
      vertex   1.355101e+01  5.911042e+00  4.410061e+00
      vertex   1.370610e+01  5.352600e+00  1.410243e+00
      vertex   1.483729e+01 -1.335760e+00  4.408645e+00
    endloop
  endfacet
  facet normal -9.881070e-01 -1.472310e-01  4.435852e-02
    outer loop
      vertex   1.483729e+01 -1.335760e+00  4.408645e+00
      vertex   1.370610e+01  5.352600e+00  1.410243e+00
      vertex   1.467118e+01 -1.124319e+00  1.410243e+00
    endloop
  endfacet
  facet normal -9.524834e-01  2.955622e-01  7.360989e-02
    outer loop
      vertex   1.483729e+01 -1.335760e+00  4.408645e+00
      vertex   1.467118e+01 -1.124319e+00  1.410243e+00
      vertex   1.273044e+01 -7.378577e+00  1.410243e+00
    endloop
  endfacet
  facet normal -9.077057e-01  3.914543e-01 -1.511093e-01
    outer loop
      vertex   1.483729e+01 -1.335760e+00  4.408645e+00
      vertex   1.273044e+01 -7.378577e+00  1.410243e+00
      vertex   1.136215e+01 -9.392956e+00  4.411124e+00
    endloop
  endfacet
  facet normal -7.179307e-01  6.835787e-01  1.315127e-01
    outer loop
      vertex   1.136215e+01 -9.392956e+00  4.411124e+00
      vertex   1.273044e+01 -7.378577e+00  1.410243e+00
      vertex   7.587718e+00 -1.277972e+01  1.410164e+00
    endloop
  endfacet
  facet normal -5.284927e-01  8.110901e-01 -2.506558e-01
    outer loop
      vertex   1.136215e+01 -9.392956e+00  4.411124e+00
      vertex   7.587718e+00 -1.277972e+01  1.410164e+00
      vertex   4.089863e+00 -1.413171e+01  4.410296e+00
    endloop
  endfacet
  facet normal -1.970140e-01  9.592429e-01  2.025796e-01
    outer loop
      vertex   4.089863e+00 -1.413171e+01  4.410296e+00
      vertex   7.587718e+00 -1.277972e+01  1.410164e+00
      vertex  -1.961463e+00 -1.474096e+01  1.410096e+00
    endloop
  endfacet
  facet normal -1.997479e-02  9.868955e-01 -1.601194e-01
    outer loop
      vertex   4.089863e+00 -1.413171e+01  4.410296e+00
      vertex  -1.961463e+00 -1.474096e+01  1.410096e+00
      vertex  -3.825030e+00 -1.429195e+01  4.410069e+00
    endloop
  endfacet
  facet normal  3.769601e-01  9.212113e-01  9.628546e-02
    outer loop
      vertex  -3.825030e+00 -1.429195e+01  4.410069e+00
      vertex  -1.961463e+00 -1.474096e+01  1.410096e+00
      vertex  -8.309284e+00 -1.214345e+01  1.410243e+00
    endloop
  endfacet
  facet normal  4.589919e-01  8.869839e-01 -5.085287e-02
    outer loop
      vertex  -3.825030e+00 -1.429195e+01  4.410069e+00
      vertex  -8.309284e+00 -1.214345e+01  1.410243e+00
      vertex  -8.852180e+00 -1.169051e+01  4.410243e+00
    endloop
  endfacet
  facet normal  7.300576e-01  6.827686e-01  2.903251e-02
    outer loop
      vertex  -8.852180e+00 -1.169051e+01  4.410243e+00
      vertex  -8.309284e+00 -1.214345e+01  1.410243e+00
      vertex  -1.306387e+01 -7.187061e+00  4.408864e+00
    endloop
  endfacet
  facet normal  7.335524e-01  6.783404e-01  4.189313e-02
    outer loop
      vertex  -1.306387e+01 -7.187061e+00  4.408864e+00
      vertex  -8.309284e+00 -1.214345e+01  1.410243e+00
      vertex  -1.275523e+01 -7.335634e+00  1.410243e+00
    endloop
  endfacet
  facet normal  9.527219e-01  2.921201e-01  8.358785e-02
    outer loop
      vertex  -1.306387e+01 -7.187061e+00  4.408864e+00
      vertex  -1.275523e+01 -7.335634e+00  1.410243e+00
      vertex  -1.467488e+01 -1.074871e+00  1.410243e+00
    endloop
  endfacet
  facet normal  9.729097e-01  2.159825e-01 -8.245180e-02
    outer loop
      vertex  -1.306387e+01 -7.187061e+00  4.408864e+00
      vertex  -1.467488e+01 -1.074871e+00  1.410243e+00
      vertex  -1.465926e+01 -1.951155e-06  4.410243e+00
    endloop
  endfacet
  facet normal  9.869401e-01 -1.532115e-01  4.975345e-02
    outer loop
      vertex  -1.465926e+01 -1.951155e-06  4.410243e+00
      vertex  -1.467488e+01 -1.074871e+00  1.410243e+00
      vertex  -1.386861e+01  5.092824e+00  4.409391e+00
    endloop
  endfacet
  facet normal  9.876156e-01 -1.505615e-01  4.412226e-02
    outer loop
      vertex  -1.386861e+01  5.092824e+00  4.409391e+00
      vertex  -1.467488e+01 -1.074871e+00  1.410243e+00
      vertex  -1.368798e+01  5.398756e+00  1.410243e+00
    endloop
  endfacet
  facet normal  8.422100e-01 -5.391328e-01 -4.271778e-03
    outer loop
      vertex  -1.386861e+01  5.092824e+00  4.409391e+00
      vertex  -1.368798e+01  5.398756e+00  1.410243e+00
      vertex  -1.074600e+01  9.970825e+00  4.410243e+00
    endloop
  endfacet
  facet normal  8.190724e-01 -5.699518e-01  6.538730e-02
    outer loop
      vertex  -1.074600e+01  9.970825e+00  4.410243e+00
      vertex  -1.368798e+01  5.398756e+00  1.410243e+00
      vertex  -9.547418e+00  1.134910e+01  1.410069e+00
    endloop
  endfacet
  facet normal  6.110555e-01 -7.830963e-01 -1.156343e-01
    outer loop
      vertex  -1.074600e+01  9.970825e+00  4.410243e+00
      vertex  -9.547418e+00  1.134910e+01  1.410069e+00
      vertex  -6.621366e+00  1.318925e+01  4.410598e+00
    endloop
  endfacet
  facet normal  3.750333e-01 -9.071975e-01  1.906377e-01
    outer loop
      vertex  -6.621366e+00  1.318925e+01  4.410598e+00
      vertex  -9.547418e+00  1.134910e+01  1.410069e+00
      vertex  -1.154774e+00  1.481860e+01  1.410056e+00
    endloop
  endfacet
  facet normal  1.916218e-01 -9.656910e-01 -1.752766e-01
    outer loop
      vertex  -6.621366e+00  1.318925e+01  4.410598e+00
      vertex  -1.154774e+00  1.481860e+01  1.410056e+00
      vertex   1.251688e+00  1.475158e+01  4.410154e+00
    endloop
  endfacet
  facet normal -1.525104e-04  2.309636e-05 -1.000000e+00
    outer loop
      vertex   4.623641e+00  4.045171e-01  4.410243e+00
      vertex   1.483729e+01 -1.335760e+00  4.408645e+00
      vertex   4.258636e+00 -2.005685e+00  4.410243e+00
    endloop
  endfacet
  facet normal -1.352571e-04 -2.493473e-04 -1.000000e+00
    outer loop
      vertex   4.258636e+00 -2.005685e+00  4.410243e+00
      vertex   1.483729e+01 -1.335760e+00  4.408645e+00
      vertex   1.136215e+01 -9.392956e+00  4.411124e+00
    endloop
  endfacet
  facet normal  6.205851e-05 -5.961084e-05 -1.000000e+00
    outer loop
      vertex   4.258636e+00 -2.005685e+00  4.410243e+00
      vertex   1.136215e+01 -9.392956e+00  4.411124e+00
      vertex   2.297510e+00 -4.063335e+00  4.410244e+00
    endloop
  endfacet
  facet normal  6.913730e-06  1.577965e-05 -1.000000e+00
    outer loop
      vertex  -6.272050e-01 -4.663305e+00  4.410244e+00
      vertex  -3.825030e+00 -1.429195e+01  4.410069e+00
      vertex  -2.662141e+00 -3.801932e+00  4.410243e+00
    endloop
  endfacet
  facet normal -2.455541e-05  1.926822e-05 -1.000000e+00
    outer loop
      vertex  -2.662141e+00 -3.801932e+00  4.410243e+00
      vertex  -3.825030e+00 -1.429195e+01  4.410069e+00
      vertex  -8.852180e+00 -1.169051e+01  4.410243e+00
    endloop
  endfacet
  facet normal -0.000000e+00  0.000000e+00 -1.000000e+00
    outer loop
      vertex  -2.662141e+00 -3.801932e+00  4.410243e+00
      vertex  -8.852180e+00 -1.169051e+01  4.410243e+00
      vertex  -4.353755e+00 -1.794506e+00  4.410243e+00
    endloop
  endfacet
  facet normal  2.202548e-04 -1.001212e-04 -9.999999e-01
    outer loop
      vertex  -4.353755e+00 -1.794506e+00  4.410243e+00
      vertex  -8.852180e+00 -1.169051e+01  4.410243e+00
      vertex  -1.306387e+01 -7.187061e+00  4.408864e+00
    endloop
  endfacet
  facet normal -1.881859e-05  2.951338e-05 -1.000000e+00
    outer loop
      vertex  -3.281896e+00  3.281896e+00  4.410243e+00
      vertex  -6.621366e+00  1.318925e+01  4.410598e+00
      vertex  -1.939500e+00  4.218630e+00  4.410245e+00
    endloop
  endfacet
  facet normal -6.470445e-06  3.595801e-05 -1.000000e+00
    outer loop
      vertex  -1.939500e+00  4.218630e+00  4.410245e+00
      vertex  -6.621366e+00  1.318925e+01  4.410598e+00
      vertex   4.367706e-01  4.686009e+00  4.410247e+00
    endloop
  endfacet
  facet normal -5.550586e-05 -4.743948e-06 -1.000000e+00
    outer loop
      vertex   4.367706e-01  4.686009e+00  4.410247e+00
      vertex  -6.621366e+00  1.318925e+01  4.410598e+00
      vertex   1.251688e+00  1.475158e+01  4.410154e+00
    endloop
  endfacet
  facet normal  3.474261e-05  1.995203e-04 -1.000000e+00
    outer loop
      vertex  -4.353755e+00 -1.794506e+00  4.410243e+00
      vertex  -1.306387e+01 -7.187061e+00  4.408864e+00
      vertex  -1.465926e+01 -1.951155e-06  4.410243e+00
    endloop
  endfacet
  facet normal  0.000000e+00  0.000000e+00 -1.000000e+00
    outer loop
      vertex  -4.353755e+00 -1.794506e+00  4.410243e+00
      vertex  -1.465926e+01 -1.951155e-06  4.410243e+00
      vertex  -4.542222e+00  1.235709e+00  4.410243e+00
    endloop
  endfacet
  facet normal  2.083118e-05 -1.705494e-04 -1.000000e+00
    outer loop
      vertex  -4.542222e+00  1.235709e+00  4.410243e+00
      vertex  -1.465926e+01 -1.951155e-06  4.410243e+00
      vertex  -1.386861e+01  5.092824e+00  4.409391e+00
    endloop
  endfacet
  facet normal  7.281647e-05 -4.485051e-05 -1.000000e+00
    outer loop
      vertex  -4.542222e+00  1.235709e+00  4.410243e+00
      vertex  -1.386861e+01  5.092824e+00  4.409391e+00
      vertex  -3.281896e+00  3.281896e+00  4.410243e+00
    endloop
  endfacet
  facet normal  9.947655e-05  1.110048e-04 -1.000000e+00
    outer loop
      vertex  -3.281896e+00  3.281896e+00  4.410243e+00
      vertex  -1.386861e+01  5.092824e+00  4.409391e+00
      vertex  -1.074600e+01  9.970825e+00  4.410243e+00
    endloop
  endfacet
  facet normal  4.603964e-05  5.137513e-05 -1.000000e+00
    outer loop
      vertex  -3.281896e+00  3.281896e+00  4.410243e+00
      vertex  -1.074600e+01  9.970825e+00  4.410243e+00
      vertex  -6.621366e+00  1.318925e+01  4.410598e+00
    endloop
  endfacet
  facet normal  1.050381e-04  1.348909e-05 -1.000000e+00
    outer loop
      vertex   2.297510e+00 -4.063335e+00  4.410244e+00
      vertex   1.136215e+01 -9.392956e+00  4.411124e+00
      vertex   4.089863e+00 -1.413171e+01  4.410296e+00
    endloop
  endfacet
  facet normal  1.188325e-06 -4.998043e-06 -1.000000e+00
    outer loop
      vertex   2.297510e+00 -4.063335e+00  4.410244e+00
      vertex   4.089863e+00 -1.413171e+01  4.410296e+00
      vertex  -6.272050e-01 -4.663305e+00  4.410244e+00
    endloop
  endfacet
  facet normal  2.850258e-05  8.609652e-06 -1.000000e+00
    outer loop
      vertex  -6.272050e-01 -4.663305e+00  4.410244e+00
      vertex   4.089863e+00 -1.413171e+01  4.410296e+00
      vertex  -3.825030e+00 -1.429195e+01  4.410069e+00
    endloop
  endfacet
  facet normal  1.215954e-05 -1.022220e-05 -1.000000e+00
    outer loop
      vertex   4.367706e-01  4.686009e+00  4.410247e+00
      vertex   1.251688e+00  1.475158e+01  4.410154e+00
      vertex   7.010921e+00  1.287929e+01  4.410243e+00
    endloop
  endfacet
  facet normal -1.440098e-06  6.899220e-07 -1.000000e+00
    outer loop
      vertex   4.367706e-01  4.686009e+00  4.410247e+00
      vertex   7.010921e+00  1.287929e+01  4.410243e+00
      vertex   2.662141e+00  3.801932e+00  4.410243e+00
    endloop
  endfacet
  facet normal  0.000000e+00  0.000000e+00 -1.000000e+00
    outer loop
      vertex   2.662141e+00  3.801932e+00  4.410243e+00
      vertex   7.010921e+00  1.287929e+01  4.410243e+00
      vertex   1.049568e+01  1.024060e+01  4.410243e+00
    endloop
  endfacet
  facet normal  0.000000e+00  0.000000e+00 -1.000000e+00
    outer loop
      vertex   2.662141e+00  3.801932e+00  4.410243e+00
      vertex   1.049568e+01  1.024060e+01  4.410243e+00
      vertex   4.138392e+00  2.177912e+00  4.410243e+00
    endloop
  endfacet
  facet normal -2.808347e-05  2.214333e-05 -1.000000e+00
    outer loop
      vertex   4.138392e+00  2.177912e+00  4.410243e+00
      vertex   1.049568e+01  1.024060e+01  4.410243e+00
      vertex   1.355101e+01  5.911042e+00  4.410061e+00
    endloop
  endfacet
  facet normal -1.741166e-05 -4.764292e-06 -1.000000e+00
    outer loop
      vertex   4.138392e+00  2.177912e+00  4.410243e+00
      vertex   1.355101e+01  5.911042e+00  4.410061e+00
      vertex   4.623641e+00  4.045171e-01  4.410243e+00
    endloop
  endfacet
  facet normal -1.269883e-04  1.728851e-04 -1.000000e+00
    outer loop
      vertex   4.623641e+00  4.045171e-01  4.410243e+00
      vertex   1.355101e+01  5.911042e+00  4.410061e+00
      vertex   1.483729e+01 -1.335760e+00  4.408645e+00
    endloop
  endfacet
  facet normal -8.835365e-02 -9.960636e-01 -7.132018e-03
    outer loop
      vertex  -7.834359e-01  4.600920e+00  3.141024e+01
      vertex   4.367706e-01  4.686009e+00  4.410247e+00
      vertex   1.571495e+00  4.392031e+00  3.141024e+01
    endloop
  endfacet
  facet normal -3.691987e-01 -9.293349e-01  5.397560e-03
    outer loop
      vertex   1.571495e+00  4.392031e+00  3.141024e+01
      vertex   4.367706e-01  4.686009e+00  4.410247e+00
      vertex   2.662141e+00  3.801932e+00  4.410243e+00
    endloop
  endfacet
  facet normal -5.935574e-01 -8.047664e-01 -6.387762e-03
    outer loop
      vertex   1.571495e+00  4.392031e+00  3.141024e+01
      vertex   2.662141e+00  3.801932e+00  4.410243e+00
      vertex   3.845654e+00  2.714719e+00  3.141024e+01
    endloop
  endfacet
  facet normal -7.399591e-01 -6.726306e-01  5.350318e-03
    outer loop
      vertex   3.845654e+00  2.714719e+00  3.141024e+01
      vertex   2.662141e+00  3.801932e+00  4.410243e+00
      vertex   4.138392e+00  2.177912e+00  4.410243e+00
    endloop
  endfacet
  facet normal -9.476969e-01 -3.191474e-01 -3.929865e-03
    outer loop
      vertex   3.845654e+00  2.714719e+00  3.141024e+01
      vertex   4.138392e+00  2.177912e+00  4.410243e+00
      vertex   4.623641e+00  4.045166e-01  3.141024e+01
    endloop
  endfacet
  facet normal -9.645433e-01 -2.639247e-01 -4.952397e-09
    outer loop
      vertex   4.623641e+00  4.045166e-01  3.141024e+01
      vertex   4.138392e+00  2.177912e+00  4.410243e+00
      vertex   4.623641e+00  4.045171e-01  4.410243e+00
    endloop
  endfacet
  facet normal -9.929926e-01  1.181765e-01  2.217514e-09
    outer loop
      vertex   4.623641e+00  4.045166e-01  3.141024e+01
      vertex   4.623641e+00  4.045171e-01  4.410243e+00
      vertex   4.386643e+00 -1.586881e+00  3.141024e+01
    endloop
  endfacet
  facet normal -9.887236e-01  1.497336e-01  2.364982e-03
    outer loop
      vertex   4.386643e+00 -1.586881e+00  3.141024e+01
      vertex   4.623641e+00  4.045171e-01  4.410243e+00
      vertex   4.258636e+00 -2.005685e+00  4.410243e+00
    endloop
  endfacet
  facet normal -8.005387e-01  5.992559e-01 -5.499858e-03
    outer loop
      vertex   4.386643e+00 -1.586881e+00  3.141024e+01
      vertex   4.258636e+00 -2.005685e+00  4.410243e+00
      vertex   2.663775e+00 -3.888440e+00  3.141024e+01
    endloop
  endfacet
  facet normal -7.238711e-01  6.899145e-01  5.350589e-03
    outer loop
      vertex   2.663775e+00 -3.888440e+00  3.141024e+01
      vertex   4.258636e+00 -2.005685e+00  4.410243e+00
      vertex   2.297510e+00 -4.063335e+00  4.410244e+00
    endloop
  endfacet
  facet normal -3.223295e-01  9.466259e-01 -1.759336e-03
    outer loop
      vertex   2.663775e+00 -3.888440e+00  3.141024e+01
      vertex   2.297510e+00 -4.063335e+00  4.410244e+00
      vertex   5.190176e-01 -4.618738e+00  3.141024e+01
    endloop
  endfacet
  facet normal -2.009484e-01  9.795774e-01  6.913878e-03
    outer loop
      vertex   5.190176e-01 -4.618738e+00  3.141024e+01
      vertex   2.297510e+00 -4.063335e+00  4.410244e+00
      vertex  -6.272050e-01 -4.663305e+00  4.410244e+00
    endloop
  endfacet
  facet normal  1.078115e-01  9.941519e-01 -6.217867e-03
    outer loop
      vertex   5.190176e-01 -4.618738e+00  3.141024e+01
      vertex  -6.272050e-01 -4.663305e+00  4.410244e+00
      vertex  -1.571495e+00 -4.392031e+00  3.141024e+01
    endloop
  endfacet
  facet normal  3.898045e-01  9.208872e-01  4.380576e-03
    outer loop
      vertex  -1.571495e+00 -4.392031e+00  3.141024e+01
      vertex  -6.272050e-01 -4.663305e+00  4.410244e+00
      vertex  -2.662141e+00 -3.801932e+00  4.410243e+00
    endloop
  endfacet
  facet normal  5.444241e-01  8.388022e-01 -3.659185e-03
    outer loop
      vertex  -1.571495e+00 -4.392031e+00  3.141024e+01
      vertex  -2.662141e+00 -3.801932e+00  4.410243e+00
      vertex  -3.281896e+00 -3.281896e+00  3.141024e+01
    endloop
  endfacet
  facet normal  7.646853e-01  6.443833e-01  5.141285e-03
    outer loop
      vertex  -3.281896e+00 -3.281896e+00  3.141024e+01
      vertex  -2.662141e+00 -3.801932e+00  4.410243e+00
      vertex  -4.353755e+00 -1.794506e+00  4.410243e+00
    endloop
  endfacet
  facet normal  8.330348e-01  5.532144e-01 -2.594441e-03
    outer loop
      vertex  -3.281896e+00 -3.281896e+00  3.141024e+01
      vertex  -4.353755e+00 -1.794506e+00  4.410243e+00
      vertex  -4.384223e+00 -1.622002e+00  3.141024e+01
    endloop
  endfacet
  facet normal  9.912832e-01  1.317476e-01  2.769031e-04
    outer loop
      vertex  -4.384223e+00 -1.622002e+00  3.141024e+01
      vertex  -4.353755e+00 -1.794506e+00  4.410243e+00
      vertex  -4.635518e+00  2.687618e-01  3.141024e+01
    endloop
  endfacet
  facet normal  9.980553e-01  6.207513e-02  5.671761e-03
    outer loop
      vertex  -4.635518e+00  2.687618e-01  3.141024e+01
      vertex  -4.353755e+00 -1.794506e+00  4.410243e+00
      vertex  -4.542222e+00  1.235709e+00  4.410243e+00
    endloop
  endfacet
  facet normal  9.610423e-01 -2.763230e-01 -6.575144e-03
    outer loop
      vertex  -4.635518e+00  2.687618e-01  3.141024e+01
      vertex  -4.542222e+00  1.235709e+00  4.410243e+00
      vertex  -4.044441e+00  2.324506e+00  3.141024e+01
    endloop
  endfacet
  facet normal  8.514349e-01 -5.244320e-01  5.450807e-03
    outer loop
      vertex  -4.044441e+00  2.324506e+00  3.141024e+01
      vertex  -4.542222e+00  1.235709e+00  4.410243e+00
      vertex  -3.281896e+00  3.281896e+00  4.410243e+00
    endloop
  endfacet
  facet normal  7.302194e-01 -6.832032e-01 -3.602465e-03
    outer loop
      vertex  -4.044441e+00  2.324506e+00  3.141024e+01
      vertex  -3.281896e+00  3.281896e+00  4.410243e+00
      vertex  -2.662141e+00  3.801932e+00  3.141024e+01
    endloop
  endfacet
  facet normal  5.722530e-01 -8.200728e-01  2.659667e-03
    outer loop
      vertex  -2.662141e+00  3.801932e+00  3.141024e+01
      vertex  -3.281896e+00  3.281896e+00  4.410243e+00
      vertex  -1.939500e+00  4.218630e+00  4.410245e+00
    endloop
  endfacet
  facet normal  3.913611e-01 -9.202296e-01 -3.727559e-03
    outer loop
      vertex  -2.662141e+00  3.801932e+00  3.141024e+01
      vertex  -1.939500e+00  4.218630e+00  4.410245e+00
      vertex  -7.834359e-01  4.600920e+00  3.141024e+01
    endloop
  endfacet
  facet normal  1.929856e-01 -9.811854e-01  5.629392e-03
    outer loop
      vertex  -7.834359e-01  4.600920e+00  3.141024e+01
      vertex  -1.939500e+00  4.218630e+00  4.410245e+00
      vertex   4.367706e-01  4.686009e+00  4.410247e+00
    endloop
  endfacet
endsolid vcg
